<?xml version="1.0" standalone="no"?>
<!DOCTYPE svg PUBLIC "-//W3C//DTD SVG 20010904//EN"
 "http://www.w3.org/TR/2001/REC-SVG-20010904/DTD/svg10.dtd">
<svg version="1.0" xmlns="http://www.w3.org/2000/svg"
 width="1280.000000pt" height="720.000000pt" viewBox="0 0 1280.000000 720.000000"
 preserveAspectRatio="xMidYMid meet">

<g transform="translate(0.000000,720.000000) scale(0.100000,-0.100000)"
fill="#20B2AA" stroke="none">
<path d="M0 3600 l0 -3600 6400 0 6400 0 0 3600 0 3600 -6400 0 -6400 0 0
-3600z m9105 2425 c0 -18 -8 -20 -92 -23 l-93 -3 0 -44 0 -45 83 0 c77 0 107
-9 107 -32 0 -4 -49 -8 -110 -8 -126 0 -130 3 -130 89 0 81 18 92 138 89 89
-3 97 -5 97 -23z m225 5 c22 -22 25 -51 9 -82 -9 -16 -7 -23 10 -35 21 -14 29
-43 13 -43 -5 0 -42 11 -82 25 -40 14 -79 25 -87 25 -7 0 -13 -11 -13 -25 0
-18 -5 -25 -20 -25 -19 0 -20 6 -19 90 l1 90 84 0 c71 0 87 -3 104 -20z m308
-7 c3 -22 1 -23 -92 -23 -79 0 -96 -3 -96 -15 0 -12 17 -15 95 -15 95 0 95 0
95 -25 0 -25 -1 -25 -97 -27 l-98 -1 85 -6 c47 -4 91 -10 98 -14 30 -20 5 -27
-92 -27 -97 0 -106 2 -120 22 -24 33 -21 113 4 138 19 19 31 20 118 18 92 -3
97 -4 100 -25z m252 7 c18 -18 20 -32 18 -90 -2 -66 -3 -70 -25 -70 -18 0 -23
6 -23 25 0 24 -2 25 -70 25 -68 0 -70 -1 -70 -25 0 -20 -5 -25 -25 -25 -24 0
-25 2 -25 70 0 98 13 110 120 110 67 0 83 -3 100 -20z m290 0 c0 -17 -7 -20
-50 -20 l-50 0 -2 -52 c0 -29 -1 -61 0 -70 1 -13 -6 -18 -23 -18 -24 0 -25 2
-25 71 0 71 0 71 -25 67 -14 -3 -25 -2 -25 2 0 4 -9 10 -20 13 -11 3 -20 10
-20 16 0 7 40 11 120 11 113 0 120 -1 120 -20z m69 -70 c-3 -87 -3 -90 -26
-90 -24 0 -24 1 -22 90 3 87 3 90 26 90 24 0 24 -1 22 -90z m136 29 l48 -61
26 33 c58 75 76 91 100 87 21 -3 20 -6 -24 -63 -25 -33 -52 -64 -59 -70 -7 -5
-15 -18 -19 -27 -3 -10 -13 -18 -22 -18 -14 0 -101 100 -112 130 -3 8 -15 23
-27 32 -21 17 -21 18 10 18 26 0 39 -10 79 -61z m455 36 c0 -25 0 -25 -95 -25
-78 0 -95 -3 -95 -15 0 -12 17 -15 95 -15 95 0 95 0 95 -25 0 -25 -1 -25 -97
-27 l-98 -1 90 -6 c89 -6 115 -13 115 -32 0 -14 -213 -12 -228 3 -7 7 -12 38
-12 70 0 87 15 98 135 98 95 0 95 0 95 -25z m-9435 5 c23 -5 51 -21 66 -38
l26 -29 35 33 c30 27 46 33 99 39 35 3 93 5 129 3 l65 -3 3 -77 3 -76 -141 -4
c-147 -3 -159 -7 -160 -50 0 -16 14 -18 148 -18 l148 0 3 -50 c2 -46 0 -50
-21 -51 l-23 0 23 -9 c12 -5 22 -16 22 -24 0 -19 -20 -32 -21 -14 0 10 -2 10
-6 1 -3 -8 -26 -13 -63 -13 -47 0 -59 3 -62 17 -3 16 -4 16 -20 0 -12 -13 -34
-17 -83 -17 -57 0 -68 3 -72 19 -3 12 -13 18 -28 17 -15 0 -20 -5 -14 -10 19
-20 7 -26 -53 -26 -61 0 -64 1 -113 48 -27 26 -37 33 -22 16 15 -16 27 -35 27
-41 0 -6 6 -14 13 -17 6 -3 -17 -4 -53 -3 -65 2 -72 7 -59 42 2 6 -1 12 -6 14
-5 3 -13 -8 -16 -25 -4 -18 -7 0 -8 49 l-1 77 150 0 c159 0 167 3 136 46 -13
17 -29 19 -138 22 -78 3 -125 8 -130 15 -11 17 -21 114 -14 132 4 12 24 15 98
15 51 0 111 -5 133 -10z m9955 -10 c0 -5 -5 -10 -11 -10 -5 0 -7 5 -4 10 3 6
8 10 11 10 2 0 4 -4 4 -10z m-5132 -46 c79 -43 98 -43 107 -4 4 17 11 28 16
24 12 -7 11 -275 -1 -295 -10 -16 -9 -18 -35 76 -42 151 -113 215 -240 215
-126 0 -198 -61 -198 -168 0 -102 45 -152 191 -213 135 -55 194 -90 243 -140
112 -116 121 -306 19 -422 -91 -103 -223 -119 -381 -46 -80 37 -101 35 -114
-9 -5 -17 -13 -32 -17 -32 -4 0 -8 83 -8 185 0 102 4 185 9 185 4 0 13 -31 20
-70 6 -38 22 -93 35 -122 28 -64 99 -132 152 -147 64 -18 153 -13 200 10 84
40 109 161 47 223 -14 14 -89 58 -166 97 -227 115 -287 188 -295 355 -7 149
30 242 119 297 91 56 196 56 297 1z m-1049 21 c46 -23 59 -66 62 -200 1 -86
-1 -119 -10 -117 -11 2 -13 -4 -15 -43 -1 -10 -16 -29 -35 -42 -33 -22 -40
-23 -271 -23 l-237 0 -7 88 c-3 48 -6 120 -5 160 l0 72 54 0 c43 0 53 3 49 14
-3 8 -22 16 -42 18 -25 2 -37 8 -37 18 -1 8 -6 14 -13 13 -13 -3 -17 39 -5 50
3 4 114 7 245 7 190 0 245 -3 267 -15z m501 5 c0 -5 -25 -10 -55 -10 l-55 0 0
-500 0 -500 55 0 c30 0 55 -4 55 -10 0 -6 -70 -10 -190 -10 -120 0 -190 4
-190 10 0 6 23 10 50 10 l50 0 0 500 0 500 -50 0 c-27 0 -50 5 -50 10 0 6 70
10 190 10 120 0 190 -4 190 -10z m-1106 -16 c10 -27 7 -314 -4 -314 -5 0 -10
-13 -10 -29 0 -16 -8 -37 -17 -47 -13 -13 -14 -16 -3 -12 8 2 21 15 28 29 l13
24 -3 -25 c-4 -32 -44 -53 -72 -38 -38 20 -385 262 -381 266 2 2 90 -55 195
-128 106 -72 194 -130 196 -128 2 3 -380 266 -423 292 -10 6 -13 -15 -11 -91
l2 -98 3 88 c3 64 7 87 16 84 7 -2 10 -11 8 -18 -2 -8 -3 -74 -2 -146 l2 -133
-56 0 -55 0 0 149 c0 82 -3 156 -6 165 -4 10 -1 16 9 16 11 0 17 12 19 37 4
54 25 53 113 -7 41 -28 75 -48 75 -46 0 13 -153 107 -168 104 -9 -2 -22 -14
-29 -28 -11 -22 -13 -23 -13 -4 0 26 18 44 45 44 26 0 218 -128 210 -140 -3
-5 28 -32 70 -60 41 -28 75 -48 75 -45 0 2 -32 26 -70 51 -39 26 -68 49 -66
51 2 3 48 -25 103 -61 l98 -66 3 140 3 140 48 0 c35 0 51 -4 55 -16z m6863 0
c25 -18 31 -9 -265 -422 -40 -57 -71 -106 -69 -109 3 -2 82 -4 176 -3 l171 1
0 -36 0 -36 -205 2 c-154 2 -210 6 -225 16 -24 17 -31 5 145 252 184 259 195
274 190 279 -2 3 -82 5 -177 6 l-173 1 -3 33 -3 33 210 -2 c154 -1 216 -5 228
-15z m-7588 -7 c55 -28 66 -59 70 -193 2 -78 -1 -124 -7 -124 -5 0 -12 -20
-14 -45 -3 -47 7 -62 15 -22 4 15 5 12 4 -8 -2 -29 -3 -30 -52 -30 l-50 0 -3
68 -3 67 -52 0 c-29 0 -109 -3 -179 -7 l-128 -6 0 -64 0 -63 -55 0 -55 0 0
155 c0 85 0 157 0 160 0 3 3 4 6 3 10 -4 24 40 18 55 -7 18 28 48 68 57 57 14
390 11 417 -3z m-736 -11 c47 -19 60 -41 68 -108 8 -68 -2 -117 -31 -143 -29
-26 -25 -34 21 -41 27 -5 38 -11 35 -20 -3 -7 4 -16 15 -19 25 -8 27 -61 2
-68 -14 -4 -13 -5 4 -6 16 -1 23 6 26 27 3 22 4 20 6 -10 0 -21 -1 -38 -4 -38
-3 0 -102 32 -221 71 -118 39 -222 69 -231 67 -14 -2 -16 -15 -14 -70 l2 -68
-55 0 -56 0 0 149 c0 82 -3 157 -7 167 -5 13 -3 16 10 11 14 -5 17 1 17 38 l0
44 133 4 132 3 -137 2 -137 2 -4 -27 c-4 -27 -4 -26 -6 4 -1 32 -1 32 52 35
147 10 350 7 380 -6z m-594 -9 c48 -24 66 -63 65 -135 0 -37 -2 -78 -3 -92 -2
-14 1 -38 4 -53 6 -20 3 -31 -9 -40 -9 -7 -15 -23 -14 -36 2 -18 -6 -30 -31
-48 -33 -23 -39 -23 -277 -23 l-244 0 0 155 c0 180 -1 171 11 168 5 -2 9 17 9
42 l0 45 130 0 c72 0 130 3 130 8 0 4 -60 6 -134 4 l-135 -3 -4 -27 c-4 -25
-4 -25 -6 5 -1 31 0 32 47 35 143 10 439 7 461 -5z m6908 -299 l-2 -33 -158
-3 -157 -3 0 -29 0 -30 155 0 c85 0 156 -3 156 -7 1 -5 3 -20 5 -35 l3 -28
-160 0 c-87 0 -159 -4 -159 -9 0 -5 64 -10 143 -12 117 -4 147 -7 160 -21 9
-9 17 -24 17 -32 0 -14 -22 -16 -170 -16 -168 0 -171 0 -195 25 -23 22 -25 32
-25 115 0 59 4 90 11 90 6 0 9 7 5 15 -3 8 4 21 17 30 17 12 55 15 189 15
l168 0 -3 -32z m552 -113 l-2 -145 -34 0 -33 0 0 110 c0 67 4 110 10 110 6 0
10 11 10 24 0 18 7 26 23 29 19 4 19 4 -5 6 -18 1 -28 -5 -31 -16 -4 -14 -5
-12 -6 5 -1 19 4 22 34 22 l36 0 -2 -145z m441 114 l0 -30 -82 3 -83 3 5 -78
c3 -44 1 -81 -3 -84 -4 -2 -5 -20 -1 -39 6 -34 6 -34 -30 -34 l-36 0 0 116 0
117 -45 -5 c-25 -3 -45 -2 -45 3 0 4 -12 9 -27 11 -20 2 -29 9 -31 26 l-3 22
190 0 191 0 0 -31z m450 -4 l0 -36 -162 3 -163 3 0 -35 0 -35 138 3 c95 2 137
0 132 -7 -3 -6 0 -9 8 -5 18 7 35 -15 43 -54 5 -22 3 -32 -6 -32 -7 0 -10 -7
-6 -15 3 -8 -4 -21 -17 -30 -17 -12 -55 -15 -189 -15 l-168 0 0 35 0 35 159 0
c118 0 160 3 164 13 3 9 -26 11 -134 9 -137 -3 -139 -3 -164 22 -18 18 -25 36
-25 65 0 22 5 43 11 46 6 4 8 13 5 21 -3 7 5 20 17 29 17 12 55 15 189 15
l168 0 0 -35z m-1041 -1 c17 -22 21 -41 21 -110 0 -55 -4 -84 -11 -84 -6 0 -9
-6 -6 -14 3 -8 -2 -21 -12 -30 -15 -13 -46 -16 -184 -16 l-167 0 0 105 0 105
30 0 c38 0 40 18 3 22 -20 2 -29 9 -31 26 l-3 22 170 0 170 0 20 -26z m-8397
-63 c14 -5 34 -21 45 -34 l18 -25 37 33 c42 38 94 48 218 43 l75 -3 0 -75 0
-75 -138 -6 c-143 -5 -156 -10 -157 -51 0 -16 13 -18 118 -19 64 -1 133 -1
152 -1 29 1 31 0 15 -7 -14 -7 -15 -10 -5 -10 12 -1 16 -15 15 -68 l0 -68
-315 -2 c-173 -1 -322 1 -330 3 -13 5 -13 6 0 14 9 6 10 10 3 10 -9 0 -12 34
-12 121 -1 126 9 169 46 201 38 34 150 44 215 19z m6878 -361 l0 -270 -905 0
c-898 0 -905 0 -905 20 0 19 7 20 234 20 223 0 234 1 260 21 18 14 24 24 17
29 -16 9 -3 40 16 40 10 0 13 6 9 16 -3 9 -6 76 -6 150 l0 134 -50 0 -50 0 0
-90 0 -90 -162 2 -163 3 -3 88 -3 87 -49 0 -50 0 0 55 0 55 905 0 905 0 0
-270z m3167 218 c-3 -8 -6 -5 -6 6 -1 11 2 17 5 13 3 -3 4 -12 1 -19z m-490
-40 c-3 -8 -6 -5 -6 6 -1 11 2 17 5 13 3 -3 4 -12 1 -19z m133 -42 c0 -3 -4
-8 -10 -11 -5 -3 -10 -1 -10 4 0 6 5 11 10 11 6 0 10 -2 10 -4z m-4600 -46 c0
-11 -4 -20 -10 -20 -5 0 -10 9 -10 20 0 11 5 20 10 20 6 0 10 -9 10 -20z
m4870 -115 c58 -30 60 -38 60 -288 0 -256 -4 -272 -66 -302 -31 -14 -58 -17
-173 -13 -147 4 -177 13 -199 64 -16 33 -16 467 -1 495 5 11 25 29 42 39 28
17 51 20 170 20 103 0 145 -4 167 -15z m-1607 -2 c-46 -2 -120 -2 -165 0 -46
1 -9 3 82 3 91 0 128 -2 83 -3z m-3231 -63 c30 -18 51 -20 206 -20 146 0 172
-2 172 -15 0 -13 -31 -15 -215 -15 l-215 0 1 58 c0 44 2 52 9 35 5 -13 24 -32
42 -43z m4279 41 c23 -18 24 -26 24 -130 1 -100 -1 -111 -17 -111 -15 0 -18 8
-18 45 l0 45 -140 0 -140 0 0 -45 c0 -33 -4 -45 -15 -45 -12 0 -15 19 -15 110
0 151 -1 150 169 150 112 0 132 -3 152 -19z m-1791 -46 c34 -40 137 -137 145
-137 4 0 49 41 100 91 51 50 100 91 109 91 14 0 16 -17 16 -125 0 -104 -2
-125 -15 -125 -12 0 -15 17 -15 95 0 52 -3 95 -7 95 -4 0 -47 -39 -95 -87
l-88 -88 -88 88 c-48 48 -91 87 -95 87 -4 0 -7 -43 -7 -95 0 -78 -3 -95 -15
-95 -13 0 -15 20 -15 123 0 68 3 127 7 130 8 8 29 -8 63 -48z m810 40 c0 -13
-24 -15 -155 -15 -155 0 -155 0 -161 -24 -3 -13 -4 -36 -2 -51 l3 -27 158 1
c134 2 157 0 157 -13 0 -13 -25 -16 -157 -18 l-158 -3 0 -25 0 -25 130 -2 c72
-1 142 -2 158 -3 17 0 27 -5 27 -15 0 -13 -24 -15 -157 -15 -194 0 -193 -1
-193 112 0 46 -4 78 -10 78 -6 0 2 14 17 30 l26 30 159 0 c134 0 158 -2 158
-15z m408 -1 c20 -14 22 -24 22 -100 0 -54 4 -83 10 -79 21 13 9 -9 -20 -36
l-30 -29 -150 0 -150 0 0 90 c0 73 3 90 15 90 12 0 15 -14 15 -70 l0 -71 138
3 137 3 0 85 0 85 -152 3 c-145 2 -153 4 -153 22 0 19 7 20 148 20 117 0 152
-3 170 -16z m152 -109 c0 -104 -2 -125 -15 -125 -13 0 -15 21 -15 125 0 104 2
125 15 125 13 0 15 -21 15 -125z m-8707 109 c68 -8 111 -48 127 -115 19 -80
-2 -221 -31 -204 -5 4 -9 -3 -9 -15 0 -17 -4 -20 -21 -15 -15 5 -19 4 -15 -4
17 -27 -136 -44 -163 -18 -11 10 -13 10 -7 0 9 -16 -96 -18 -125 -3 -13 8 -19
7 -19 0 0 -7 -7 -7 -21 1 -15 7 -19 8 -15 0 10 -16 -119 -12 -158 4 -61 26
-86 79 -86 184 0 76 26 142 62 162 12 7 41 16 63 19 57 8 361 11 418 4z m4852
-14 c10 -11 16 -20 13 -20 -3 0 -13 9 -23 20 -10 11 -16 20 -13 20 3 0 13 -9
23 -20z m308 -27 c-51 -2 -135 -2 -185 0 -51 1 -10 3 92 3 102 0 143 -2 93 -3z
m2684 -50 c-3 -10 -5 -2 -5 17 0 19 2 27 5 18 2 -10 2 -26 0 -35z m1930 -285
c-1 -62 -3 -12 -3 112 0 124 2 174 3 113 2 -62 2 -164 0 -225z m-500 5 c-1
-60 -3 -11 -3 107 0 118 2 167 3 108 2 -60 2 -156 0 -215z m-4144 270 c-56 -2
-151 -2 -210 0 -59 1 -13 3 102 3 116 0 164 -2 108 -3z m20 -60 c-56 -2 -151
-2 -210 0 -59 1 -13 3 102 3 116 0 164 -2 108 -3z m2857 0 c-108 -3 -156 -7
-162 -16 -5 -7 -8 -8 -8 -1 0 22 16 24 169 22 l156 -2 -155 -3z m1043 0 c-34
-2 -93 -2 -130 0 -37 2 -9 3 62 3 72 0 102 -1 68 -3z m-8225 -492 l182 -244 0
247 0 246 60 0 60 0 0 -420 c0 -231 -2 -420 -4 -420 -2 0 -125 158 -273 352
l-268 351 -3 -486 -2 -487 -60 0 -60 0 0 555 0 556 93 -3 92 -3 183 -244z
m472 -306 l0 -555 -90 0 -90 0 -185 247 -185 246 0 -246 0 -247 -60 0 -60 0 0
423 1 422 24 -30 c14 -16 136 -177 273 -356 l247 -326 3 489 2 488 60 0 60 0
0 -555z m2700 0 l0 -555 -60 0 -60 0 0 555 0 555 60 0 60 0 0 -555z m170 0 l0
-555 -60 0 -60 0 0 555 0 555 60 0 60 0 0 -555z m2081 535 c146 -45 253 -147
308 -295 28 -75 40 -280 22 -395 -24 -159 -123 -291 -269 -361 -128 -62 -296
-50 -420 30 -99 65 -167 158 -198 274 -20 74 -19 344 1 422 65 248 322 398
556 325z m-6631 -6 c19 -3 46 -7 60 -11 14 -3 35 -5 47 -4 22 2 22 1 8 -26
-17 -33 -19 -53 -5 -53 6 0 10 6 10 13 0 8 11 24 25 37 l24 23 168 -24 168
-24 2 -55 c1 -30 -2 -61 -7 -70 -6 -10 -36 -18 -97 -26 l-88 -10 -76 39 c-70
35 -85 39 -170 43 -52 2 -112 4 -134 4 -69 -1 -85 7 -85 40 0 24 4 30 23 31
l22 0 -22 9 c-18 7 -23 17 -23 46 l0 36 58 -7 c31 -3 73 -9 92 -11z m1890
-227 c0 -266 6 -309 55 -373 36 -47 99 -92 147 -104 l38 -11 0 -184 0 -185
-60 0 -60 0 0 140 0 140 -41 20 c-62 32 -127 103 -162 178 l-32 67 -3 278 -3
277 60 0 61 0 0 -243z m162 -7 l3 -250 28 -27 c20 -21 37 -28 67 -28 30 0 47
7 68 28 l27 27 3 250 3 250 60 0 60 0 -3 -258 c-3 -254 -3 -258 -29 -307 -69
-135 -245 -155 -347 -40 -57 65 -62 92 -62 364 l0 241 60 0 59 0 3 -250z m476
-33 l-3 -283 -33 -66 c-34 -70 -108 -147 -169 -176 l-33 -16 0 -138 0 -138
-60 0 -60 0 0 185 0 184 39 11 c67 18 133 69 166 130 l30 55 3 268 3 267 60 0
60 0 -3 -283z m643 246 c81 -38 157 -111 195 -188 l29 -60 3 -407 3 -408 -60
0 -60 0 -3 388 c-3 338 -5 392 -20 424 -28 62 -65 103 -120 134 -45 24 -64 29
-123 29 -110 -1 -192 -54 -239 -154 -20 -44 -21 -63 -24 -433 l-3 -388 -60 0
-60 0 3 408 3 407 27 57 c45 97 139 177 253 215 67 22 181 12 256 -24z m1019
-23 l0 -60 -365 0 -365 0 0 60 0 60 365 0 365 0 0 -60z m1489 41 c77 -24 146
-68 204 -130 160 -171 155 -449 -11 -619 l-49 -50 89 -123 c126 -175 122 -159
34 -159 l-74 0 -106 156 c-58 86 -106 160 -106 163 0 4 18 17 39 29 60 34 137
124 157 184 55 162 -14 339 -161 416 -46 24 -62 26 -197 30 l-148 4 0 -491 0
-491 -60 0 -60 0 0 550 0 550 194 0 c163 0 204 -3 255 -19z m1952 -18 c35 -17
84 -48 109 -71 l45 -40 -44 -45 -43 -45 -30 33 c-49 57 -110 80 -208 79 -67 0
-96 -5 -137 -23 -64 -28 -126 -93 -161 -169 -26 -55 -27 -64 -27 -227 0 -165
1 -172 28 -231 99 -214 356 -266 515 -103 67 69 95 136 100 241 l4 88 -171 0
-171 0 0 60 0 60 231 0 231 0 -4 -157 c-5 -184 -19 -234 -96 -336 -130 -169
-340 -222 -528 -133 -126 60 -224 179 -253 307 -6 24 -11 114 -11 199 0 219
24 302 117 401 99 106 207 151 349 146 77 -3 102 -9 155 -34z m469 -331 c0
-424 2 -439 75 -520 128 -142 338 -104 428 78 21 44 22 56 25 428 l3 382 60 0
60 0 -3 -403 -3 -402 -33 -67 c-41 -83 -107 -149 -191 -191 -59 -29 -74 -32
-156 -32 -81 0 -97 3 -155 32 -83 41 -152 110 -193 193 l-32 65 -3 402 -3 403
61 0 60 0 0 -368z m170 -3 c0 -235 4 -377 10 -390 16 -28 67 -51 99 -44 16 3
39 17 52 31 l24 26 3 374 3 374 60 0 60 0 -3 -377 c-3 -358 -4 -380 -24 -423
-77 -167 -291 -173 -376 -11 l-28 53 0 379 0 379 60 0 60 0 0 -371z m1260 311
l0 -60 -285 0 -285 0 0 -430 0 -430 285 0 285 0 0 -60 0 -60 -345 0 -345 0 0
550 0 550 345 0 345 0 0 -60z m-6398 -136 c26 -18 53 -50 70 -83 28 -53 28
-56 28 -232 l0 -179 -215 0 -215 0 0 179 c0 176 0 179 28 232 21 42 40 62 82
87 50 30 61 33 117 30 50 -3 71 -10 105 -34z m676 -431 l-3 -468 -57 -3 -58
-3 0 411 0 410 -115 0 -115 0 0 60 0 60 175 0 175 0 -2 -467z m382 407 l0 -60
-110 0 -110 0 -2 -407 -3 -408 -57 -3 -58 -3 0 471 0 470 170 0 170 0 0 -60z
m1452 44 c186 -63 248 -318 115 -470 -64 -73 -102 -88 -239 -92 l-118 -4 0
291 0 291 98 0 c63 0 115 -6 144 -16z m1899 1 c47 -17 107 -59 116 -82 3 -8
-10 -30 -32 -53 l-38 -39 -29 24 c-75 63 -174 51 -226 -28 -25 -38 -27 -49
-30 -170 -2 -72 -1 -145 3 -163 8 -47 61 -100 114 -114 54 -14 112 4 156 50
l29 30 -82 0 -82 0 0 60 0 60 148 0 148 0 -8 -66 c-10 -86 -38 -144 -94 -193
-136 -120 -329 -83 -419 80 -29 52 -30 59 -33 206 -3 117 0 164 12 207 45 152
205 241 347 191z m1989 -45 l0 -60 -200 0 -200 0 0 -60 0 -60 135 0 135 0 0
-60 0 -60 -195 0 -195 0 0 180 0 180 260 0 260 0 0 -60z m-9275 -10 l30 -20
-32 0 c-18 0 -33 -5 -33 -11 0 -5 3 -8 8 -6 4 2 54 -2 112 -9 58 -7 118 -13
133 -13 24 -1 27 -4 22 -22 -5 -15 -4 -19 4 -14 9 5 11 -9 10 -49 -2 -49 -5
-57 -25 -62 -14 -4 -37 4 -63 20 -49 31 -64 34 -27 5 31 -24 25 -41 -12 -38
-15 2 -32 0 -38 -3 -13 -9 -99 48 -140 93 -17 19 -52 53 -77 77 l-47 43 0 -33
c0 -24 3 -29 10 -18 7 12 12 12 29 -4 33 -30 25 -37 -36 -31 -67 8 -70 10 -76
50 -4 27 -4 26 -6 -7 -1 -41 -11 -47 -35 -23 -17 18 -33 19 -38 4 -3 -8 -17
-10 -42 -5 -37 7 -37 8 -34 49 l3 42 150 16 c161 16 179 14 250 -31z m9668
-67 c-40 -2 -106 -2 -145 0 -40 1 -8 3 72 3 80 0 112 -2 73 -3z m110 0 c-7 -2
-19 -2 -25 0 -7 3 -2 5 12 5 14 0 19 -2 13 -5z m124 -25 c-3 -8 -6 -5 -6 6 -1
11 2 17 5 13 3 -3 4 -12 1 -19z m-32 -23 l0 -30 -200 -2 c-110 -1 -210 0 -222
3 -28 6 -32 50 -5 57 9 3 109 5 222 4 l205 -2 0 -30z m-9924 -31 c18 -19 49
-45 68 -56 43 -27 27 -37 -64 -42 -36 -2 -68 -6 -72 -10 -3 -3 -19 -6 -35 -6
-27 0 -29 2 -23 29 8 38 -20 57 -50 35 -17 -13 -18 -16 -5 -24 9 -6 17 -5 22
3 11 18 21 0 14 -26 -5 -22 -13 -26 -63 -31 -32 -4 -76 -9 -98 -12 l-40 -5 -2
38 c-3 47 10 74 29 55 6 -6 17 -12 23 -12 5 0 -5 12 -22 26 -54 42 -45 50 69
58 67 5 103 4 108 -3 4 -7 13 -6 26 4 34 26 77 19 115 -21z m9956 -1 c-3 -10
-5 -4 -5 12 0 17 2 24 5 18 2 -7 2 -21 0 -30z m-500 -165 c-3 -8 -6 -5 -6 6
-1 11 2 17 5 13 3 -3 4 -12 1 -19z m83 -138 l0 -140 195 0 195 0 0 -30 0 -30
-195 0 -195 0 0 -135 0 -135 -30 0 -30 0 0 305 0 305 30 0 30 0 0 -140z m27
-42 c-2 -35 -3 -9 -3 57 0 66 1 94 3 63 2 -32 2 -86 0 -120z m-367 92 l0 -60
-135 0 -135 0 0 -60 0 -60 198 -2 197 -3 3 -57 3 -58 -261 0 -260 0 0 180 0
180 195 0 195 0 0 -60z m257 -327 c-1 -71 -3 -13 -3 127 0 140 2 198 3 128 2
-71 2 -185 0 -255z m-6427 37 l0 -180 -60 0 -60 0 0 120 0 120 -95 0 -95 0 0
-120 0 -120 -60 0 -60 0 0 180 0 180 215 0 215 0 0 -180z m2478 -19 c56 -82
102 -152 102 -155 0 -3 -31 -6 -69 -6 l-68 0 -63 95 c-34 52 -69 95 -76 95
-11 0 -14 -21 -14 -95 l0 -95 -60 0 -60 0 0 155 0 155 103 0 104 0 101 -149z
m4322 142 c0 -5 -42 -7 -92 -5 -168 5 -185 8 -45 10 75 1 137 -1 137 -5z m128
-18 c-3 -3 -9 2 -12 12 -6 14 -5 15 5 6 7 -7 10 -15 7 -18z m-1 -77 c-3 -8 -6
-5 -6 6 -1 11 2 17 5 13 3 -3 4 -12 1 -19z m-390 -105 c-2 -16 -4 -3 -4 27 0
30 2 43 4 28 2 -16 2 -40 0 -55z m3 -63 c0 -5 -2 -10 -4 -10 -3 0 -8 5 -11 10
-3 6 -1 10 4 10 6 0 11 -4 11 -10z m-113 -52 c-3 -8 -6 -5 -6 6 -1 11 2 17 5
13 3 -3 4 -12 1 -19z m29 -61 c21 -4 21 -4 -3 -3 -21 1 -28 6 -29 21 -1 14 0
15 3 3 2 -9 15 -19 29 -21z m-3698 -14 c-38 -2 -98 -2 -135 0 -38 2 -7 3 67 3
74 0 105 -1 68 -3z m384 0 c-40 -2 -103 -2 -140 0 -37 2 -4 3 73 3 77 0 107
-2 67 -3z m-1534 -13 c48 0 82 -4 82 -10 0 -6 -52 -10 -135 -10 l-135 0 0 -85
0 -85 135 0 c113 0 135 -2 135 -15 0 -13 -21 -15 -132 -15 -167 0 -168 1 -168
113 0 105 13 122 85 113 28 -3 87 -6 133 -6z m434 -7 c15 -13 18 -32 18 -115
0 -80 -3 -98 -15 -98 -11 0 -15 11 -15 40 l0 40 -120 0 -120 0 0 -40 c0 -29
-4 -40 -15 -40 -12 0 -15 17 -15 95 0 132 4 135 152 135 90 0 115 -3 130 -17z
m338 -3 c24 -24 27 -91 6 -109 -8 -7 -27 -16 -42 -20 -26 -7 -24 -8 29 -25 55
-17 75 -31 63 -43 -3 -3 -46 9 -95 27 -49 17 -95 29 -102 24 -8 -4 -10 -3 -5
4 5 8 -4 12 -28 12 -35 0 -36 -1 -36 -40 0 -29 -4 -40 -15 -40 -12 0 -15 19
-15 115 l0 115 110 0 c97 0 112 -2 130 -20z m1133 6 c12 -9 17 -27 17 -61 0
-53 -17 -74 -60 -75 -17 -1 -3 -9 40 -24 37 -13 66 -29 68 -38 2 -12 -22 -6
-109 24 -61 21 -123 38 -138 38 -25 0 -27 -3 -27 -37 1 -21 -4 -38 -11 -40
-10 -4 -13 18 -13 86 0 66 -3 91 -12 92 -10 0 -10 2 0 6 6 2 12 13 12 24 0 18
8 19 108 19 73 -1 113 -5 125 -14z m-693 -11 c0 -13 -22 -15 -135 -15 l-135 0
0 -40 0 -40 135 0 c113 0 135 -2 135 -15 0 -13 -22 -15 -135 -15 -122 0 -135
-2 -135 -17 0 -16 11 -18 115 -15 78 3 115 0 115 -7 0 -6 9 -11 20 -11 11 0
20 -7 20 -15 0 -13 -21 -15 -130 -15 -163 0 -170 4 -170 112 0 106 3 108 167
108 112 0 133 -2 133 -15z m378 3 c-3 -9 -42 -14 -136 -16 l-132 -3 0 -39 0
-40 135 0 c113 0 135 -2 135 -15 0 -13 -22 -15 -135 -15 -122 0 -135 -2 -135
-17 0 -16 10 -18 106 -15 67 2 111 -1 117 -7 6 -6 19 -11 30 -11 10 0 17 -5
15 -12 -3 -9 -40 -14 -128 -16 -165 -4 -170 -1 -170 111 0 51 5 88 12 95 17
17 291 17 286 0z m-1566 -25 c-40 -2 -103 -2 -140 0 -37 2 -4 3 73 3 77 0 107
-2 67 -3z m1255 -110 c-2 -21 -4 -4 -4 37 0 41 2 58 4 38 2 -21 2 -55 0 -75z
m4040 35 c-3 -8 -6 -5 -6 6 -1 11 2 17 5 13 3 -3 4 -12 1 -19z m-27 -28 l0
-30 -80 0 -80 0 2 -247 3 -246 78 2 78 2 -3 -33 -3 -33 -173 -2 c-189 -2 -222
4 -252 47 -19 26 -20 44 -20 262 0 318 -10 307 273 308 l177 0 0 -30z m27 -22
c-3 -7 -5 -2 -5 12 0 14 2 19 5 13 2 -7 2 -19 0 -25z m3 -27 c0 -5 -38 -11
-85 -13 -47 -2 -85 0 -85 4 0 4 37 9 83 11 45 1 83 4 85 5 1 1 2 -2 2 -7z
m-503 -343 c-1 -62 -3 -12 -3 112 0 124 2 174 3 113 2 -62 2 -164 0 -225z
m340 25 c-1 -54 -3 -10 -3 97 0 107 2 151 3 98 2 -54 2 -142 0 -195z m-8531
165 c16 -17 23 -28 17 -24 -7 4 -13 2 -13 -3 0 -6 -7 -11 -15 -11 -8 0 -15 4
-15 8 0 5 -7 9 -15 9 -10 0 -12 -4 -6 -10 19 -19 -16 -37 -73 -37 l-56 0 0
-170 0 -170 55 0 55 0 0 139 0 139 25 4 c13 3 27 2 31 -1 3 -3 11 -6 17 -6 8
0 13 -30 15 -92 2 -69 0 -93 -10 -93 -9 0 -9 -3 0 -12 7 -7 12 -37 12 -69 0
-46 -4 -61 -25 -83 -24 -26 -26 -27 -147 -24 l-123 3 -2 180 c-1 154 1 182 15
193 9 6 11 12 4 12 -6 0 -9 7 -5 17 4 11 3 14 -5 9 -15 -9 -16 28 -1 56 8 15
8 19 0 14 -12 -8 -15 13 -5 38 5 13 26 16 123 16 l117 0 30 -32z m-1355 10 c0
-10 2 -10 6 0 9 24 33 -8 33 -44 l0 -34 -50 0 -50 0 0 -151 c0 -97 -4 -148
-10 -144 -5 3 -17 2 -26 -3 -15 -8 -14 -12 10 -27 24 -16 27 -23 24 -69 l-3
-51 -45 0 -45 0 -3 132 -3 131 23 -5 23 -5 -22 20 c-20 18 -23 30 -23 96 0 76
0 76 -27 78 -16 0 -38 0 -50 -1 -19 -1 -21 3 -20 44 l2 45 128 0 c94 0 127 -3
128 -12z m99 8 c0 -3 -7 -11 -15 -19 -12 -13 -12 -15 5 -20 18 -5 24 3 21 25
0 4 8 6 19 5 10 -1 16 -5 14 -9 -6 -10 20 -38 36 -38 7 0 9 9 6 23 -3 12 -3
17 0 11 3 -7 15 -10 27 -7 18 4 19 3 7 -6 -10 -7 -11 -11 -2 -11 6 0 12 -11
12 -25 0 -22 -4 -25 -39 -25 -47 0 -64 -18 -55 -57 4 -15 8 -44 8 -63 1 -32 4
-35 34 -38 37 -4 62 12 62 38 0 10 7 16 18 15 24 -1 42 -14 42 -28 0 -7 -4 -6
-10 3 -5 8 -12 11 -16 7 -13 -12 10 -24 54 -26 10 -1 10 -6 2 -21 -6 -11 -14
-18 -19 -16 -4 3 -7 -8 -7 -24 0 -19 4 -26 13 -23 8 3 13 -3 13 -18 1 -13 2
-59 3 -102 l2 -77 -32 -6 c-57 -11 -63 -3 -63 83 0 88 -11 104 -68 95 l-32 -4
0 -89 0 -89 -45 0 -46 0 1 264 c1 145 4 267 7 270 7 7 43 8 43 2z m154 -4 c2
-4 -4 -8 -15 -8 -10 0 -19 4 -19 8 0 4 6 8 14 8 8 0 17 -4 20 -8z m414 -44 l3
-48 -90 0 -91 0 0 -60 0 -60 38 -1 c20 -1 49 0 65 1 26 1 27 0 27 -49 l0 -51
-65 0 -65 0 0 -60 0 -59 88 -3 87 -3 0 -45 0 -45 -109 -3 c-101 -2 -111 -1
-132 19 -24 22 -24 24 -24 250 l0 228 27 21 c24 18 37 20 132 18 l106 -3 3
-47z m152 42 c-9 -6 -10 -10 -3 -10 6 0 14 4 17 9 3 4 37 9 75 10 57 1 70 -1
76 -16 5 -10 7 -21 7 -25 -1 -5 5 -8 13 -8 13 0 15 -27 15 -187 -1 -157 -3
-184 -13 -165 -7 12 -16 20 -20 16 -3 -4 -2 -14 3 -24 5 -10 6 -20 2 -24 -3
-4 1 -4 11 0 15 5 17 -1 17 -45 0 -38 -4 -53 -16 -58 -9 -3 -19 -2 -23 4 -3 5
-14 12 -23 16 -12 4 -15 2 -11 -9 3 -7 0 -14 -6 -14 -8 0 -11 66 -11 220 l0
220 -53 0 -54 0 5 -30 c2 -16 0 -30 -5 -30 -5 0 -6 -28 -2 -67 5 -38 8 -121 8
-185 0 -115 -1 -118 -24 -124 -13 -3 -34 -4 -46 -2 l-24 3 -2 242 c-1 133 1
251 4 262 5 19 16 23 73 29 19 1 22 0 10 -8z m772 -4 c4 -6 3 -15 -3 -22 -6
-8 -3 -11 13 -9 36 4 38 5 37 13 -4 22 4 29 32 30 28 1 30 0 13 -13 -14 -10
-21 -10 -26 -2 -7 12 -9 10 -12 -13 0 -6 -7 -15 -15 -19 -9 -6 0 -8 25 -7 33
2 40 -2 41 -17 3 -28 -23 -31 -56 -8 -35 25 -41 26 -41 5 0 -8 4 -13 9 -9 5 3
12 1 15 -3 3 -5 -17 -9 -44 -9 -28 -1 -53 4 -57 10 -4 6 2 8 16 4 26 -7 51 1
51 15 0 6 -7 8 -15 5 -8 -4 -17 -2 -20 2 -3 5 -18 8 -35 7 -35 -2 -37 1 -12
21 15 13 15 13 -4 4 -12 -6 -24 -8 -27 -5 -3 3 -8 -4 -12 -17 -6 -17 -9 -19
-16 -8 -5 9 -1 21 14 36 17 17 33 21 72 20 28 -1 53 -6 57 -11z m38 10 c0 -3
-4 -8 -10 -11 -5 -3 -10 -1 -10 4 0 6 5 11 10 11 6 0 10 -2 10 -4z m-1350 -20
c0 -2 -8 -10 -17 -17 -16 -13 -17 -12 -4 4 13 16 21 21 21 13z m1420 -6 c0 -5
-5 -10 -11 -10 -5 0 -7 5 -4 10 3 6 8 10 11 10 2 0 4 -4 4 -10z m-191 -57 c2
-2 -3 -3 -11 -3 -9 0 -19 7 -22 16 -6 15 -4 15 11 3 10 -7 20 -15 22 -16z
m901 -18 l0 -44 -215 -3 c-118 -2 -215 0 -215 5 0 4 95 7 210 7 l210 0 0 35 0
35 -219 0 c-206 0 -220 -1 -247 -21 l-29 -21 28 26 28 26 225 0 224 0 0 -45z
m546 11 l34 -34 0 -117 c0 -75 -4 -114 -10 -110 -5 3 -11 -2 -12 -12 0 -10 -2
-24 -2 -31 -1 -8 -12 -22 -25 -33 -21 -17 -41 -19 -210 -19 -153 0 -191 3
-209 16 -41 28 -52 66 -52 173 l0 99 37 41 36 41 189 0 c187 0 189 0 213 -25
14 -13 25 -20 25 -15 0 5 -12 18 -26 29 -25 20 -40 21 -214 21 -174 0 -189 -1
-216 -21 l-29 -21 28 26 28 26 191 0 190 0 34 -34z m593 3 c31 -30 31 -32 31
-134 0 -57 3 -110 6 -119 4 -11 1 -16 -10 -16 -9 0 -16 -6 -16 -14 0 -8 -12
-24 -26 -35 -25 -20 -39 -21 -235 -21 l-209 0 0 125 0 125 25 0 25 0 0 -100 0
-100 173 0 c121 0 177 4 185 12 16 16 16 210 0 226 -9 9 -69 12 -210 12 l-198
0 0 25 0 25 209 0 c267 0 254 7 262 -152 l5 -113 2 108 c2 108 2 109 -27 138
l-29 29 -216 0 -215 0 -4 -22 c-4 -20 -4 -19 -6 5 l-1 27 224 0 224 0 31 -31z
m194 -122 c1 -88 -2 -148 -8 -150 -6 -2 -5 -17 2 -40 6 -20 8 -38 5 -41 -3 -3
-25 -6 -49 -6 l-43 0 0 150 c0 87 4 150 9 150 6 0 11 15 13 33 3 28 7 32 31
32 15 -1 27 3 27 7 0 4 -15 8 -34 8 -28 0 -35 -4 -39 -22 -4 -19 -4 -19 -6 5
-1 27 0 28 44 25 l45 -3 3 -148z m324 25 c95 -67 174 -122 177 -122 3 0 6 56
6 125 l0 125 45 0 45 0 0 -151 c0 -91 -4 -148 -9 -144 -6 3 -11 -12 -13 -32
-2 -26 -8 -39 -20 -41 -10 -2 -99 54 -202 127 -102 72 -189 131 -193 131 -4 0
0 -5 10 -11 13 -7 15 -14 8 -23 -5 -6 -10 -25 -9 -41 0 -17 0 -69 -1 -117 l-1
-88 -45 0 -45 0 0 150 c0 93 4 150 10 150 6 0 10 11 10 24 0 13 7 29 15 36 17
14 8 20 260 -159 77 -54 142 -97 145 -95 2 3 0 8 -6 12 -6 4 -92 64 -191 135
-100 70 -188 127 -197 127 -8 0 -20 -9 -26 -21 -7 -11 -14 -18 -17 -15 -12 11
31 47 52 43 11 -2 97 -58 192 -125z m861 81 l-3 -48 -213 0 -212 -1 210 3 210
3 0 40 0 40 -218 0 c-176 0 -222 -3 -238 -15 -10 -8 -14 -15 -7 -15 6 0 15 5
18 10 4 6 88 10 221 10 l214 0 0 -25 0 -25 -207 -2 -208 -3 -3 -108 c-2 -73 1
-107 8 -102 5 3 10 1 10 -4 0 -7 56 -11 165 -11 140 0 165 2 165 15 0 12 -17
15 -95 15 l-95 0 0 45 0 45 140 0 140 0 0 -60 c0 -33 -4 -60 -10 -60 -5 0 -10
-16 -10 -35 l0 -35 -214 0 c-133 0 -217 4 -221 10 -3 6 -12 10 -18 10 -7 0 -3
-7 7 -15 16 -12 62 -15 237 -15 l218 0 4 23 c4 19 4 18 6 -5 l1 -28 -223 0
c-185 0 -226 3 -245 16 -41 28 -52 66 -52 174 0 87 3 103 20 120 22 22 27 45
8 35 -7 -4 0 5 15 19 l28 26 225 0 225 0 -3 -47z m-4665 20 c-7 -3 -9 -11 -6
-19 3 -8 0 -14 -6 -14 -6 0 -10 11 -9 24 2 17 7 22 17 18 9 -4 11 -7 4 -9z
m67 -10 c0 -19 -13 -9 -16 12 -1 8 2 13 7 9 5 -3 9 -12 9 -21z m9130 -308 l0
-335 -545 0 -545 0 0 335 0 335 545 0 545 0 0 -335z m-7070 300 l0 -25 -207
-2 c-201 -3 -208 -4 -206 -23 3 -34 4 -179 1 -200 -3 -19 3 -20 205 -23 l207
-2 0 -25 0 -25 -214 0 -214 0 -26 31 c-14 17 -26 25 -26 19 0 -6 11 -22 25
-35 l24 -25 220 0 220 0 4 23 c4 19 4 18 6 -5 l1 -28 -223 0 c-185 0 -226 3
-245 16 -41 28 -52 66 -52 173 l0 99 37 41 36 41 214 0 213 0 0 -25z m2951
-27 l2 -23 4 23 c4 20 10 22 59 22 l54 0 0 -54 c0 -30 -4 -58 -10 -61 -5 -3
-22 1 -38 9 -20 11 -32 12 -40 4 -5 -5 -32 -12 -59 -14 -26 -2 -51 -3 -54 -4
-4 0 -7 -81 -7 -180 l-1 -180 27 0 c15 0 37 -3 50 -6 22 -6 22 -5 22 85 0 84
-1 91 -20 91 -11 0 -20 3 -21 8 -7 58 -6 103 2 107 5 4 27 7 50 7 32 0 44 -5
57 -23 33 -47 42 -72 41 -122 0 -29 1 -90 1 -135 2 -74 -1 -87 -21 -108 -20
-21 -31 -24 -96 -24 -47 0 -72 4 -68 10 3 6 1 10 -4 10 -6 0 -11 -4 -11 -10 0
-22 -64 -10 -92 17 l-28 27 0 203 c0 155 3 203 13 204 10 0 10 2 0 6 -28 11
-7 93 23 93 8 0 12 -4 9 -10 -4 -6 5 -7 23 -4 16 3 44 -1 65 -9 28 -12 35 -13
31 -2 -8 19 -60 38 -89 33 -14 -3 -25 -1 -25 4 0 5 -6 6 -12 2 -9 -5 -9 -2 1
9 10 13 30 17 87 17 70 0 74 -1 75 -22z m329 8 c0 -6 4 -6 9 2 9 15 101 14
101 -2 0 -5 3 -7 6 -3 3 3 16 -4 29 -15 22 -19 24 -28 23 -110 -1 -69 -4 -88
-14 -84 -8 3 -12 -2 -11 -15 1 -10 7 -19 14 -19 22 0 15 -48 -8 -61 l-21 -11
21 -22 c19 -20 21 -34 21 -134 l0 -112 -55 0 -55 0 0 88 c0 103 -12 123 -67
115 l-32 -5 -3 -97 -3 -96 -52 -3 c-32 -2 -53 1 -53 7 0 6 0 135 0 286 0 151
0 282 0 290 0 12 15 15 75 13 47 -1 75 -5 75 -12z m473 5 c56 -21 85 -88 57
-131 -5 -9 -5 -19 1 -26 5 -7 8 -97 7 -220 l-3 -209 -48 0 c-51 0 -70 12 -67
42 1 10 2 48 1 86 l-1 67 -50 0 -50 0 0 -48 c0 -60 -7 -68 -37 -40 -13 12 -23
17 -23 11 0 -6 7 -13 15 -17 8 -3 15 -12 15 -20 0 -10 6 -13 16 -9 13 5 15 -1
12 -33 l-3 -39 -52 -3 -52 -3 -1 280 0 280 26 20 c23 18 41 21 120 21 51 0
104 -4 117 -9z m431 -22 c26 -31 26 -32 23 -169 -5 -183 -18 -200 -146 -200
l-71 0 0 -100 0 -100 -55 0 -55 0 0 300 0 300 139 0 139 0 26 -31z m176 -94
l5 -120 44 3 c25 1 46 3 47 5 1 1 4 35 5 75 3 52 7 72 17 72 7 0 10 4 7 10 -3
5 3 15 15 22 11 7 20 20 20 29 0 9 9 19 21 22 16 4 18 3 8 -9 -9 -11 -8 -14 5
-14 13 0 16 -11 16 -61 0 -53 -2 -60 -17 -55 -16 6 -16 6 0 -12 15 -16 17 -45
17 -231 l0 -212 -52 3 -53 3 -3 118 -3 117 -49 0 -49 0 -3 -117 -3 -118 -49
-3 c-31 -2 -52 1 -57 9 -8 13 -10 568 -2 582 3 4 28 7 56 5 l52 -3 5 -120z
m143 119 c8 -8 -24 -64 -35 -64 -10 0 -11 54 -1 63 8 9 28 9 36 1z m211 -2 c9
-16 -6 -52 -23 -52 -10 -1 -6 -6 12 -16 l27 -15 0 -147 c-1 -145 -1 -148 -34
-215 -18 -37 -28 -66 -23 -64 6 2 17 22 26 45 25 68 37 52 31 -40 -5 -82 -5
-83 -32 -86 -28 -3 -39 12 -15 21 7 4 3 8 -10 12 -13 4 -23 12 -23 17 0 5 -6
8 -13 6 -7 -2 -14 0 -15 5 -1 4 -2 126 -2 272 l0 265 44 0 c25 0 47 -4 50 -8z
m356 -2 c0 -5 -6 -8 -12 -6 -7 1 -10 1 -5 -1 14 -9 7 -23 -12 -23 -11 0 -22
-4 -25 -9 -4 -5 4 -7 16 -5 13 2 17 2 11 -2 -19 -9 -16 -20 6 -20 10 0 17 5
15 11 -3 6 2 19 10 30 15 19 15 19 16 -11 0 -27 -5 -34 -32 -44 -18 -7 -42
-16 -53 -21 -11 -6 -42 -8 -68 -6 l-47 3 0 -183 0 -183 38 -2 c20 -1 60 -1 88
1 65 3 78 -11 69 -73 l-7 -46 -126 0 c-123 0 -127 1 -154 27 l-28 27 0 245 0
245 27 28 c27 28 28 28 150 27 68 0 123 -5 123 -9z m360 -49 c0 -56 -2 -60
-22 -59 -13 1 -34 11 -48 22 -14 11 -19 14 -12 6 17 -20 15 -26 -10 -27 -92
-2 -88 0 -88 -42 0 -22 -3 -41 -7 -44 -5 -2 -2 -2 5 0 8 2 52 -31 98 -73 l84
-76 0 -102 c0 -95 -2 -104 -23 -125 -22 -20 -32 -21 -148 -19 l-124 3 -3 52
c-3 50 -2 51 27 58 17 3 54 6 83 5 92 -3 88 -5 83 42 -3 23 -11 46 -20 50 -21
12 -19 31 5 46 26 16 25 27 -1 29 -17 2 -18 -1 -9 -13 10 -11 9 -14 -3 -14 -9
0 -17 6 -20 13 -2 6 -2 2 0 -10 2 -13 1 -23 -3 -23 -11 0 -134 115 -139 130
-4 12 -3 12 7 -1 13 -16 38 -15 38 2 0 6 -4 8 -9 5 -5 -3 -11 1 -15 9 -3 8 -1
15 5 15 6 0 7 5 4 11 -5 6 -12 4 -21 -8 -12 -16 -13 -14 -14 25 0 26 4 42 12
42 9 0 9 3 0 12 -20 20 -13 60 15 90 26 28 28 28 150 28 l123 0 0 -59z m-6290
10 c0 -9 -6 -23 -12 -31 -7 -8 -9 -11 -4 -7 5 3 15 -1 23 -11 12 -16 13 -15 6
3 -6 18 -5 19 13 5 45 -35 68 -60 61 -66 -4 -4 -16 1 -27 11 -17 15 -22 16
-37 4 -15 -12 -16 -12 -9 5 7 19 6 19 -13 2 -11 -10 -28 -16 -38 -14 -23 4
-31 38 -9 38 9 0 16 7 16 15 0 12 -4 14 -20 5 -18 -10 -18 -8 -8 22 16 48 28
61 44 47 8 -6 14 -19 14 -28z m-1213 9 c7 -8 13 -25 13 -36 0 -16 -5 -21 -22
-19 -13 1 -25 4 -28 5 -3 1 -12 3 -20 4 -16 1 -25 29 -16 51 7 18 57 15 73 -5z
m3178 -105 l0 -110 -172 -3 -173 -2 0 100 0 100 -35 0 -35 0 0 -135 0 -135
214 0 c202 0 215 1 240 21 15 12 29 19 32 16 3 -2 -7 -14 -22 -26 -25 -20 -38
-21 -250 -21 l-224 0 0 145 0 145 46 0 c28 0 43 4 39 10 -4 7 50 10 167 8
l173 -3 0 -110z m622 -72 c88 -62 168 -113 177 -113 8 0 22 10 30 22 18 25 21
17 6 -13 -6 -10 -21 -19 -33 -19 -18 0 -329 208 -362 243 -19 20 20 -6 182
-120z m-2527 55 c0 -6 -3 -8 -7 -5 -3 4 -15 -1 -26 -10 -15 -13 -18 -14 -12
-3 22 37 45 46 45 18z m91 -35 c10 -12 16 -44 18 -104 2 -83 1 -87 -25 -108
-23 -18 -40 -21 -130 -21 -63 0 -104 4 -106 11 -2 5 -2 28 0 50 l4 40 87 -3
87 -3 -2 62 c-2 53 0 62 17 66 10 3 19 11 19 19 0 10 -3 9 -10 -2 -7 -12 -12
-12 -22 -2 -10 10 -10 14 2 22 16 10 38 0 61 -27z m3783 -9 c4 -9 4 -19 1 -22
-7 -8 -35 19 -29 29 8 14 21 11 28 -7z m4447 -12 c-7 -2 -18 1 -23 6 -8 8 -4
9 13 5 13 -4 18 -8 10 -11z m97 1 c-16 -2 -40 -2 -55 0 -16 2 -3 4 27 4 30 0
43 -2 28 -4z m39 -15 c-3 -8 -6 -5 -6 6 -1 11 2 17 5 13 3 -3 4 -12 1 -19z
m-7727 -20 c0 -5 -76 -8 -170 -8 -93 0 -170 3 -170 8 0 4 77 7 170 7 94 0 170
-3 170 -7z m7727 -50 c-3 -8 -6 -5 -6 6 -1 11 2 17 5 13 3 -3 4 -12 1 -19z
m-34 -169 c8 -13 -5 -38 -59 -115 -38 -54 -72 -103 -77 -109 -9 -11 -90 -126
-138 -194 -17 -25 -42 -60 -56 -78 l-25 -33 38 0 c22 -1 102 -2 179 -3 l140
-2 0 -30 0 -30 -208 -1 c-168 -1 -211 2 -223 13 -17 18 -10 31 81 158 36 50
88 124 116 165 29 41 62 87 73 102 49 63 70 95 66 103 -3 4 -81 8 -175 9
l-170 1 -3 33 -3 33 217 -3 c186 -3 218 -5 227 -19z m-4346 -295 c3 -9 1 -25
-6 -36 -9 -15 -9 -23 -1 -33 19 -23 -17 -33 -113 -31 l-87 1 0 -52 c0 -58 7
-64 73 -58 43 3 50 -15 15 -39 -17 -12 -24 -13 -30 -3 -6 9 -8 9 -8 -1 0 -24
32 -26 49 -3 9 12 20 19 24 15 4 -5 18 -9 30 -11 l22 -4 -23 17 c-29 20 -16
38 20 29 17 -4 26 -14 27 -28 7 -89 9 -82 -29 -82 -24 0 -34 4 -32 13 1 8 -2
11 -8 7 -6 -3 -8 -10 -5 -15 3 -5 -102 -9 -244 -10 l-249 0 -27 31 c-26 31
-26 35 -23 143 3 100 6 114 28 139 l24 27 283 0 c253 0 284 -2 290 -16z m1640
-56 c-2 -13 -4 -3 -4 22 0 25 2 35 4 23 2 -13 2 -33 0 -45z m130 -100 c-2 -29
-3 -6 -3 52 0 58 1 81 3 53 2 -29 2 -77 0 -105z m1590 70 c-2 -18 -4 -6 -4 27
0 33 2 48 4 33 2 -15 2 -42 0 -60z m-2721 -63 c1 -135 -1 -155 -18 -155 -6 0
-61 36 -124 80 -62 44 -129 91 -148 104 -19 13 -33 25 -31 28 2 2 -5 4 -15 5
-19 2 -20 -5 -20 -108 0 -102 -1 -109 -20 -109 -19 0 -20 7 -20 140 0 121 2
140 16 140 15 0 101 -56 237 -156 34 -24 67 -42 74 -40 7 3 12 0 10 -6 -1 -6
4 -13 11 -15 9 -4 12 23 12 112 0 106 2 116 18 113 15 -3 17 -18 18 -133z
m504 115 c0 -19 -8 -20 -177 -22 l-178 -3 -3 -52 -3 -53 178 0 c172 0 179 -1
180 -20 2 -19 -4 -20 -178 -20 l-180 0 3 -27 3 -28 178 -3 c169 -2 177 -3 177
-22 0 -19 -7 -20 -175 -20 -173 0 -176 0 -200 25 -23 22 -25 32 -25 120 0 88
2 98 25 120 24 25 27 25 200 25 168 0 175 -1 175 -20z m480 0 c0 -17 -8 -20
-91 -22 l-91 -3 1 -123 c2 -114 1 -123 -16 -120 -16 3 -18 17 -21 126 l-3 122
-84 0 c-78 0 -85 2 -85 20 0 19 7 20 195 20 187 0 195 -1 195 -20z m130 -90
c0 -60 2 -110 3 -110 2 0 50 46 105 103 l101 102 106 -105 105 -105 0 113 c0
105 1 112 20 112 19 0 20 -7 20 -139 0 -92 -4 -142 -11 -147 -6 -4 -60 42
-125 107 l-114 114 -114 -114 c-65 -65 -119 -111 -125 -107 -7 5 -11 55 -11
147 0 132 1 139 20 139 19 0 20 -7 20 -110z m931 91 c23 -18 24 -26 24 -130 0
-105 -1 -112 -25 -133 -24 -22 -33 -23 -170 -23 -145 0 -145 0 -172 27 -27 27
-28 32 -28 128 0 94 2 103 25 125 23 24 28 25 173 25 133 0 153 -2 173 -19z
m444 -6 c20 -19 25 -34 25 -73 0 -58 -20 -82 -78 -92 -37 -6 -36 -7 51 -34 69
-22 87 -32 87 -47 0 -11 -1 -19 -3 -19 -2 0 -68 23 -146 50 -79 28 -158 50
-177 50 l-34 0 0 -50 c0 -43 -3 -50 -20 -50 -19 0 -20 7 -20 145 l0 145 145 0
c142 0 147 -1 170 -25z m215 -45 c0 -33 2 -60 5 -60 2 0 58 27 124 59 107 53
145 62 126 31 -3 -5 -49 -33 -101 -61 -52 -28 -94 -52 -92 -54 2 -1 68 -24
147 -51 130 -44 165 -63 147 -81 -3 -3 -79 20 -169 51 -90 31 -169 56 -175 56
-8 0 -12 -21 -12 -60 0 -53 -2 -60 -20 -60 -19 0 -20 7 -20 145 0 138 1 145
20 145 18 0 20 -7 20 -60z m-2278 13 c-51 -2 -132 -2 -180 0 -48 1 -6 3 93 3
99 0 138 -2 87 -3z m2105 -55 c-2 -13 -4 -3 -4 22 0 25 2 35 4 23 2 -13 2 -33
0 -45z m-2189 -21 l177 -2 -182 -3 -183 -2 2 38 c1 36 1 36 5 5 l4 -33 177 -3z
m-681 -124 c-2 -32 -3 -6 -3 57 0 63 1 89 3 58 2 -32 2 -84 0 -115z m-1344 80
c-73 -2 -193 -2 -265 0 -73 1 -14 3 132 3 146 0 205 -2 133 -3z m-1903 -165
c-1 -84 -1 -157 0 -163 0 -5 67 57 148 138 82 81 152 147 157 147 5 0 75 -66
157 -147 l148 -147 0 162 0 162 25 0 25 0 0 -205 c0 -179 -2 -206 -16 -212
-11 -4 -63 41 -178 156 l-161 161 -160 -160 c-88 -88 -167 -160 -176 -160 -9
0 -20 7 -23 16 -3 9 -6 103 -6 210 l0 194 30 0 31 0 -1 -152z m1380 122 l0
-30 -252 -2 -253 -3 -3 -77 -3 -78 256 0 255 0 0 -30 0 -30 -256 0 -255 0 3
-42 3 -43 253 -3 252 -2 0 -31 0 -30 -255 3 -255 3 -27 28 -28 27 0 154 c0
140 2 156 20 176 11 12 29 26 40 31 11 4 129 8 263 8 l242 1 0 -30z m677 10
c40 -24 46 -47 39 -142 -7 -101 -7 -98 0 -140 9 -55 -2 -86 -39 -108 -30 -18
-51 -20 -279 -20 l-248 0 0 215 0 215 248 0 c228 0 249 -2 279 -20z m4250 -17
c-3 -10 -5 -4 -5 12 0 17 2 24 5 18 2 -7 2 -21 0 -30z m-2322 20 c-121 -7
-243 -7 -238 0 2 4 68 6 146 5 78 -1 120 -3 92 -5z m103 0 c-10 -2 -26 -2 -35
0 -10 3 -2 5 17 5 19 0 27 -2 18 -5z m1755 0 c-19 -4 -23 -12 -26 -56 l-3 -52
-2 58 c-2 56 -2 57 26 56 22 -1 23 -2 5 -6z m1484 -25 c-3 -8 -6 -5 -6 6 -1
11 2 17 5 13 3 -3 4 -12 1 -19z m-3364 -5 c-40 -2 -106 -2 -145 0 -40 1 -8 3
72 3 80 0 112 -2 73 -3z m2344 -60 c-3 -10 -5 -2 -5 17 0 19 2 27 5 18 2 -10
2 -26 0 -35z m1020 10 c-3 -10 -5 -4 -5 12 0 17 2 24 5 18 2 -7 2 -21 0 -30z
m-5807 7 c0 -5 -5 -10 -11 -10 -5 0 -7 5 -4 10 3 6 8 10 11 10 2 0 4 -4 4 -10z
m-1590 -10 c0 -5 -5 -10 -11 -10 -5 0 -7 5 -4 10 3 6 8 10 11 10 2 0 4 -4 4
-10z m2512 -182 l3 -103 65 0 65 0 3 78 3 78 57 -3 57 -3 1 -50 c1 -114 -4
-105 69 -105 l64 0 3 103 3 102 55 0 55 0 3 -131 3 -131 -35 -31 -34 -30 -249
-1 -248 0 -32 31 -33 32 0 126 c0 70 3 130 7 133 3 4 30 7 59 7 l53 0 3 -102z
m-1159 -15 c-73 -2 -193 -2 -265 0 -73 1 -14 3 132 3 146 0 205 -2 133 -3z
m844 -30 c-3 -10 -5 -4 -5 12 0 17 2 24 5 18 2 -7 2 -21 0 -30z m-717 -93 l0
-30 -262 2 -263 3 258 2 257 3 0 25 c0 14 2 25 5 25 3 0 5 -13 5 -30z m-763
-26 c-3 -3 -12 -4 -19 -1 -8 3 -5 6 6 6 11 1 17 -2 13 -5z m-2999 -124 c58
-36 72 -83 72 -254 0 -119 -3 -147 -13 -143 -9 3 -18 -8 -26 -30 -7 -19 -26
-43 -44 -54 -18 -10 -27 -19 -20 -19 6 0 26 12 44 27 18 15 30 21 27 13 -2 -8
-19 -25 -38 -37 -32 -23 -38 -23 -341 -23 l-309 0 0 200 0 200 60 0 c41 0 60
4 60 13 0 9 51 11 227 9 126 -1 234 -5 241 -7 10 -4 12 -39 10 -152 l-3 -148
-242 -3 -243 -2 0 140 0 140 -50 0 -50 0 0 -190 0 -190 293 2 292 3 -287 2
-288 3 0 180 0 180 40 0 40 0 0 -138 0 -139 241 -6 c132 -3 247 -3 255 0 20 8
26 57 22 197 -2 99 -6 129 -18 136 -9 6 -137 10 -297 10 l-283 0 0 35 0 35
290 0 c390 0 372 11 381 -225 l6 -150 -1 161 c-1 242 12 234 -395 234 l-290 0
-4 -32 c-4 -32 -4 -32 -5 5 l-2 37 308 0 c290 0 309 -1 340 -20z m902 -45 l0
-65 -292 -2 -293 -3 -3 -52 -3 -53 295 0 296 0 0 -65 0 -65 -296 0 c-276 0
-295 -1 -292 -17 3 -17 22 -18 236 -18 147 0 232 -4 233 -10 1 -5 1 -13 0 -17
0 -5 21 -8 49 -8 l50 0 0 -35 0 -35 -290 0 c-389 0 -372 -10 -381 220 l-5 145
-2 -145 c-2 -130 0 -148 18 -178 36 -59 57 -62 380 -62 l290 0 1 33 1 32 7
-30 c4 -16 6 -33 4 -37 -2 -5 -142 -8 -310 -8 -412 0 -399 -8 -405 253 -2 120
0 157 9 157 7 0 19 15 27 34 26 63 41 66 366 66 l290 0 0 -35 0 -35 -283 0
c-207 0 -286 -3 -295 -12 -7 -7 -12 -42 -12 -85 l0 -73 295 0 295 0 0 -35 0
-35 -295 0 -295 0 0 -38 c0 -21 5 -43 12 -50 9 -9 73 -11 238 -10 l225 2 -230
6 -230 5 -3 33 -3 32 295 0 296 0 0 55 0 55 -295 0 -296 0 3 68 3 67 293 3
292 2 0 50 0 50 -277 0 c-298 0 -340 -5 -379 -47 -13 -14 -24 -21 -24 -15 0 5
16 24 35 41 l36 31 309 0 310 0 0 -65z m832 14 c1 -28 1 -55 -2 -60 -4 -5
-136 -10 -295 -11 l-290 -3 0 -55 0 -55 250 -5 c217 -4 255 -7 278 -23 31 -20
52 -57 61 -111 6 -31 5 -38 -7 -33 -9 3 -18 -7 -26 -30 -7 -19 -26 -43 -44
-54 -30 -18 -53 -19 -324 -19 l-293 0 0 35 0 35 283 0 c302 0 307 1 307 50 0
49 -8 50 -262 50 -158 0 -246 4 -262 12 -39 17 -59 56 -66 128 l-7 65 -2 -58
c-1 -70 17 -116 55 -142 26 -18 52 -20 279 -25 l250 -5 0 -30 0 -30 -292 -3
-293 -2 0 -50 0 -50 278 0 c294 0 338 5 378 45 26 26 30 24 14 -6 -25 -46 -50
-49 -375 -49 l-305 0 0 65 0 65 293 2 c252 3 292 5 292 18 0 13 -37 16 -250
20 -230 5 -252 7 -277 25 -40 30 -57 71 -61 153 -4 63 -2 72 13 72 19 0 35 41
20 50 -11 7 35 54 60 63 8 3 151 6 317 6 l301 1 4 -51z m240 -144 c0 -107 1
-199 2 -205 1 -5 -3 -9 -9 -7 -5 1 -12 -23 -15 -53 l-5 -55 -35 0 -35 0 -5
185 -6 185 -2 -192 -2 -193 49 0 c49 0 50 1 54 33 4 31 4 31 5 -5 l2 -38 -60
0 -60 0 -1 195 c-1 107 -2 200 -3 205 -1 6 4 9 9 8 6 -2 12 22 15 52 l5 55 35
0 35 0 5 -185 6 -185 2 193 2 192 -49 0 c-49 0 -50 -1 -54 -32 -4 -32 -4 -32
-5 5 l-2 37 60 0 60 0 2 -195z m839 185 c0 -5 1 -28 1 -50 0 -22 -1 -47 -1
-55 -1 -13 -43 -15 -293 -17 l-293 -3 0 -135 0 -135 233 -3 c227 -2 232 -2
232 18 0 19 -6 20 -130 20 l-130 0 0 65 0 65 190 0 c105 0 190 -3 190 -7 5
-155 5 -163 -7 -159 -10 4 -13 -9 -13 -49 l0 -55 -290 0 c-389 0 -372 -10
-381 220 l-5 145 -2 -145 c-2 -130 0 -148 18 -178 36 -59 57 -62 379 -62 l290
0 4 33 c4 31 4 31 5 -5 l2 -38 -306 0 c-413 0 -400 -8 -406 253 -2 122 0 157
10 157 17 0 36 51 22 60 -12 8 4 30 40 54 21 14 63 16 332 16 198 0 308 -4
309 -10z m415 -136 c115 -81 230 -162 257 -181 l47 -35 0 181 0 181 60 0 60 0
2 -195 c0 -107 1 -201 2 -207 1 -7 -5 -12 -12 -10 -8 1 -12 -11 -12 -37 0 -40
-23 -76 -44 -68 -6 3 -130 89 -276 191 l-265 187 -5 -188 -5 -188 -35 0 -35 0
-5 185 -6 185 -2 -192 -2 -193 50 0 50 0 2 184 3 183 260 -183 c143 -101 267
-184 275 -184 23 0 38 13 49 40 8 20 10 21 10 6 1 -27 -28 -56 -56 -56 -16 0
-116 64 -273 175 -137 96 -251 175 -254 175 -3 0 -6 -79 -6 -175 l0 -175 -60
0 -60 0 -1 195 c-1 107 -2 201 -3 208 -1 6 5 11 12 10 8 -2 12 10 12 35 0 43
29 80 52 66 7 -5 129 -91 271 -191 142 -101 260 -183 262 -183 3 0 6 84 7 188
l3 187 35 0 35 0 5 -185 6 -185 2 193 2 192 -50 0 -50 0 -2 -185 -3 -184 -260
184 c-143 101 -267 184 -276 185 -17 0 -43 -25 -52 -50 -4 -11 -6 -10 -6 4 -1
27 27 56 54 56 13 0 114 -64 231 -146z m1264 96 c0 -27 0 -53 0 -57 0 -5 -132
-10 -292 -13 l-293 -5 0 -55 0 -55 250 -5 c217 -4 255 -7 278 -23 31 -20 52
-57 61 -111 6 -31 5 -38 -7 -33 -9 3 -18 -7 -26 -30 -7 -19 -26 -43 -44 -54
-30 -18 -53 -19 -324 -19 l-293 0 0 35 0 35 283 0 c302 0 307 1 307 50 0 49
-8 50 -262 50 -158 0 -246 4 -262 12 -39 17 -59 56 -66 128 l-7 65 -2 -58 c-1
-70 17 -116 55 -142 26 -18 52 -20 279 -25 l250 -5 0 -30 0 -30 -292 -3 -293
-2 0 -50 0 -50 273 0 c149 0 289 3 310 6 21 4 51 19 67 34 30 28 41 27 18 -2
-39 -47 -44 -48 -370 -48 l-308 0 0 65 0 65 293 2 c252 3 292 5 292 18 0 13
-37 16 -250 20 -230 5 -252 7 -277 25 -40 30 -57 71 -61 153 -4 63 -2 72 13
72 20 0 35 41 19 51 -12 7 24 46 56 59 11 5 156 9 323 9 l302 1 0 -50z m342
32 c4 10 49 14 195 16 l191 2 31 -26 32 -26 -3 -152 -3 -151 -285 -3 c-157 -1
-295 0 -307 3 -23 5 -23 8 -23 154 l0 150 27 21 c15 11 32 19 39 16 7 -3 25
-1 41 3 19 6 33 4 44 -6 14 -11 18 -12 21 -1z m3366 -154 c8 -8 12 -47 12
-108 0 -61 -4 -100 -12 -108 -7 -7 -36 -12 -65 -12 l-53 0 0 -65 0 -65 -35 0
-35 0 0 185 0 185 88 0 c55 0 92 -4 100 -12z m214 -10 c23 -27 24 -61 1 -56
-9 2 -17 11 -19 21 -1 11 -5 22 -8 25 -4 3 -4 -5 -2 -19 2 -13 5 -27 5 -30 1
-4 10 -9 21 -12 20 -5 29 -47 10 -47 -6 0 -5 -8 2 -20 11 -17 10 -22 -2 -30
-12 -7 -12 -12 -2 -22 7 -7 12 -40 12 -85 l0 -73 -35 0 -34 0 -3 63 c-3 59 -4
62 -30 65 l-28 3 0 -65 0 -66 -35 0 -35 0 0 184 0 184 82 0 c71 0 85 -3 100
-20z m230 5 c16 -14 18 -33 18 -166 0 -184 -2 -187 -98 -187 -101 0 -102 2
-102 183 0 184 2 187 98 187 47 0 71 -5 84 -17z m237 -158 c1 -201 4 -195 -95
-195 -73 0 -94 17 -94 77 0 43 0 43 35 43 31 0 35 -3 35 -25 0 -20 5 -25 25
-25 14 0 25 6 26 13 0 6 0 62 -1 123 -1 144 4 164 41 164 l28 0 0 -175z m211
140 l0 -35 -60 0 -60 0 0 -40 0 -40 45 0 c45 0 45 0 45 -35 0 -35 0 -35 -45
-35 l-45 0 0 -40 0 -40 60 0 60 0 0 -35 0 -35 -76 0 c-118 0 -114 -7 -114 177
0 194 -1 193 112 193 l78 0 0 -35z m418 22 c12 -9 16 -9 19 1 3 8 29 12 84 12
l79 0 0 -35 0 -35 -55 0 c-51 0 -55 -2 -55 -24 0 -15 19 -41 55 -75 l55 -52 0
-63 c0 -35 -5 -67 -12 -74 -7 -7 -43 -12 -90 -12 l-78 0 0 35 0 35 60 0 c51 0
60 3 60 18 0 10 -6 27 -14 37 -12 17 -12 21 3 33 14 11 13 12 -7 2 -19 -9 -28
-6 -63 22 -22 18 -36 34 -30 36 6 2 11 8 11 13 0 6 -4 7 -10 4 -6 -4 -10 7
-10 25 0 21 4 29 12 24 7 -5 8 -3 3 6 -6 10 -4 12 11 6 11 -4 15 -4 9 2 -5 5
-31 7 -57 4 l-48 -4 0 -105 c0 -80 -3 -103 -12 -97 -10 6 -10 4 0 -7 6 -7 12
-30 12 -51 0 -37 -1 -38 -36 -38 l-35 0 1 93 c3 212 4 207 -28 207 -30 0 -67
31 -55 45 5 4 3 5 -4 1 -7 -4 -10 -13 -7 -20 6 -15 -24 -26 -68 -26 l-28 0 0
-115 0 -115 60 0 60 0 0 -35 0 -35 -79 0 c-113 0 -111 -3 -111 185 0 124 3
156 15 169 13 12 47 15 192 15 125 0 181 -3 191 -12z m-4409 -274 c32 -14 34
-14 22 1 -12 14 -5 16 78 16 89 0 91 0 97 -26 4 -14 2 -30 -5 -37 -8 -8 -11
-5 -12 13 -1 25 -1 25 -12 -2 -6 -16 -14 -28 -19 -28 -4 0 -8 -9 -8 -20 0 -20
-5 -20 -282 -18 l-283 3 -3 44 c-4 52 3 61 41 54 19 -4 27 -12 27 -27 1 -16 4
-14 15 12 l14 33 148 -2 c103 -1 158 -6 182 -16z"/>
<path d="M9180 5985 c0 -12 13 -15 60 -15 47 0 60 3 60 15 0 12 -13 15 -60 15
-47 0 -60 -3 -60 -15z"/>
<path d="M9720 5985 c0 -12 14 -15 70 -15 56 0 70 3 70 15 0 12 -14 15 -70 15
-56 0 -70 -3 -70 -15z"/>
<path d="M1547 5960 c-10 -16 -15 -30 -10 -30 4 0 16 14 25 30 9 17 14 30 10
30 -4 0 -16 -13 -25 -30z"/>
<path d="M1738 5773 c6 -2 18 -2 25 0 6 3 1 5 -13 5 -14 0 -19 -2 -12 -5z"/>
<path d="M1410 5706 c0 -2 7 -7 16 -10 8 -3 12 -2 9 4 -6 10 -25 14 -25 6z"/>
<path d="M5037 5991 c111 -6 124 -8 147 -30 14 -14 26 -33 26 -43 0 -11 5 -16
10 -13 15 9 -20 67 -51 82 -15 8 -64 12 -139 11 l-115 -2 122 -5z"/>
<path d="M4693 5983 c15 -2 37 -2 50 0 12 2 0 4 -28 4 -27 0 -38 -2 -22 -4z"/>
<path d="M5034 5923 c58 -2 106 -9 115 -16 14 -11 14 -10 2 6 -11 14 -29 17
-115 15 l-101 -2 99 -3z"/>
<path d="M4777 5893 c-4 -3 -7 -55 -7 -115 l0 -108 53 0 c28 0 109 3 180 7
l127 6 0 109 0 108 -173 0 c-96 0 -177 -3 -180 -7z"/>
<path d="M5224 5795 c0 -55 1 -76 3 -47 2 29 2 74 0 100 -2 26 -3 2 -3 -53z"/>
<path d="M4680 5730 l0 -150 123 2 122 2 -117 3 -118 4 0 139 0 140 30 0 30 0
0 -110 0 -110 186 0 c109 0 193 4 205 10 17 10 19 21 17 108 l-2 97 -3 -95
c-3 -59 -8 -97 -16 -102 -7 -4 -94 -8 -194 -8 l-183 0 0 110 0 110 -40 0 -40
0 0 -150z"/>
<path d="M5200 5634 c0 -5 -12 -17 -27 -26 -16 -10 -23 -18 -17 -18 18 0 60
37 52 46 -5 4 -8 3 -8 -2z"/>
<path d="M4482 5888 l2 -103 3 98 4 97 29 0 29 0 4 -72 3 -73 2 78 2 77 -40 0
-40 0 2 -102z"/>
<path d="M4014 5755 c0 -66 1 -92 3 -57 2 34 2 88 0 120 -2 31 -3 3 -3 -63z"/>
<path d="M4459 5700 c13 -11 27 -20 32 -20 17 0 9 9 -23 24 l-33 16 24 -20z"/>
<path d="M4016 5586 c4 -11 18 -16 46 -16 21 0 37 4 34 9 -3 4 -17 6 -31 3
-14 -2 -32 1 -40 8 -13 11 -14 10 -9 -4z"/>
<path d="M3817 5967 c46 -17 66 -40 74 -89 l6 -43 2 41 c1 28 -5 47 -20 63
-21 22 -60 42 -82 40 -7 0 2 -6 20 -12z"/>
<path d="M3398 5954 c-16 -8 -28 -20 -28 -26 0 -6 9 -3 21 8 17 15 42 20 132
25 l112 5 -105 2 c-76 1 -112 -3 -132 -14z"/>
<path d="M3427 5893 c-4 -3 -7 -33 -7 -65 l0 -58 212 0 c116 0 209 3 206 6 -4
3 -97 5 -207 4 l-201 -1 0 49 c0 26 5 53 12 60 7 7 8 12 2 12 -6 0 -14 -3 -17
-7z"/>
<path d="M3817 5880 c3 -11 7 -20 9 -20 2 0 4 9 4 20 0 11 -4 20 -9 20 -5 0
-7 -9 -4 -20z"/>
<path d="M3445 5870 c-3 -5 -3 -25 1 -45 l6 -35 179 0 179 0 0 45 0 45 -179 0
c-107 0 -182 -4 -186 -10z"/>
<path d="M3354 5740 c0 -69 1 -97 3 -62 2 34 2 90 0 125 -2 34 -3 6 -3 -63z"/>
<path d="M3902 5700 c0 -14 2 -19 5 -12 2 6 2 18 0 25 -3 6 -5 1 -5 -13z"/>
<path d="M3421 5668 l2 -43 6 35 6 35 200 5 200 6 -207 2 -208 2 1 -42z"/>
<path d="M3833 5615 c0 -27 2 -38 4 -22 2 15 2 37 0 50 -2 12 -4 0 -4 -28z"/>
<path d="M3390 5570 l-35 -7 38 -2 c20 0 37 4 37 9 0 6 -1 9 -2 9 -2 -1 -19
-5 -38 -9z"/>
<path d="M3100 5949 c45 -18 60 -48 60 -122 0 -63 -3 -71 -29 -98 -30 -29 -30
-39 0 -16 28 22 39 55 39 122 0 60 -3 69 -29 96 -16 16 -38 29 -48 28 -13 0
-12 -3 7 -10z"/>
<path d="M2760 5825 l0 -65 168 2 167 3 3 54 c2 30 0 58 -5 62 -4 4 -8 -18 -8
-49 l0 -57 -158 -3 -159 -3 4 61 c1 33 0 60 -4 60 -5 0 -8 -29 -8 -65z"/>
<path d="M2782 5825 l3 -45 145 2 145 3 3 43 3 42 -151 0 -150 0 2 -45z"/>
<path d="M2694 5735 c0 -66 1 -92 3 -57 2 34 2 88 0 120 -2 31 -3 3 -3 -63z"/>
<path d="M2762 5663 c1 -37 1 -37 5 -5 4 27 8 32 32 32 15 0 61 -11 101 -25
40 -14 78 -25 84 -24 25 1 -161 59 -191 59 -32 0 -33 -1 -31 -37z"/>
<path d="M3099 5674 c41 -14 76 -22 79 -20 2 3 -16 11 -42 18 -25 7 -46 16
-46 20 0 4 -15 8 -32 7 -27 -1 -19 -5 41 -25z"/>
<path d="M3010 5630 c8 -5 22 -9 30 -9 10 0 8 3 -5 9 -27 12 -43 12 -25 0z"/>
<path d="M2708 5553 c12 -2 32 -2 45 0 12 2 2 4 -23 4 -25 0 -35 -2 -22 -4z"/>
<path d="M2458 5953 c7 -3 16 -2 19 1 4 3 -2 6 -13 5 -11 0 -14 -3 -6 -6z"/>
<path d="M2517 5930 c31 -18 37 -31 46 -90 3 -15 5 -9 6 16 1 45 -33 94 -66
94 -13 0 -8 -6 14 -20z"/>
<path d="M2090 5815 l0 -65 189 0 c191 0 221 3 221 23 0 7 -4 7 -12 -1 -8 -8
-67 -12 -201 -12 l-189 0 4 60 c1 33 0 60 -4 60 -5 0 -8 -29 -8 -65z"/>
<path d="M2486 5865 c4 -8 8 -15 10 -15 2 0 4 7 4 15 0 8 -4 15 -10 15 -5 0
-7 -7 -4 -15z"/>
<path d="M2110 5846 c0 -7 3 -28 6 -45 l7 -31 178 0 179 0 0 45 0 45 -185 0
c-150 0 -185 -3 -185 -14z"/>
<path d="M2022 5728 c-1 -65 1 -118 6 -118 4 0 6 37 4 82 -4 143 -9 157 -10
36z"/>
<path d="M2560 5762 c0 -10 -4 -22 -9 -27 -6 -6 -5 -19 3 -33 11 -21 12 -18
13 28 0 27 -1 50 -3 50 -2 0 -4 -8 -4 -18z"/>
<path d="M2094 5676 c-3 -8 -4 -25 -2 -38 3 -22 6 -23 106 -24 l102 0 -100 3
-100 4 0 30 0 30 199 -3 c110 -2 197 0 194 5 -2 4 -92 7 -199 7 -159 0 -196
-3 -200 -14z"/>
<path d="M2116 5655 c-5 -13 19 -15 179 -15 158 0 185 2 185 15 0 13 -27 15
-179 15 -150 0 -180 -2 -185 -15z"/>
<path d="M2485 5630 c-3 -5 -1 -10 4 -10 6 0 11 5 11 10 0 6 -2 10 -4 10 -3 0
-8 -4 -11 -10z"/>
<path d="M2540 5585 c-7 -8 -27 -19 -44 -24 -29 -9 -29 -9 -5 -10 21 -1 69 30
69 44 0 9 -7 5 -20 -10z"/>
<path d="M2030 5558 c0 -16 11 -18 118 -16 l117 2 -110 3 c-72 3 -112 8 -117
16 -5 8 -8 7 -8 -5z"/>
<path d="M9924 5505 c0 -55 1 -76 3 -47 2 29 2 74 0 100 -2 26 -3 2 -3 -53z"/>
<path d="M10213 5413 c9 -2 23 -2 30 0 6 3 -1 5 -18 5 -16 0 -22 -2 -12 -5z"/>
<path d="M9532 5608 c-7 -7 -12 -17 -12 -22 0 -6 5 -4 10 4 7 11 10 -5 10 -52
l0 -68 120 0 120 0 0 75 0 75 -118 0 c-78 0 -122 -4 -130 -12z"/>
<path d="M9520 5458 c0 -5 60 -7 133 -6 133 2 117 5 -46 10 -48 2 -87 0 -87
-4z"/>
<path d="M1190 5490 c0 -5 5 -10 11 -10 5 0 7 5 4 10 -3 6 -8 10 -11 10 -2 0
-4 -4 -4 -10z"/>
<path d="M1236 5426 c-11 -39 -7 -46 26 -46 17 0 40 -8 50 -17 18 -16 18 -16
12 0 -5 15 3 17 70 17 81 0 90 7 62 46 -13 16 -27 19 -114 20 -94 0 -101 -1
-106 -20z"/>
<path d="M1210 5350 c0 -9 35 -17 100 -24 24 -2 42 -13 62 -36 15 -19 30 -31
33 -28 3 2 -4 13 -15 23 -27 25 -25 33 8 28 15 -2 7 3 -18 12 -25 8 -62 15
-82 15 -20 0 -48 4 -62 10 -16 6 -26 6 -26 0z"/>
<path d="M1548 5333 c7 -3 16 -2 19 1 4 3 -2 6 -13 5 -11 0 -14 -3 -6 -6z"/>
<path d="M1458 5303 c6 -2 18 -2 25 0 6 3 1 5 -13 5 -14 0 -19 -2 -12 -5z"/>
<path d="M1548 5293 c7 -3 16 -2 19 1 4 3 -2 6 -13 5 -11 0 -14 -3 -6 -6z"/>
<path d="M1213 5233 c9 -2 23 -2 30 0 6 3 -1 5 -18 5 -16 0 -22 -2 -12 -5z"/>
<path d="M7161 5371 c-15 -12 -22 -24 -18 -34 3 -9 0 -23 -8 -31 -11 -11 -15
-41 -15 -120 0 -183 5 -186 273 -186 183 0 196 1 221 21 18 14 24 24 17 29
-16 9 -3 40 16 40 10 0 13 6 9 16 -3 9 -6 62 -6 119 0 100 -1 104 -29 134
l-29 31 -204 0 c-182 0 -205 -2 -227 -19z m321 2 c-51 -2 -132 -2 -180 0 -48
1 -6 3 93 3 99 0 138 -2 87 -3z m-9 -60 c-45 -2 -122 -2 -170 0 -48 1 -11 3
82 3 94 0 133 -2 88 -3z m77 -118 l0 -105 -162 2 -163 3 -3 89 c-2 49 -1 95 2
103 4 10 42 13 166 13 l160 0 0 -105z m-77 -122 c-45 -2 -122 -2 -170 0 -48 1
-11 3 82 3 94 0 133 -2 88 -3z m10 -60 c-51 -2 -136 -2 -190 0 -54 1 -12 3 92
3 105 0 149 -2 98 -3z"/>
<path d="M7730 5365 c0 -14 5 -25 10 -25 14 0 13 -27 -1 -32 -19 -6 -12 -227
8 -258 32 -48 37 -49 249 -50 191 0 203 1 228 21 18 14 24 24 17 29 -16 9 -3
40 16 40 10 0 13 6 9 16 -3 9 -6 76 -6 150 l0 134 -50 0 -50 0 0 -150 0 -150
-162 2 -163 3 -3 148 -3 147 -49 0 c-47 0 -50 -2 -50 -25z m353 -292 c-45 -2
-122 -2 -170 0 -48 1 -11 3 82 3 94 0 133 -2 88 -3z m10 -60 c-51 -2 -136 -2
-190 0 -54 1 -12 3 92 3 105 0 149 -2 98 -3z"/>
<path d="M11071 5146 c-8 -9 -11 -81 -9 -237 3 -214 4 -224 24 -234 12 -6 74
-8 160 -5 l139 5 3 229 c2 160 -1 233 -9 242 -17 20 -291 20 -308 0z m167 -13
c-27 -2 -69 -2 -95 0 -27 2 -5 3 47 3 52 0 74 -1 48 -3z m129 -310 c-1 -59 -3
-13 -3 102 0 116 2 164 3 108 2 -56 2 -151 0 -210z m-280 -20 c-1 -60 -3 -11
-3 107 0 118 2 167 3 108 2 -60 2 -156 0 -215z m181 -120 c-26 -2 -71 -2 -100
0 -29 2 -8 3 47 3 55 0 79 -1 53 -3z"/>
<path d="M10547 5153 c-4 -3 -7 -26 -7 -50 l0 -43 140 0 140 0 0 50 0 50 -133
0 c-74 0 -137 -3 -140 -7z m206 -80 c-34 -2 -93 -2 -130 0 -37 2 -9 3 62 3 72
0 102 -1 68 -3z"/>
<path d="M1280 5125 c7 -9 15 -13 17 -11 7 7 -7 26 -19 26 -6 0 -6 -6 2 -15z"/>
<path d="M1243 5010 c-18 -8 -21 -13 -14 -32 8 -23 8 -23 252 -26 134 -1 254
0 267 3 15 4 22 13 22 29 0 18 -7 25 -31 30 -48 9 -471 6 -496 -4z"/>
<path d="M1254 4904 c-4 -14 -3 -29 2 -34 5 -5 9 6 10 26 1 41 -3 43 -12 8z"/>
<path d="M1387 4909 c7 -7 15 -10 18 -7 3 3 -2 9 -12 12 -14 6 -15 5 -6 -5z"/>
<path d="M1479 4854 c19 -8 36 -12 39 -9 3 3 0 5 -7 5 -7 0 -9 5 -6 10 4 6 -7
10 -27 10 l-33 -1 34 -15z"/>
<path d="M1605 4860 c22 -5 44 -4 50 1 5 5 -11 9 -40 8 l-50 -1 40 -8z"/>
<path d="M1290 4850 c8 -5 20 -10 25 -10 6 0 3 5 -5 10 -8 5 -19 10 -25 10 -5
0 -3 -5 5 -10z"/>
<path d="M1685 4840 c11 -5 29 -9 40 -9 l20 0 -20 9 c-11 5 -29 9 -40 9 l-20
0 20 -9z"/>
<path d="M1330 4836 c0 -2 7 -7 16 -10 8 -3 12 -2 9 4 -6 10 -25 14 -25 6z"/>
<path d="M7693 4610 c-72 -36 -124 -91 -162 -170 -25 -53 -26 -62 -26 -225 0
-165 1 -172 28 -231 34 -74 104 -145 172 -176 38 -17 69 -23 125 -23 66 0 84
4 143 33 55 28 77 46 113 94 65 89 76 139 72 321 -3 140 -5 157 -30 209 -33
72 -93 137 -155 168 -37 19 -67 26 -133 28 -79 3 -90 1 -147 -28z m256 -41
c73 -37 124 -97 147 -176 12 -42 15 -89 12 -206 -3 -135 -6 -157 -26 -195
-118 -223 -402 -219 -506 7 -28 62 -36 311 -12 393 50 172 229 255 385 177z"/>
<path d="M7750 4448 c-69 -47 -75 -64 -78 -221 -3 -132 -1 -145 20 -187 63
-123 234 -115 283 13 13 35 16 71 13 180 -3 119 -6 139 -24 164 -35 48 -82 73
-134 73 -32 0 -57 -7 -80 -22z"/>
<path d="M1245 4730 c-19 -8 -19 -9 2 -9 12 -1 25 4 28 9 7 12 -2 12 -30 0z"/>
<path d="M1235 4660 c3 -5 14 -10 23 -10 15 0 15 2 2 10 -20 13 -33 13 -25 0z"/>
<path d="M1303 4653 c-13 -2 -23 -9 -23 -14 0 -6 4 -8 9 -5 5 3 28 -1 51 -9
23 -8 50 -15 59 -14 9 0 -6 8 -32 18 -27 9 -45 20 -41 24 4 4 5 6 3 6 -2 -1
-14 -4 -26 -6z"/>
<path d="M1630 4642 c0 -5 16 -16 36 -25 19 -10 33 -13 29 -7 -9 14 -65 42
-65 32z"/>
<path d="M4294 4464 c-45 -22 -54 -51 -54 -169 l0 -105 95 0 95 0 0 110 c0
106 -1 111 -27 139 -35 38 -69 46 -109 25z"/>
<path d="M6840 4309 l0 -172 48 7 c54 7 87 28 120 77 20 29 23 44 20 96 -3 42
-11 72 -24 90 -24 34 -98 73 -136 73 l-28 0 0 -171z"/>
<path d="M1330 4391 c0 -6 9 -15 20 -21 13 -7 20 -7 20 -1 0 6 -9 15 -20 21
-13 7 -20 7 -20 1z"/>
<path d="M6340 3495 l0 -45 120 0 120 0 0 45 0 45 -120 0 -120 0 0 -45z m183
28 c-29 -2 -78 -2 -110 0 -32 2 -8 3 52 3 61 0 87 -1 58 -3z"/>
<path d="M6720 3495 l0 -45 101 0 100 0 -3 43 -3 42 -97 3 -98 3 0 -46z m143
28 c-24 -2 -62 -2 -85 0 -24 2 -5 4 42 4 47 0 66 -2 43 -4z"/>
<path d="M7859 3540 c-1 -3 -2 -24 -3 -48 l-1 -43 100 3 100 3 0 40 0 40 -98
5 c-53 3 -98 3 -98 0z m144 -17 c-23 -2 -64 -2 -90 0 -26 2 -7 3 42 3 50 0 71
-1 48 -3z"/>
<path d="M11078 3379 c-16 -9 -18 -31 -18 -239 0 -126 4 -231 8 -234 4 -2 41
-6 82 -7 l75 -2 3 246 2 247 -67 0 c-38 0 -76 -5 -85 -11z m132 -239 l0 -230
-57 2 -58 2 53 3 52 4 0 219 0 219 -52 4 -53 3 58 2 57 2 0 -230z m-123 -97
c-1 -54 -3 -12 -3 92 0 105 2 149 3 98 2 -51 2 -136 0 -190z"/>
<path d="M2555 3141 c-3 -5 -2 -12 3 -15 5 -3 9 1 9 9 0 17 -3 19 -12 6z"/>
<path d="M1547 3143 c3 -7 6 -13 8 -13 2 0 5 6 8 13 3 8 -1 14 -8 14 -7 0 -11
-6 -8 -14z"/>
<path d="M1510 2730 c0 -5 4 -10 9 -10 6 0 13 5 16 10 3 6 -1 10 -9 10 -9 0
-16 -4 -16 -10z"/>
<path d="M1873 3130 c1 -11 5 -20 9 -20 4 0 8 9 8 20 0 11 -4 20 -9 20 -6 0
-9 -9 -8 -20z"/>
<path d="M1860 2965 c0 -8 5 -15 10 -15 6 0 10 7 10 15 0 8 -4 15 -10 15 -5 0
-10 -7 -10 -15z"/>
<path d="M2377 3216 c-4 -11 -1 -13 11 -10 14 5 13 3 -2 -10 -19 -16 -19 -16
2 -16 25 0 29 22 8 39 -10 9 -15 8 -19 -3z"/>
<path d="M2241 3196 c-10 -12 -8 -13 8 -9 12 3 21 9 21 14 0 14 -16 11 -29 -5z"/>
<path d="M2190 3070 c0 -5 5 -10 10 -10 6 0 10 5 10 10 0 6 -4 10 -10 10 -5 0
-10 -4 -10 -10z"/>
<path d="M2370 2910 c0 -5 5 -10 10 -10 6 0 10 5 10 10 0 6 -4 10 -10 10 -5 0
-10 -4 -10 -10z"/>
<path d="M2196 2804 c-8 -21 -8 -21 7 -27 7 -3 12 4 12 19 0 27 -10 32 -19 8z"/>
<path d="M2400 2802 c0 -6 -8 -9 -17 -6 -15 5 -16 4 -3 -5 16 -11 40 3 27 16
-4 3 -7 1 -7 -5z"/>
<path d="M2187 2749 c7 -7 15 -10 18 -7 3 3 -2 9 -12 12 -14 6 -15 5 -6 -5z"/>
<path d="M3986 3102 c-11 -18 -4 -188 9 -205 11 -16 30 -17 171 -15 l159 3 0
100 0 100 -159 3 c-121 2 -162 -1 -169 -10 -6 -10 -8 -9 -4 2 3 12 32 15 170
18 193 3 175 15 180 -123 l3 -80 2 88 c3 133 12 127 -188 127 -93 0 -171 -4
-174 -8z"/>
<path d="M4404 3000 c0 -58 1 -81 3 -52 2 28 2 76 0 105 -2 28 -3 5 -3 -53z"/>
<path d="M3914 2975 c0 -55 1 -76 3 -47 2 29 2 74 0 100 -2 26 -3 2 -3 -53z"/>
<path d="M3984 2880 c1 -13 29 -15 170 -18 93 -1 173 1 177 5 5 5 -70 7 -166
5 -135 -2 -174 0 -178 10 -2 8 -4 8 -3 -2z"/>
<path d="M3920 2866 c0 -16 20 -44 37 -50 13 -5 11 0 -7 21 -14 15 -26 30 -27
32 -2 2 -3 1 -3 -3z"/>
<path d="M4372 2828 c-9 -9 -71 -15 -205 -18 l-192 -6 186 -2 c173 -2 189 -1
210 18 13 10 22 19 19 20 -4 0 -12 -6 -18 -12z"/>
<path d="M5092 2938 l-2 -138 38 2 c36 1 36 1 5 5 l-32 4 -4 132 -3 132 -2
-137z"/>
<path d="M5690 3162 c0 -5 13 -7 30 -4 l29 4 4 -133 3 -134 2 138 2 137 -35 0
c-19 0 -35 -4 -35 -8z"/>
<path d="M5264 2950 c0 -63 1 -89 3 -57 2 31 2 83 0 115 -2 31 -3 5 -3 -58z"/>
<path d="M5278 2803 c12 -2 30 -2 40 0 9 3 -1 5 -23 4 -22 0 -30 -2 -17 -4z"/>
<path d="M5853 2960 c0 -47 2 -66 4 -42 2 23 2 61 0 85 -2 23 -4 4 -4 -43z"/>
<path d="M6090 2955 l0 -35 95 0 95 0 0 -25 0 -26 -179 3 c-99 2 -177 0 -174
-4 2 -5 85 -8 184 -8 l179 0 0 35 0 35 -95 0 c-95 0 -95 0 -95 25 l0 25 119 0
120 0 4 -42 4 -43 1 48 2 47 -130 0 -130 0 0 -35z"/>
<path d="M5860 2865 c0 -5 5 -17 10 -25 5 -8 10 -10 10 -5 0 6 -5 17 -10 25
-5 8 -10 11 -10 5z"/>
<path d="M9877 3118 l-27 -24 0 -229 c1 -139 5 -224 10 -215 5 8 13 11 17 6 4
-4 0 -13 -10 -20 -9 -7 -17 -25 -17 -40 0 -20 5 -26 23 -26 28 0 43 11 42 30
-1 8 3 20 8 27 5 7 2 18 -10 30 -20 20 -22 31 -10 51 5 7 3 12 -5 12 -10 0 -9
3 2 10 9 6 17 5 22 -3 4 -6 0 -16 -8 -20 -14 -8 -13 -11 2 -28 28 -31 36 -22
32 34 l-3 52 53 -3 c58 -4 52 8 56 -119 1 -52 17 -86 30 -64 5 7 12 7 25 -1
10 -6 26 -8 35 -5 14 6 16 34 16 260 l-1 254 -25 24 c-23 21 -36 24 -127 27
-95 3 -104 2 -130 -20z m176 -171 c-1 -38 -3 -70 -5 -72 -2 -1 -23 -5 -48 -7
l-45 -5 3 79 4 79 46 -3 47 -3 -2 -68z m27 -277 c0 -5 -4 -10 -10 -10 -5 0
-10 5 -10 10 0 6 5 10 10 10 6 0 10 -4 10 -10z"/>
<path d="M10220 2855 l0 -285 50 0 50 0 1 43 c1 23 1 65 0 93 l-2 52 36 4 c52
6 64 -12 67 -107 l3 -80 50 0 50 0 3 94 c3 84 1 97 -18 123 l-22 30 21 14 c28
20 28 54 0 54 -11 0 -17 5 -14 10 3 6 0 10 -7 10 -10 0 -10 2 1 9 8 5 20 7 28
4 16 -6 19 52 3 62 -6 4 -8 11 -4 16 3 6 0 10 -7 8 -36 -4 -57 3 -62 21 -3 11
0 20 6 20 8 0 7 4 -2 9 -9 6 -10 11 -2 15 6 4 9 11 6 16 -3 5 4 14 15 20 22
12 27 1 8 -19 -9 -10 -9 -12 -1 -7 6 3 14 2 18 -3 3 -5 -3 -14 -12 -20 -10 -6
-12 -11 -5 -11 6 0 11 -6 10 -12 -2 -7 8 -14 21 -16 17 -3 22 0 19 10 -4 10 6
12 48 10 l54 -4 0 -80 c0 -65 3 -83 18 -95 13 -10 13 -13 2 -11 -13 3 -15 -18
-15 -137 l0 -140 50 0 50 0 3 54 c3 44 -1 57 -17 73 -26 24 -27 32 -1 25 19
-5 20 0 20 154 l0 159 50 0 50 0 0 50 0 50 -155 0 -155 0 0 -31 0 -32 -20 26
c-14 17 -26 24 -37 20 -11 -4 -14 -3 -9 5 5 9 -6 12 -39 12 -28 0 -44 -4 -40
-10 9 -14 -9 -12 -24 3 -10 10 -11 7 -7 -16 3 -16 1 -25 -5 -22 -5 4 -9 12 -9
19 0 14 -42 26 -91 26 l-29 0 0 -285z m220 251 c-7 -7 -13 -7 -20 0 -6 6 -3
10 10 10 13 0 16 -4 10 -10z m-18 -146 c-2 -36 -9 -71 -14 -77 -6 -7 -28 -13
-49 -13 l-39 0 6 40 c4 26 2 45 -6 55 -10 12 -10 15 0 15 8 0 10 8 6 24 -7 29
3 34 58 26 l41 -5 -3 -65z m-145 -356 c-3 -3 -12 -4 -19 -1 -8 3 -5 6 6 6 11
1 17 -2 13 -5z"/>
<path d="M9933 2615 c-7 -16 -8 -27 -1 -31 14 -9 20 1 16 30 l-3 26 -12 -25z"/>
<path d="M3334 2975 c0 -55 1 -76 3 -47 2 29 2 74 0 100 -2 26 -3 2 -3 -53z"/>
<path d="M6750 3050 c0 -5 5 -10 10 -10 6 0 10 5 10 10 0 6 -4 10 -10 10 -5 0
-10 -4 -10 -10z"/>
<path d="M6588 3043 c7 -3 16 -2 19 1 4 3 -2 6 -13 5 -11 0 -14 -3 -6 -6z"/>
<path d="M7201 3086 c-9 -11 -7 -15 7 -18 12 -4 18 1 19 13 2 22 -10 25 -26 5z"/>
<path d="M7197 3024 c-11 -11 21 -34 45 -33 l23 0 -22 9 c-13 5 -23 14 -23 20
0 11 -13 13 -23 4z"/>
<path d="M7067 3013 c-7 -11 -9 -47 -8 -110 l1 -53 38 0 c53 0 62 13 62 92 l0
68 -29 0 c-16 0 -36 3 -44 6 -8 3 -17 2 -20 -3z"/>
<path d="M7430 2941 c0 -38 -2 -75 -5 -83 -4 -10 6 -12 44 -10 47 4 49 5 53
36 2 17 2 53 0 79 l-4 47 -44 0 -44 0 0 -69z"/>
<path d="M7325 2620 c-3 -5 -1 -10 4 -10 6 0 11 5 11 10 0 6 -2 10 -4 10 -3 0
-8 -4 -11 -10z"/>
<path d="M7858 3012 l-48 -3 0 -80 0 -79 41 0 c22 0 50 -5 62 -12 20 -10 21
-10 9 5 -9 10 -13 41 -11 91 1 42 0 77 -2 79 -2 1 -25 1 -51 -1z"/>
<path d="M8360 3060 c-13 -8 -12 -10 3 -10 9 0 17 5 17 10 0 12 -1 12 -20 0z"/>
<path d="M8336 3015 c4 -8 11 -15 16 -15 6 0 5 6 -2 15 -7 8 -14 15 -16 15 -2
0 -1 -7 2 -15z"/>
<path d="M8510 2986 c0 -2 7 -7 16 -10 8 -3 12 -2 9 4 -6 10 -25 14 -25 6z"/>
<path d="M8806 3095 c-3 -8 -1 -15 4 -15 6 0 10 7 10 15 0 8 -2 15 -4 15 -2 0
-6 -7 -10 -15z"/>
<path d="M8974 3020 c1 -31 7 -34 40 -21 14 5 16 10 8 15 -7 4 -17 4 -24 0 -6
-4 -8 -3 -5 3 4 6 1 16 -7 22 -11 9 -13 6 -12 -19z"/>
<path d="M2925 3100 c-3 -5 -1 -10 4 -10 6 0 11 5 11 10 0 6 -2 10 -4 10 -3 0
-8 -4 -11 -10z"/>
<path d="M4597 3083 c-4 -3 -7 -51 -7 -105 l0 -98 165 0 165 0 0 105 0 105
-158 0 c-87 0 -162 -3 -165 -7z"/>
<path d="M6976 2278 c3 -5 10 -6 15 -3 13 9 11 12 -6 12 -8 0 -12 -4 -9 -9z"/>
<path d="M6606 2263 c-3 -4 -6 -28 -6 -55 l0 -49 83 2 83 1 -3 46 c-2 26 -5
48 -7 50 -7 6 -144 11 -150 5z"/>
<path d="M9454 2297 c-2 -7 -4 -54 -2 -103 l3 -89 155 0 155 0 0 100 0 100
-153 3 c-121 2 -153 0 -158 -11z m13 -129 c-2 -24 -4 -7 -4 37 0 44 2 63 4 43
2 -21 2 -57 0 -80z"/>
<path d="M9950 2255 l0 -56 128 3 127 3 0 50 0 50 -127 3 -128 3 0 -56z m133
-38 l112 -3 -117 -2 -118 -2 2 38 c1 36 1 36 5 5 l4 -32 112 -4z"/>
<path d="M5740 2020 l0 -80 218 0 c156 0 221 3 230 12 7 7 12 37 12 68 0 31
-5 61 -12 68 -9 9 -74 12 -230 12 l-218 0 0 -80z m435 -50 c-4 -6 -80 -9 -203
-8 l-197 2 200 6 c110 3 201 7 203 8 2 1 0 -2 -3 -8z"/>
<path d="M5740 1840 l0 -50 43 0 c223 -3 393 2 404 12 16 13 17 60 1 76 -9 9
-74 12 -230 12 l-218 0 0 -50z m433 23 c3 -5 -59 -7 -136 -5 -258 4 -285 8
-75 10 114 1 209 -1 211 -5z"/>
<path d="M1283 1474 c-7 -3 -11 -50 -12 -145 l-2 -139 233 2 233 3 0 140 0
140 -220 2 c-121 1 -225 -1 -232 -3z"/>
<path d="M2929 1591 c-37 -12 -69 -30 -69 -41 0 -5 15 0 34 11 31 18 58 20
325 26 l291 6 0 -41 0 -42 -283 0 c-207 0 -286 -3 -295 -12 -16 -16 -16 -130
0 -146 9 -9 78 -12 250 -12 288 0 299 -4 329 -99 l7 -26 1 25 c1 31 -31 85
-61 102 -17 9 -93 14 -273 18 l-250 5 0 65 0 65 293 3 292 2 0 50 0 50 -282
-1 c-156 0 -295 -4 -309 -8z"/>
<path d="M4009 1591 c-38 -12 -69 -30 -69 -41 0 -5 15 -1 33 10 30 19 51 20
325 20 l292 0 0 -35 0 -35 -283 0 c-207 0 -286 -3 -295 -12 -17 -17 -17 -299
0 -316 9 -9 79 -12 255 -12 l243 0 0 50 0 50 -130 0 -130 0 0 35 0 35 170 0
169 0 4 -62 3 -63 2 73 2 72 -180 0 -180 0 0 -55 0 -55 130 0 130 0 0 -35 0
-35 -242 2 -243 3 0 155 0 155 293 3 292 2 0 50 0 50 -282 -1 c-156 0 -295 -4
-309 -8z"/>
<path d="M5689 1591 c-37 -12 -69 -30 -69 -41 0 -5 15 0 34 11 31 18 58 20
325 26 l291 6 0 -41 0 -42 -283 0 c-207 0 -286 -3 -295 -12 -7 -7 -12 -39 -12
-73 0 -34 5 -66 12 -73 9 -9 78 -12 250 -12 288 0 299 -4 329 -99 l7 -26 1 25
c1 31 -31 85 -61 102 -17 9 -93 14 -273 18 l-250 5 0 65 0 65 293 3 292 2 0
50 0 50 -282 -1 c-156 0 -295 -4 -309 -8z"/>
<path d="M6580 1570 c0 -5 5 -10 10 -10 6 0 10 5 10 10 0 6 -4 10 -10 10 -5 0
-10 -4 -10 -10z"/>
<path d="M6550 1560 c-13 -8 -13 -11 2 -27 20 -19 81 -28 75 -10 -3 7 -10 11
-16 9 -7 -1 -9 2 -6 9 5 7 -1 9 -16 7 -15 -2 -23 2 -21 10 2 14 1 15 -18 2z"/>
<path d="M6580 1430 l0 -60 190 0 190 0 0 60 0 60 -190 0 -190 0 0 -60z"/>
<path d="M9880 1331 c0 -48 1 -49 33 -53 l32 -3 -3 52 c-4 51 -5 53 -33 53
-28 0 -29 -2 -29 -49z"/>
<path d="M10100 1329 c0 -49 1 -50 28 -47 25 3 27 7 30 51 3 46 3 47 -27 47
-30 0 -31 -1 -31 -51z"/>
<path d="M10330 1265 l0 -115 30 0 30 0 0 115 0 115 -30 0 -30 0 0 -115z"/>
<path d="M10638 1423 c6 -2 18 -2 25 0 6 3 1 5 -13 5 -14 0 -19 -2 -12 -5z"/>
<path d="M6946 1142 c17 -15 64 -32 64 -23 0 4 -11 13 -25 19 -30 14 -54 16
-39 4z"/>
</g>
</svg>
