<?xml version="1.0" standalone="no"?>
<!DOCTYPE svg PUBLIC "-//W3C//DTD SVG 20010904//EN"
 "http://www.w3.org/TR/2001/REC-SVG-20010904/DTD/svg10.dtd">
<svg version="1.0" xmlns="http://www.w3.org/2000/svg"
 width="1280.000000pt" height="720.000000pt" viewBox="0 0 1280.000000 720.000000"
 preserveAspectRatio="xMidYMid meet">

<g transform="translate(0.000000,720.000000) scale(0.100000,-0.100000)"
fill="#fed136" stroke="none">
<path d="M6617 4113 c-25 -82 -66 -210 -91 -286 l-44 -138 41 -26 c48 -30 261
-133 275 -133 6 0 27 53 47 118 122 391 126 402 143 403 9 1 22 1 27 0 6 -1 2
5 -7 15 -14 14 -20 15 -32 5 -11 -10 -18 -8 -33 8 -12 13 -28 19 -41 16 -13
-2 -20 0 -17 5 10 17 -32 20 -67 5 -32 -13 -106 -53 -195 -107 -18 -11 -33
-17 -33 -14 0 7 83 59 182 116 79 44 88 59 60 93 -7 8 -12 19 -11 23 7 40 0
44 -79 44 l-79 0 -46 -147z"/>
<path d="M7220 4238 c-24 -55 -68 -122 -85 -132 -11 -6 -24 -16 -30 -22 -16
-18 -58 -24 -74 -11 -14 11 -14 10 -2 -5 12 -16 32 -18 143 -18 l129 0 -7 -22
c-3 -13 -15 -47 -26 -75 -17 -46 -23 -53 -46 -53 -24 0 -17 -10 73 -100 61
-61 108 -100 120 -100 32 0 82 36 110 78 28 43 100 250 111 318 4 32 1 58 -11
90 -26 68 -45 74 -235 74 -157 0 -161 -1 -170 -22z"/>
<path d="M7800 4253 c-23 -9 -51 -35 -65 -63 -27 -53 -174 -627 -172 -670 3
-43 25 -70 56 -70 11 0 6 10 -16 29 l-31 29 209 208 208 208 18 68 17 68 50 0
c42 0 55 5 86 33 l35 32 -29 -32 -30 -33 112 0 c62 0 112 -2 112 -4 0 -1 -4
-16 -9 -32 -6 -16 -35 -109 -66 -206 l-56 -178 -143 0 c-117 0 -146 3 -156 15
-11 13 -7 35 19 126 18 61 30 113 29 115 -2 2 -91 -84 -198 -191 l-194 -195
34 -35 c42 -43 55 -44 207 -5 139 36 329 111 468 184 141 75 354 208 304 191
-18 -7 -21 4 -23 85 -1 60 36 150 61 150 8 0 12 4 9 9 -3 5 4 11 15 14 15 4
20 11 15 23 -5 14 -4 15 8 5 12 -10 17 -8 25 8 13 23 14 71 3 87 -20 31 -54
33 -473 33 -233 0 -431 -3 -439 -6z"/>
<path d="M8793 4190 c-12 -39 -16 -70 -11 -70 22 0 77 -33 72 -42 -10 -15 27
6 56 34 14 12 40 35 58 50 18 15 29 29 24 32 -14 8 -162 66 -171 66 -4 0 -17
-31 -28 -70z"/>
<path d="M8911 4256 c2 -2 28 -14 58 -26 l54 -21 26 25 26 26 -84 0 c-47 0
-82 -2 -80 -4z"/>
<path d="M9537 4253 c-9 -2 -15 -9 -12 -14 4 -5 -1 -9 -9 -9 -9 0 -23 -11 -32
-26 -9 -14 -23 -23 -30 -20 -7 3 -16 0 -20 -6 -4 -6 -25 -8 -55 -5 -46 6 -72
-4 -49 -18 5 -3 10 0 10 7 0 10 3 9 9 -2 16 -23 1 -33 -21 -13 -11 10 -22 16
-23 13 -2 -3 -7 -1 -12 4 -5 5 -3 6 5 2 6 -4 12 -2 12 4 0 6 -12 9 -27 7 -16
-2 -34 0 -41 6 -7 5 -15 7 -19 3 -10 -10 57 -67 69 -60 7 4 8 2 4 -5 -4 -6 -2
-18 4 -26 10 -12 41 -15 146 -15 83 0 134 4 134 10 0 6 15 10 33 10 18 0 39 6
45 12 7 7 28 11 46 10 25 -3 40 3 54 19 l21 21 -5 -23 c-4 -22 23 46 40 99 l7
22 -133 -1 c-73 -1 -141 -3 -151 -6z"/>
<path d="M9875 4247 c-2 -6 -9 -31 -15 -55 -6 -24 -14 -50 -17 -59 -4 -11 -2
-14 5 -9 8 4 12 0 12 -10 0 -16 1 -16 16 2 14 18 15 18 9 -6 -6 -25 -6 -25 11
-5 16 20 16 20 11 -2 -3 -15 -1 -20 9 -16 8 3 11 9 8 14 -3 5 16 9 41 9 34 0
44 -3 39 -12 -5 -9 -3 -9 9 1 9 7 14 17 11 22 -3 5 7 9 21 9 17 0 24 -4 19
-12 -4 -6 -3 -8 4 -4 6 3 15 -1 20 -10 8 -14 10 -14 15 -1 7 18 -38 51 -55 41
-7 -4 -8 -3 -4 4 8 14 -30 36 -46 26 -6 -4 -9 -3 -5 2 3 5 -21 26 -54 47 -40
24 -61 33 -64 24z"/>
<path d="M9940 4256 c0 -12 111 -65 127 -60 14 4 15 4 4 -4 -9 -7 -10 -12 -2
-16 6 -4 11 -4 11 1 0 4 5 0 11 -9 5 -10 15 -18 20 -18 6 0 8 4 4 9 -3 5 0 13
6 17 8 4 9 3 5 -4 -4 -7 -1 -12 8 -12 15 0 21 12 17 33 -1 5 3 6 9 2 6 -3 8
-18 6 -32 -3 -14 -2 -22 2 -18 4 3 7 10 8 13 0 4 6 25 12 47 7 22 12 43 12 47
0 3 -58 7 -130 7 -71 1 -130 0 -130 -3z"/>
<path d="M850 4245 c0 -3 18 -42 41 -87 l41 -81 66 7 c120 12 197 17 222 17
41 -1 52 11 37 42 -16 36 -37 43 -37 12 0 -13 -5 -27 -11 -31 -7 -4 -9 2 -7
17 2 17 -1 23 -11 21 -11 -2 -12 0 -3 11 14 16 6 46 -17 64 -16 12 -321 19
-321 8z m284 -120 c-25 -19 -35 -19 -28 0 4 8 16 15 27 15 20 0 20 0 1 -15z"/>
<path d="M1659 4212 c-30 -21 -54 -42 -54 -48 0 -6 -19 -33 -42 -60 -132 -158
-193 -402 -152 -607 l12 -57 93 0 c110 0 110 0 99 116 -5 54 -11 74 -21 74
-18 0 -18 13 1 95 9 37 13 76 9 87 -9 31 51 142 114 209 31 32 62 59 68 59 6
0 16 12 22 28 16 43 42 125 42 134 0 4 -31 8 -68 8 -63 0 -73 -3 -123 -38z
m17 -143 c3 -6 17 -9 30 -6 21 4 18 -1 -20 -47 -23 -28 -53 -66 -66 -84 l-23
-34 -24 25 -25 24 21 40 c19 39 73 93 91 93 5 0 12 -5 16 -11z"/>
<path d="M1951 4233 c1 -10 4 -29 8 -42 7 -24 8 -25 119 -22 62 1 112 -1 112
-6 0 -4 -39 -9 -88 -9 -48 -1 -98 -7 -112 -13 -20 -9 -13 -10 39 -5 51 5 63 4
59 -7 -3 -8 -26 -17 -52 -21 -27 -4 -50 -8 -51 -10 -5 -5 71 -308 79 -316 7
-6 13 -1 165 161 55 59 101 111 101 116 0 5 -17 15 -37 22 -21 7 -33 14 -26
16 6 2 27 -3 47 -11 19 -8 38 -11 41 -6 3 4 -15 16 -40 27 -25 10 -45 24 -45
31 0 15 25 10 74 -15 l29 -15 -7 29 c-25 107 -39 113 -251 113 -151 0 -165 -1
-164 -17z m276 -79 c-3 -3 -12 -4 -19 -1 -8 3 -5 6 6 6 11 1 17 -2 13 -5z
m-57 -34 c0 -5 -2 -10 -4 -10 -3 0 -8 5 -11 10 -3 6 -1 10 4 10 6 0 11 -4 11
-10z m-13 -222 c-3 -8 -6 -5 -6 6 -1 11 2 17 5 13 3 -3 4 -12 1 -19z"/>
<path d="M2650 4240 c0 -5 5 -10 10 -10 6 0 10 5 10 10 0 6 -4 10 -10 10 -5 0
-10 -4 -10 -10z"/>
<path d="M2866 4215 c30 -40 32 -41 49 -18 12 16 14 16 38 0 32 -21 30 -21 53
1 56 51 55 52 -60 52 l-107 0 27 -35z m94 5 c0 -5 -9 -6 -20 -3 -11 3 -20 9
-20 13 0 5 9 6 20 3 11 -3 20 -9 20 -13z"/>
<path d="M3555 4241 c3 -6 -1 -11 -9 -11 -24 0 -28 -35 -10 -74 10 -20 15 -39
11 -43 -8 -8 -17 0 -21 19 -2 7 -7 24 -13 36 -8 21 -11 22 -22 8 -7 -9 -10
-23 -7 -32 4 -12 2 -15 -9 -10 -9 3 -27 -7 -45 -27 -33 -35 -36 -42 -18 -53 6
-4 8 -3 4 4 -13 21 14 22 35 1 16 -16 23 -18 29 -9 9 15 30 5 30 -15 0 -20 23
-24 37 -6 10 14 12 14 20 -4 4 -11 14 -20 21 -21 36 -3 42 -5 42 -13 0 -5 -9
-7 -20 -4 -31 8 -24 -4 10 -15 29 -11 29 -10 24 21 -5 30 -5 31 10 13 9 -11
16 -27 16 -37 0 -18 71 -44 145 -53 22 -2 64 -8 93 -12 52 -7 52 -6 52 20 0
16 4 25 10 21 6 -3 10 -15 10 -26 0 -10 6 -19 13 -19 26 0 16 57 -18 114 -18
31 -30 56 -25 56 5 0 10 -6 13 -12 2 -7 8 -10 12 -5 17 15 -27 121 -65 159
l-38 38 -87 0 c-82 0 -87 -1 -74 -17 13 -17 13 -17 -7 0 -24 20 -49 23 -38 5
6 -9 3 -9 -9 0 -32 27 -34 6 -6 -52 16 -33 27 -62 24 -64 -8 -8 -11 -2 -37 63
-22 55 -27 60 -57 63 -22 2 -31 0 -26 -7z m215 -114 c0 -16 -18 3 -23 25 -6
22 -5 22 8 4 8 -11 15 -24 15 -29z m30 -71 c0 -6 -7 -2 -15 8 -8 11 -15 25
-15 30 0 6 7 2 15 -8 8 -11 15 -25 15 -30z m95 24 c10 -11 16 -20 13 -20 -3 0
-13 9 -23 20 -10 11 -16 20 -13 20 3 0 13 -9 23 -20z m40 -50 c3 -5 2 -10 -4
-10 -5 0 -13 5 -16 10 -3 6 -2 10 4 10 5 0 13 -4 16 -10z"/>
<path d="M4195 4238 c-3 -7 -20 -59 -39 -115 l-35 -103 170 0 170 0 -7 -22
c-25 -78 -32 -108 -25 -104 5 3 29 -8 55 -26 34 -22 50 -28 58 -20 8 8 16 6
28 -7 12 -15 33 -20 92 -23 l76 -3 31 103 32 102 169 0 169 0 31 102 c18 55
34 107 37 115 4 11 -81 13 -501 13 -396 0 -508 -3 -511 -12z"/>
<path d="M5304 4193 c-9 -32 -36 -123 -59 -203 l-43 -145 24 -11 c28 -12 22
-24 -12 -24 -25 0 -41 -39 -21 -52 9 -6 7 -11 -7 -19 -15 -9 -16 -13 -5 -20
11 -7 11 -9 -2 -9 -12 0 -24 -30 -48 -112 -17 -62 -35 -125 -40 -140 l-9 -28
168 0 169 0 26 88 c15 48 67 220 117 382 50 162 94 307 98 323 l9 27 -174 0
-174 0 -17 -57z"/>
<path d="M9091 4237 c-6 -8 -8 -16 -5 -19 3 -3 -2 -5 -12 -4 -23 2 -30 -21 -7
-26 22 -5 65 20 57 33 -3 5 -10 7 -15 4 -5 -3 -6 1 -3 9 8 20 0 21 -15 3z"/>
<path d="M2641 4206 c-9 -11 -1 -29 41 -88 29 -40 62 -92 72 -115 10 -24 22
-40 26 -38 4 3 8 33 9 67 0 51 -4 69 -27 105 -30 47 -39 51 -58 26 -7 -10 -16
-15 -20 -11 -4 4 -1 15 7 24 13 16 12 16 -7 6 -27 -14 -52 6 -32 26 7 7 9 12
6 12 -3 0 -11 -6 -17 -14z"/>
<path d="M2685 4210 c-3 -5 1 -10 10 -10 9 0 13 5 10 10 -3 6 -8 10 -10 10 -2
0 -7 -4 -10 -10z"/>
<path d="M2580 4190 c0 -5 5 -10 11 -10 5 0 7 5 4 10 -3 6 -8 10 -11 10 -2 0
-4 -4 -4 -10z"/>
<path d="M8947 4113 c-107 -99 -76 -95 56 6 42 32 54 47 45 52 -21 14 -25 12
-101 -58z"/>
<path d="M2620 4158 c7 -10 9 -25 6 -34 -4 -9 1 -29 10 -43 10 -16 -3 -7 -33
22 -27 26 -52 47 -56 47 -8 0 -67 -63 -81 -87 -6 -11 2 -26 26 -51 44 -48 80
-105 103 -164 10 -27 21 -48 25 -48 4 0 30 24 58 54 47 49 50 56 43 87 -4 19
-13 43 -18 54 -6 11 -9 34 -6 50 3 25 -4 39 -43 80 -25 28 -41 42 -34 33z"/>
<path d="M9181 4156 c-10 -11 0 -20 51 -45 l63 -32 -45 46 c-49 50 -52 51 -69
31z"/>
<path d="M791 4111 c-15 -51 -14 -74 2 -65 6 4 2 -4 -10 -17 -15 -17 -45 -107
-98 -294 -41 -148 -78 -276 -80 -282 -3 -10 23 -13 109 -13 l113 0 61 215 c34
118 62 221 62 230 0 8 -12 21 -27 27 -38 16 -37 16 -24 32 10 11 8 23 -9 55
-11 23 -25 41 -31 41 -6 0 -7 4 -4 10 6 10 -28 85 -43 94 -5 3 -14 -12 -21
-33z"/>
<path d="M10130 4141 c0 -9 30 -24 36 -18 2 1 -6 8 -16 15 -11 7 -20 8 -20 3z"/>
<path d="M9044 4055 c-54 -40 -98 -77 -97 -83 2 -6 -3 -9 -10 -6 -7 2 -22 -5
-32 -16 -15 -17 -16 -20 -3 -15 24 10 27 -5 12 -64 -13 -49 -47 -100 -67 -101
-4 0 -18 -11 -30 -25 -27 -29 -102 -39 -117 -15 -7 11 -10 11 -10 2 0 -10 -3
-10 -14 0 -8 7 -12 16 -9 21 2 4 0 7 -6 7 -6 0 -22 -38 -36 -84 -32 -101 -25
-150 28 -190 56 -43 93 -46 482 -46 l367 1 -6 22 c-3 12 -6 30 -6 40 0 10 -5
15 -10 12 -19 -12 -40 16 -40 51 0 27 -4 34 -19 34 -11 0 -21 -6 -24 -12 -4
-10 -7 -10 -17 -1 -11 10 -10 14 4 19 11 4 15 13 10 26 -3 12 1 28 13 40 10
12 12 18 4 13 -9 -5 -18 -2 -26 8 -11 15 -13 14 -24 -9 -6 -14 -8 -30 -5 -36
4 -6 2 -8 -4 -4 -5 3 -12 1 -14 -5 -2 -7 -51 -11 -153 -10 -188 2 -207 15
-173 111 9 29 9 35 -7 47 -11 7 -14 13 -9 13 5 0 18 14 28 31 15 26 16 35 6
60 -15 35 -9 45 19 30 18 -10 22 -5 47 74 l28 84 50 3 51 3 -41 21 -41 22 -99
-73z m201 -473 c-3 -3 -11 0 -18 7 -9 10 -8 11 6 5 10 -3 15 -9 12 -12z m47
-34 c2 -12 9 -23 17 -26 8 -3 11 0 7 7 -4 6 -2 11 3 11 18 0 12 -15 -19 -50
-25 -27 -32 -31 -45 -20 -8 7 -22 10 -30 6 -16 -6 -22 19 -6 28 4 3 6 17 4 30
-4 21 -2 24 15 19 11 -2 23 0 26 6 11 18 24 13 28 -11z"/>
<path d="M1518 4103 c-19 -23 -31 -43 -24 -43 2 0 14 14 26 30 23 33 22 40 -2
13z"/>
<path d="M1268 4084 c-6 -6 -112 -13 -229 -15 -96 -2 -99 -6 -64 -79 16 -34
38 -66 48 -71 9 -6 15 -14 12 -20 -4 -5 45 -110 107 -234 l113 -225 71 0 72 0
-8 37 c-20 88 -22 182 -5 288 17 112 15 150 -4 68 -19 -78 -28 -192 -22 -280
3 -44 3 -79 -1 -76 -5 2 -8 15 -8 28 0 13 -4 26 -10 30 -5 3 -7 12 -3 20 3 8
1 15 -5 15 -6 0 -13 -6 -15 -12 -4 -10 -6 -10 -6 -1 -1 6 4 15 9 18 6 3 10 39
10 78 1 40 7 108 15 152 17 96 18 98 6 90 -6 -3 -6 6 -1 25 7 25 3 42 -28 100
-35 68 -42 76 -54 64z m-45 -74 c7 0 4 -5 -5 -11 -13 -7 -18 -23 -18 -60 0
-42 -2 -48 -14 -37 -9 8 -11 17 -5 23 15 16 10 63 -8 74 -17 10 -17 10 0 11
10 0 17 8 17 18 0 30 15 36 18 8 2 -14 9 -26 15 -26z m-98 -205 c17 -13 25
-24 18 -25 -6 0 -15 5 -18 10 -5 7 -11 8 -19 1 -8 -7 -15 -2 -23 15 -15 32 2
32 42 -1z m55 10 c0 -8 -4 -15 -10 -15 -5 0 -7 7 -4 15 4 8 8 15 10 15 2 0 4
-7 4 -15z"/>
<path d="M2804 4047 c3 -10 6 -25 6 -33 0 -9 5 -12 10 -9 14 9 13 18 -6 41
-14 17 -15 17 -10 1z"/>
<path d="M1769 4033 c-13 -16 -12 -17 4 -4 16 13 21 21 13 21 -2 0 -10 -8 -17
-17z"/>
<path d="M2430 4026 c0 -4 21 -33 46 -63 42 -52 84 -122 84 -140 0 -4 -16 20
-36 53 -38 63 -91 124 -108 124 -6 0 -60 -57 -121 -126 l-110 -126 0 -56 -1
-55 80 84 c83 86 64 52 -31 -58 -29 -33 -53 -67 -53 -74 0 -9 23 -11 96 -6 54
4 95 5 93 2 -3 -2 -46 -9 -97 -16 l-92 -12 0 -35 c0 -23 8 -44 22 -59 12 -13
16 -23 10 -23 -6 0 -14 5 -17 10 -9 15 -25 12 -25 -4 0 -11 13 -15 50 -14 l49
0 152 159 c143 150 151 161 146 192 l-6 32 14 -30 c11 -26 14 -27 20 -12 12
29 -57 155 -114 212 -28 27 -51 46 -51 41z m-32 -332 c3 -22 -21 -39 -39 -28
-11 6 -12 38 -2 48 13 13 38 1 41 -20z"/>
<path d="M3415 4012 c15 -15 75 -26 75 -13 0 6 -8 11 -17 11 -10 0 -29 3 -43
6 -17 5 -22 3 -15 -4z"/>
<path d="M3520 3985 c7 -9 15 -13 17 -11 7 7 -7 26 -19 26 -6 0 -6 -6 2 -15z"/>
<path d="M1729 3928 c-37 -52 -68 -109 -86 -163 l-13 -40 4 35 5 35 -16 -35
c-10 -23 -11 -36 -4 -38 7 -2 11 -33 11 -77 0 -41 4 -76 8 -79 5 -3 30 66 56
152 25 86 53 178 61 205 8 26 12 47 10 47 -3 0 -19 -19 -36 -42z"/>
<path d="M9345 3933 c-3 -10 -10 -36 -15 -58 -5 -22 -13 -56 -18 -76 l-9 -35
38 0 c30 0 39 4 39 17 0 9 7 22 15 29 17 14 20 40 5 40 -19 0 -25 -4 -22 -16
1 -7 -2 -16 -9 -19 -7 -5 -9 3 -7 21 2 19 9 29 20 29 19 0 33 12 33 28 1 7 6
11 13 10 7 -2 12 2 12 8 0 5 6 7 13 3 6 -4 3 2 -7 14 -24 28 -90 31 -101 5z"/>
<path d="M9450 3946 c0 -2 7 -7 16 -10 8 -3 12 -2 9 4 -6 10 -25 14 -25 6z"/>
<path d="M7129 3891 c18 -11 5 -31 -20 -31 -10 0 -19 -4 -19 -8 0 -5 -6 -17
-14 -28 -14 -18 -15 -18 -25 9 -7 19 -18 27 -34 27 -21 0 -26 -9 -45 -74 -12
-41 -22 -77 -22 -80 0 -2 17 -6 38 -8 37 -3 37 -4 102 -130 l65 -128 176 0
c97 0 178 3 182 6 3 4 -8 29 -24 58 -17 28 -46 82 -65 121 -26 53 -58 94 -136
172 -92 92 -106 103 -138 103 -24 0 -31 -3 -21 -9z"/>
<path d="M3791 3846 c9 -9 89 -24 89 -16 0 4 -14 10 -31 14 -37 7 -64 8 -58 2z"/>
<path d="M3910 3828 c0 -7 11 -14 25 -14 15 -1 25 3 25 12 0 8 -10 14 -25 14
-14 0 -25 -6 -25 -12z"/>
<path d="M3990 3819 c0 -11 4 -18 10 -14 5 3 7 12 3 20 -7 21 -13 19 -13 -6z"/>
<path d="M4400 3801 c0 -9 71 -24 78 -16 2 2 1 8 -3 14 -7 13 -75 15 -75 2z"/>
<path d="M4502 3793 c2 -10 17 -20 38 -24 41 -9 41 -9 33 19 -4 17 -13 22 -40
22 -27 0 -34 -4 -31 -17z"/>
<path d="M4587 3798 c6 -7 13 -21 16 -31 6 -16 1 -18 -51 -16 -31 1 -61 4 -67
8 -5 3 -14 6 -20 7 -5 2 -25 6 -44 10 -29 6 -33 5 -28 -9 3 -9 1 -18 -6 -21
-7 -2 29 -5 80 -5 74 -1 94 -4 101 -17 6 -11 14 -14 23 -8 8 5 22 7 32 6 20
-4 22 9 5 26 -9 9 -9 12 3 12 12 0 12 2 -1 10 -12 8 -9 10 11 10 15 0 29 7 33
15 4 12 -4 15 -46 15 -39 0 -48 -3 -41 -12z"/>
<path d="M4698 3773 c7 -3 16 -2 19 1 4 3 -2 6 -13 5 -11 0 -14 -3 -6 -6z"/>
<path d="M9380 3745 c-7 -9 -10 -18 -7 -22 4 -3 10 2 13 11 5 14 9 15 15 4 6
-9 9 -9 9 -1 0 19 -17 24 -30 8z"/>
<path d="M4696 3742 c-2 -4 -1 -14 5 -22 7 -12 9 -10 9 8 0 23 -5 28 -14 14z"/>
<path d="M8516 3699 c-26 -16 -92 -69 -145 -117 -53 -48 -112 -99 -131 -114
l-35 -28 142 0 142 0 42 132 c22 72 43 137 46 145 7 19 -6 15 -61 -18z"/>
<path d="M2145 3700 c-3 -5 1 -20 11 -32 14 -20 15 -20 9 -3 -4 11 -8 26 -8
33 0 15 -4 15 -12 2z"/>
<path d="M3014 3630 c-33 -39 -59 -81 -59 -93 0 -12 -4 -28 -9 -36 -6 -9 -5
-12 1 -8 7 5 10 -6 8 -29 -4 -34 -3 -35 28 -32 26 2 33 8 38 33 4 17 7 22 8
13 1 -12 9 -18 26 -18 27 0 31 17 27 100 -3 61 5 80 36 79 25 0 25 -1 6 -9
-19 -8 -22 -17 -23 -89 -1 -80 -1 -81 23 -81 24 0 101 71 157 145 13 17 29 34
36 38 7 4 17 17 23 27 9 16 7 20 -5 20 -8 0 -15 -7 -15 -15 0 -17 -16 -20 -25
-5 -4 6 -15 6 -31 0 -14 -6 -35 -10 -47 -9 -15 1 -9 5 18 14 l40 13 -42 1
c-43 1 -47 -3 -46 -46 1 -7 -3 -13 -8 -13 -8 0 -14 30 -10 53 0 4 -12 7 -29 7
-21 0 -30 -5 -30 -16 0 -9 -6 -14 -12 -11 -7 2 -13 9 -13 15 0 29 -18 17 -71
-48z m23 -77 c-3 -10 -5 -4 -5 12 0 17 2 24 5 18 2 -7 2 -21 0 -30z"/>
<path d="M4440 3691 c0 -6 4 -12 9 -15 4 -3 6 -17 3 -31 -4 -21 -1 -25 21 -25
14 0 28 6 30 13 4 9 8 9 15 -2 8 -11 14 -11 33 3 l24 16 -24 7 -24 6 24 19 24
19 -30 -3 c-22 -2 -29 -8 -27 -20 1 -9 -2 -19 -8 -23 -6 -4 -10 4 -10 19 0 22
-4 26 -30 26 -16 0 -30 -4 -30 -9z"/>
<path d="M3399 3642 c-21 -25 -38 -46 -37 -47 2 -1 38 -5 81 -9 51 -4 76 -2
72 4 -3 6 -1 10 4 10 6 0 11 -4 11 -10 0 -15 130 -13 131 3 9 87 9 87 -66 87
-41 0 -65 -4 -68 -12 -4 -9 -8 -10 -14 -2 -4 6 -23 13 -41 16 -29 4 -38 0 -73
-40z"/>
<path d="M3684 3653 c-4 -23 0 -63 10 -109 l17 -72 195 3 c108 2 197 5 200 8
3 2 -1 26 -7 53 -10 38 -14 44 -20 28 -9 -21 -9 -21 -15 21 -7 44 -26 76 -52
86 -34 13 -90 11 -95 -3 -4 -10 -7 -10 -18 0 -22 21 -51 15 -49 -10 4 -51 1
-58 -30 -58 -31 0 -60 33 -40 45 6 4 8 11 5 16 -4 5 6 10 22 10 25 1 24 2 -7
8 -24 4 -36 2 -38 -6 -5 -18 -19 -16 -26 2 -3 8 -14 15 -25 15 -15 0 -22 -9
-27 -37z m71 -33 c-2 -31 -15 -37 -15 -7 0 15 4 27 8 27 5 0 8 -9 7 -20z m90
-40 c-3 -5 -16 -10 -28 -9 -21 0 -21 1 -2 9 28 12 37 12 30 0z m68 -10 c-3
-11 -9 -20 -13 -20 -5 0 -6 9 -3 20 3 11 9 20 13 20 5 0 6 -9 3 -20z m-163 0
c0 -5 0 -12 0 -15 0 -14 -13 -8 -16 8 -1 9 2 17 7 17 5 0 9 -4 9 -10z"/>
<path d="M4665 3681 c3 -5 1 -12 -5 -16 -16 -10 -12 -45 5 -45 8 0 15 1 15 3
0 1 4 17 9 35 9 28 7 32 -10 32 -11 0 -18 -4 -14 -9z"/>
<path d="M4378 3663 c-35 -5 -35 -15 -1 -30 40 -19 53 -16 53 12 0 14 -5 24
-12 24 -7 -1 -25 -4 -40 -6z"/>
<path d="M6467 3643 c-18 -17 -2 -53 44 -103 27 -30 45 -45 39 -33 -14 30 -13
33 14 33 13 0 29 6 35 14 9 11 2 19 -36 42 -26 15 -57 33 -69 41 -11 7 -24 10
-27 6z"/>
<path d="M8265 3565 c-60 -30 -152 -70 -205 -89 l-95 -35 104 0 104 -1 66 55
c91 76 147 124 141 124 -3 0 -54 -25 -115 -54z"/>
<path d="M2144 3599 c-3 -6 -23 -9 -44 -7 -21 2 -36 0 -34 -4 9 -14 71 -8 84
7 7 8 10 15 7 15 -3 0 -9 -5 -13 -11z"/>
<path d="M4397 3604 c-13 -13 -7 -24 14 -24 11 0 19 5 17 12 -5 14 -22 21 -31
12z"/>
<path d="M4450 3595 c0 -9 9 -15 25 -15 16 0 25 6 25 15 0 9 -9 15 -25 15 -16
0 -25 -6 -25 -15z"/>
<path d="M4520 3590 c0 -21 -4 -22 -138 -22 -48 0 -54 -3 -63 -26 -18 -47 -8
-53 89 -52 13 0 20 -5 17 -10 -10 -17 27 -11 47 7 17 15 18 15 18 0 0 -23 85
-24 94 -2 3 8 10 15 17 15 6 0 9 -7 5 -15 -3 -9 0 -15 10 -15 14 0 27 25 40
75 6 24 4 25 -42 26 -27 1 -41 3 -31 6 35 9 19 33 -23 33 -33 0 -40 -3 -40
-20z"/>
<path d="M4620 3595 c0 -16 9 -19 34 -9 25 9 19 24 -9 24 -16 0 -25 -6 -25
-15z"/>
<path d="M4335 3590 c-3 -5 1 -10 9 -10 8 0 18 5 21 10 3 6 -1 10 -9 10 -8 0
-18 -4 -21 -10z"/>
<path d="M1963 3500 c-29 -32 -53 -61 -53 -64 0 -3 56 -6 124 -6 113 0 124 2
129 19 3 13 -6 30 -27 50 l-32 31 -36 -32 c-20 -18 -47 -39 -60 -47 l-23 -14
22 25 c17 17 21 33 18 57 -2 18 -5 34 -7 36 -2 1 -27 -24 -55 -55z"/>
<path d="M2040 3530 c0 -35 10 -38 36 -9 16 17 16 22 4 29 -27 17 -40 11 -40
-20z"/>
<path d="M2125 3549 c-7 -11 22 -49 37 -49 4 0 8 14 8 30 0 23 -5 30 -19 30
-11 0 -23 -5 -26 -11z"/>
<path d="M6630 3540 c0 -6 11 -16 25 -22 30 -14 31 -24 5 -40 -40 -25 -23 -38
49 -38 62 0 70 2 76 21 4 11 5 22 3 23 -10 7 -146 66 -151 66 -4 0 -7 -5 -7
-10z"/>
<path d="M6418 3490 l-16 -50 55 0 55 0 -33 43 c-18 23 -35 45 -39 50 -3 4
-13 -15 -22 -43z"/>
<path d="M2884 3487 c-48 -54 -49 -57 -17 -57 27 0 31 4 36 37 8 46 5 49 -19
20z"/>
<path d="M9526 3464 c-8 -21 -8 -21 8 -21 8 0 11 8 8 19 -5 22 -8 23 -16 2z"/>
<path d="M3760 3450 c-10 -6 3 -7 40 -3 30 3 57 7 59 9 10 9 -85 3 -99 -6z"/>
<path d="M4096 3445 c-3 -9 0 -15 9 -15 8 0 15 7 15 15 0 8 -4 15 -9 15 -5 0
-11 -7 -15 -15z"/>
<path d="M4298 3433 c6 -2 18 -2 25 0 6 3 1 5 -13 5 -14 0 -19 -2 -12 -5z"/>
<path d="M4528 3433 c6 -2 18 -2 25 0 6 3 1 5 -13 5 -14 0 -19 -2 -12 -5z"/>
<path d="M4588 3433 c6 -2 18 -2 25 0 6 3 1 5 -13 5 -14 0 -19 -2 -12 -5z"/>
</g>
</svg>
