<?xml version="1.0" standalone="no"?>
<!DOCTYPE svg PUBLIC "-//W3C//DTD SVG 20010904//EN"
 "http://www.w3.org/TR/2001/REC-SVG-20010904/DTD/svg10.dtd">
<svg version="1.0" xmlns="http://www.w3.org/2000/svg"
 width="837.000000pt" height="692.000000pt" viewBox="0 0 837.000000 692.000000"
 preserveAspectRatio="xMidYMid meet">

<g transform="translate(0.000000,692.000000) scale(0.100000,-0.100000)"
fill="#fff" stroke="none">
<path d="M2192 6000 l3 -221 1388 1 1387 0 -1 -1092 -1 -1093 -99 780 c-54
429 -98 783 -98 788 -1 4 -117 6 -258 5 l-258 -3 -32 -290 c-18 -159 -48 -438
-68 -620 -20 -181 -47 -428 -61 -547 -13 -119 -24 -219 -24 -222 0 -3 83 -6
184 -6 l183 0 6 68 c4 37 9 104 13 150 l7 82 63 0 c76 0 70 12 80 -172 l6
-128 179 0 179 0 0 -350 0 -350 -1390 0 -1390 0 0 -1010 0 -1010 2238 3 2237
2 3 2728 2 2727 -2240 0 -2240 0 2 -220z m3618 -1000 l0 -169 -107 -3 -108 -3
-3 -672 -2 -673 -180 0 -180 0 0 675 0 675 -105 0 -105 0 0 170 0 170 395 0
395 0 0 -170z m570 -675 l0 -845 -180 0 -180 0 0 845 0 845 180 0 180 0 0
-845z m-1835 239 c8 -109 21 -263 28 -341 l13 -143 -63 0 -63 0 0 43 c0 23 12
150 25 282 14 132 28 268 32 303 3 34 7 61 9 59 2 -2 10 -93 19 -203z m-694
-2006 c62 -28 113 -82 136 -143 19 -48 32 -480 15 -497 -6 -6 -7 -22 -1 -41
13 -45 11 -408 -2 -483 -21 -123 -99 -200 -225 -224 -86 -16 -197 -8 -262 20
-51 22 -86 50 -63 50 6 0 11 7 11 16 0 12 -6 15 -25 10 -29 -7 -46 17 -26 37
6 6 11 21 11 34 0 12 7 48 15 80 8 31 15 66 15 78 -1 38 -20 -9 -33 -82 -10
-56 -16 -68 -32 -68 -14 0 -21 10 -27 40 -11 51 -5 562 6 594 7 17 6 22 -2 17
-16 -10 -15 8 3 51 19 45 19 62 0 37 -13 -17 -14 -3 -14 127 0 108 4 152 14
173 8 16 15 36 15 45 0 28 38 79 79 107 58 38 131 53 241 51 78 -2 105 -8 151
-29z m723 12 c5 -5 20 -10 33 -10 37 0 109 -74 131 -133 30 -81 35 -122 17
-137 -19 -16 -19 -30 0 -30 13 0 15 -14 13 -82 -3 -80 -4 -83 -26 -80 -12 2
-22 0 -22 -3 0 -11 28 -35 41 -35 8 0 6 -6 -5 -19 -14 -15 -34 -18 -136 -20
-115 -2 -120 -1 -120 19 0 15 7 20 28 21 15 0 36 4 47 9 15 6 8 9 -27 9 l-48
1 -1 158 c-1 86 -4 168 -8 182 -9 31 -47 45 -83 31 l-28 -11 0 -184 0 -185
-47 -14 -48 -15 48 -1 c47 -1 47 -1 47 -35 0 -29 -5 -37 -30 -48 -16 -7 -30
-17 -30 -22 0 -4 14 -6 30 -4 l30 5 0 -108 c0 -79 -3 -106 -12 -105 -15 1 -18
-5 -18 -34 0 -11 7 -20 14 -20 12 0 15 -29 15 -172 1 -117 5 -176 13 -185 10
-13 7 -15 -17 -13 -43 3 -53 0 -30 -10 28 -12 75 -12 75 0 0 6 11 10 24 10 14
0 28 5 31 10 4 6 10 8 15 5 4 -3 8 1 7 8 0 6 1 63 1 125 2 94 4 112 18 112 15
0 44 23 44 34 0 3 -13 6 -30 6 -30 0 -30 0 -30 59 0 52 3 60 23 66 l22 8 -22
4 c-18 3 -23 11 -23 37 0 45 16 56 82 56 32 0 58 4 58 9 0 19 -30 32 -72 31
-23 -1 -53 2 -65 5 -14 5 -23 3 -23 -3 0 -6 -8 -13 -17 -15 -15 -4 -14 -6 5
-12 30 -10 23 -29 -11 -33 -23 -3 -27 0 -27 22 0 14 5 28 11 32 8 4 8 9 0 17
-6 6 -11 21 -11 34 l0 23 171 0 170 0 -2 -242 c-1 -134 -6 -268 -10 -298 -11
-72 -49 -145 -75 -145 -12 0 -20 -8 -22 -22 -2 -15 -10 -23 -23 -23 -10 0 -19
-4 -19 -8 0 -13 -71 -32 -144 -39 -117 -11 -230 23 -294 88 -49 50 -57 93 -12
69 11 -6 35 -10 53 -8 l32 4 -30 13 c-16 8 -46 17 -65 20 -42 8 -48 24 -49
139 -1 71 1 82 17 83 16 1 16 2 0 6 -16 4 -18 20 -18 151 0 81 4 153 9 161 5
8 22 20 38 27 26 12 27 12 5 13 -21 1 -23 4 -17 31 9 40 -2 38 -20 -2 l-14
-33 -1 48 c0 44 2 48 23 46 26 -2 57 9 57 22 0 5 -18 6 -40 3 l-40 -7 0 150
c0 167 6 213 26 213 16 0 19 16 5 25 -13 7 24 70 56 95 14 11 39 20 55 20 16
0 31 6 34 14 3 9 12 12 21 9 11 -4 14 -2 9 5 -5 8 3 12 24 12 36 0 45 -16 31
-53 -6 -15 -7 -27 -2 -27 5 0 14 15 21 33 24 58 28 60 104 54 38 -3 74 -11 80
-17z m-1963 -97 c1 -98 16 -73 18 30 l1 57 228 -2 229 -3 41 -28 c23 -15 52
-44 65 -65 44 -69 52 -109 52 -262 0 -135 -2 -149 -26 -201 -16 -34 -43 -69
-67 -89 l-41 -33 37 -27 c45 -32 80 -99 92 -177 6 -32 10 -154 10 -270 l0
-213 -134 0 -134 0 -4 273 c-4 177 -9 283 -17 303 -12 32 -34 44 -78 44 l-23
0 0 -244 c0 -153 -4 -247 -10 -251 -5 -3 -10 -16 -10 -28 0 -18 2 -19 10 -7 7
11 10 0 10 -37 0 -54 -19 -76 -21 -25 l-2 27 -4 -26 -4 -26 -120 -2 -121 -2 5
528 c3 290 9 545 12 567 5 28 4 37 -4 32 -8 -5 -11 28 -11 118 0 77 4 126 10
126 6 0 10 -37 11 -87z m2522 65 c3 -13 6 -125 7 -250 l0 -228 -25 -6 c-32 -8
-33 -23 -1 -17 l24 5 2 -328 c0 -181 5 -346 9 -367 6 -23 5 -39 -1 -43 -16
-10 13 -24 51 -24 19 0 31 3 28 6 -3 4 0 16 8 28 8 11 15 43 15 71 0 27 3 80
6 116 l7 67 38 -5 c24 -4 45 -1 54 7 29 24 16 33 -41 26 l-55 -6 3 57 3 58 43
9 c23 6 42 14 42 18 0 5 -19 7 -42 6 l-43 -3 -3 53 c-3 47 -1 52 17 52 12 0
21 -7 21 -15 0 -17 16 -20 25 -5 3 6 33 10 66 10 32 0 59 4 59 9 0 21 -32 33
-71 28 -24 -3 -50 -1 -62 6 -15 9 -21 9 -24 0 -3 -7 -11 -13 -19 -13 -11 0
-14 20 -14 94 l0 95 48 6 c92 12 100 20 25 23 l-73 3 0 224 0 225 45 0 c31 0
47 5 51 15 5 12 25 15 90 15 l84 0 0 -280 c0 -240 -2 -281 -15 -286 -8 -4 -15
-10 -15 -15 0 -5 7 -9 15 -9 11 0 15 -12 15 -48 0 -37 -4 -50 -21 -60 -21 -13
-18 -27 4 -27 7 0 13 -14 15 -31 l3 -31 -66 -6 c-36 -4 -73 -11 -83 -17 -12
-8 5 -9 66 -4 l82 6 0 -80 c0 -67 -3 -83 -17 -91 -17 -10 -17 -10 1 -11 18 0
19 -6 13 -92 -9 -126 -22 -171 -48 -163 -11 4 -19 2 -19 -4 0 -6 7 -11 16 -11
13 0 12 -5 -6 -31 -106 -148 -446 -144 -548 6 -12 16 -24 38 -28 48 -6 16 -3
17 22 12 16 -4 41 -11 55 -17 15 -5 42 -8 60 -6 l34 4 -30 13 c-16 8 -56 17
-89 22 -32 4 -62 13 -67 20 -4 8 -8 157 -8 332 l-1 318 48 -2 c26 -1 56 3 67
9 24 14 17 15 -57 12 l-58 -2 0 240 c0 133 4 243 9 246 5 3 54 9 110 12 56 4
104 11 107 16 10 16 32 8 37 -14z m663 5 c13 -17 13 -17 14 0 0 15 11 17 81
17 65 0 88 -4 115 -21 33 -20 46 -15 22 9 -19 19 25 15 61 -5 27 -16 31 -24
31 -60 l0 -43 -110 0 -109 0 -3 -107 c-3 -99 -4 -105 -19 -90 -17 17 -29 13
-29 -10 0 -7 11 -18 25 -23 25 -9 25 -11 25 -120 l0 -110 110 0 110 0 0 -60 0
-59 -107 -3 -108 -3 -3 -267 -2 -268 111 0 112 0 -6 -37 c-8 -46 -27 -68 -27
-30 0 42 -19 32 -32 -18 l-12 -45 -208 0 -208 0 0 669 0 670 22 15 c32 23 127
21 144 -1z"/>
<path d="M3511 2483 c0 -6 -4 -20 -7 -30 -5 -14 -4 -15 5 -7 7 7 11 20 8 30
-3 11 -5 14 -6 7z"/>
<path d="M3643 2438 c-26 -40 -28 -97 -23 -589 5 -560 4 -549 61 -549 56 0 59
26 59 582 0 246 1 448 3 448 1 0 17 -4 34 -9 20 -6 35 -6 38 0 3 5 -12 12 -34
15 -37 6 -41 10 -47 43 -4 20 -11 44 -16 54 -10 20 -63 23 -75 5z"/>
<path d="M3405 2400 c-3 -5 1 -10 10 -10 9 0 13 5 10 10 -3 6 -8 10 -10 10 -2
0 -7 -4 -10 -10z"/>
<path d="M3467 2368 c-2 -13 -12 -40 -21 -60 -9 -21 -12 -38 -7 -38 5 0 17 22
26 50 9 27 21 52 26 55 5 3 25 1 45 -4 21 -6 41 -8 47 -4 17 10 -17 23 -64 23
-40 0 -47 -3 -52 -22z"/>
<path d="M3927 2354 c-4 -4 -7 -16 -7 -26 0 -10 -4 -18 -10 -18 -16 0 -12 -17
5 -24 11 -4 19 3 25 20 10 26 0 61 -13 48z"/>
<path d="M3965 2280 c4 -6 11 -8 16 -5 14 9 11 15 -7 15 -8 0 -12 -5 -9 -10z"/>
<path d="M3405 2196 c-9 -21 -14 -43 -12 -49 2 -6 11 9 21 32 9 24 14 46 12
49 -3 3 -13 -12 -21 -32z"/>
<path d="M3542 2100 c-6 -16 -7 -32 -2 -35 4 -3 13 9 19 27 13 38 13 38 2 38
-5 0 -14 -13 -19 -30z"/>
<path d="M3511 2032 c-6 -12 -11 -29 -10 -39 0 -11 6 -6 15 16 16 37 12 55 -5
23z"/>
<path d="M3457 1970 c-3 -11 -1 -22 3 -25 4 -3 0 -28 -11 -55 -23 -60 -24 -86
-3 -46 13 22 18 26 25 15 5 -9 9 13 9 59 0 68 -12 95 -23 52z"/>
<path d="M3910 1924 c0 -8 5 -12 10 -9 6 3 10 10 10 16 0 5 -4 9 -10 9 -5 0
-10 -7 -10 -16z"/>
<path d="M3835 1809 c-4 -6 -5 -13 -2 -16 8 -7 47 7 47 18 0 13 -37 11 -45 -2z"/>
<path d="M3401 1777 c-16 -41 -13 -57 4 -23 9 16 14 34 11 40 -2 6 -9 -2 -15
-17z"/>
<path d="M3471 1774 c0 -11 3 -14 6 -6 3 7 2 16 -1 19 -3 4 -6 -2 -5 -13z"/>
<path d="M3467 1663 c-2 -32 -7 -67 -11 -78 -4 -12 1 -29 11 -42 18 -22 18
-20 19 77 1 108 -11 136 -19 43z"/>
<path d="M3360 1684 c0 -8 5 -12 10 -9 6 3 10 10 10 16 0 5 -4 9 -10 9 -5 0
-10 -7 -10 -16z"/>
<path d="M4326 2555 c-3 -8 -1 -15 4 -15 6 0 10 7 10 15 0 8 -2 15 -4 15 -2 0
-6 -7 -10 -15z"/>
<path d="M4473 2562 c-18 -2 -33 -7 -33 -12 0 -22 91 -28 109 -6 9 11 6 14
-16 17 -16 2 -43 3 -60 1z"/>
<path d="M4345 2470 c-13 -21 -24 -70 -15 -70 10 0 34 69 27 76 -3 3 -8 0 -12
-6z"/>
<path d="M4670 2090 c0 -5 5 -10 10 -10 6 0 10 5 10 10 0 6 -4 10 -10 10 -5 0
-10 -4 -10 -10z"/>
<path d="M4170 1900 c0 -5 11 -10 25 -10 14 0 25 5 25 10 0 6 -11 10 -25 10
-14 0 -25 -4 -25 -10z"/>
<path d="M4270 1901 c0 -11 26 -22 34 -14 3 3 3 10 0 14 -7 12 -34 11 -34 0z"/>
<path d="M4697 1864 c-13 -13 -7 -24 14 -24 11 0 19 5 17 12 -5 14 -22 21 -31
12z"/>
<path d="M4610 1763 c-19 -3 -39 -9 -45 -15 -7 -7 13 -8 65 -3 41 4 83 7 92 7
10 0 20 3 23 9 6 9 -65 10 -135 2z"/>
<path d="M4256 1701 c-4 -7 -5 -15 -2 -18 9 -9 19 4 14 18 -4 11 -6 11 -12 0z"/>
<path d="M4590 1672 c0 -12 75 -36 91 -29 9 3 -1 11 -23 21 -41 18 -68 21 -68
8z"/>
<path d="M4243 1651 c-18 -15 -20 -20 -8 -25 9 -3 15 -18 15 -35 0 -16 4 -32
9 -35 18 -11 41 6 41 30 0 13 5 24 10 24 16 0 11 26 -8 43 -23 21 -32 21 -59
-2z"/>
<path d="M4340 1610 c0 -5 5 -10 10 -10 6 0 10 5 10 10 0 6 -4 10 -10 10 -5 0
-10 -4 -10 -10z"/>
<path d="M4695 1580 c-3 -5 -1 -10 4 -10 6 0 11 5 11 10 0 6 -2 10 -4 10 -3 0
-8 -4 -11 -10z"/>
<path d="M4280 1310 c0 -5 7 -10 16 -10 8 0 12 5 9 10 -3 6 -10 10 -16 10 -5
0 -9 -4 -9 -10z"/>
<path d="M4650 1310 c0 -5 7 -10 15 -10 8 0 15 5 15 10 0 6 -7 10 -15 10 -8 0
-15 -4 -15 -10z"/>
<path d="M4480 1270 c0 -5 7 -10 15 -10 8 0 15 5 15 10 0 6 -7 10 -15 10 -8 0
-15 -4 -15 -10z"/>
<path d="M4556 1262 c-11 -11 7 -22 35 -22 17 0 28 4 25 9 -7 10 -53 20 -60
13z"/>
<path d="M3036 2505 c-9 -13 -16 -27 -16 -31 0 -10 30 17 41 38 15 27 -6 22
-25 -7z"/>
<path d="M2791 2438 c-27 -140 -33 -199 -22 -212 9 -11 -3 -28 -59 -79 -38
-35 -70 -68 -70 -71 0 -17 29 -1 67 36 l44 43 -7 -60 c-4 -33 -3 -57 1 -53 12
12 36 138 45 243 5 55 13 120 19 145 13 56 13 60 2 60 -5 0 -14 -24 -20 -52z"/>
<path d="M2870 2470 c0 -5 5 -10 10 -10 6 0 10 5 10 10 0 6 -4 10 -10 10 -5 0
-10 -4 -10 -10z"/>
<path d="M2860 2368 c0 -64 -3 -75 -27 -100 -30 -31 -24 -51 7 -23 20 18 20
18 20 -145 l0 -162 32 6 c50 10 71 38 79 103 10 76 10 224 0 291 -6 39 -4 55
6 63 7 7 13 18 13 25 0 12 -4 12 -20 2 -15 -10 -22 -10 -32 0 -6 6 -27 12 -45
12 l-33 0 0 -72z"/>
<path d="M3000 2260 c0 -5 5 -10 10 -10 6 0 10 5 10 10 0 6 -4 10 -10 10 -5 0
-10 -4 -10 -10z"/>
<path d="M2780 2129 c0 -5 5 -7 10 -4 6 3 10 8 10 11 0 2 -4 4 -10 4 -5 0 -10
-5 -10 -11z"/>
<path d="M2780 1985 c0 -43 4 -75 10 -75 6 0 10 32 10 75 0 43 -4 75 -10 75
-6 0 -10 -32 -10 -75z"/>
<path d="M2724 1955 c-6 -42 -1 -66 11 -53 11 11 17 98 7 98 -6 0 -14 -20 -18
-45z"/>
<path d="M2722 1840 c0 -14 2 -19 5 -12 2 6 2 18 0 25 -3 6 -5 1 -5 -13z"/>
<path d="M2711 1758 c1 -37 2 -39 9 -18 12 36 12 60 0 60 -5 0 -10 -19 -9 -42z"/>
<path d="M2780 1750 c0 -27 5 -50 10 -50 6 0 10 23 10 50 0 28 -4 50 -10 50
-5 0 -10 -22 -10 -50z"/>
<path d="M2700 1670 c0 -5 5 -10 10 -10 6 0 10 5 10 10 0 6 -4 10 -10 10 -5 0
-10 -4 -10 -10z"/>
<path d="M2780 1585 c0 -37 4 -65 10 -65 6 0 10 28 10 65 0 37 -4 65 -10 65
-6 0 -10 -28 -10 -65z"/>
<path d="M2690 1515 c0 -8 5 -15 10 -15 6 0 10 7 10 15 0 8 -4 15 -10 15 -5 0
-10 -7 -10 -15z"/>
<path d="M2780 1430 c0 -27 5 -50 10 -50 6 0 10 23 10 50 0 28 -4 50 -10 50
-5 0 -10 -22 -10 -50z"/>
<path d="M2780 1255 c0 -14 5 -25 10 -25 6 0 10 11 10 25 0 14 -4 25 -10 25
-5 0 -10 -11 -10 -25z"/>
<path d="M4910 2410 c0 -5 11 -10 25 -10 14 0 25 5 25 10 0 6 -11 10 -25 10
-14 0 -25 -4 -25 -10z"/>
<path d="M5035 2180 c-3 -5 -1 -10 4 -10 6 0 11 5 11 10 0 6 -2 10 -4 10 -3 0
-8 -4 -11 -10z"/>
<path d="M5480 2090 c0 -5 5 -10 10 -10 6 0 10 5 10 10 0 6 -4 10 -10 10 -5 0
-10 -4 -10 -10z"/>
<path d="M5405 2010 c3 -5 15 -10 26 -10 10 0 19 5 19 10 0 6 -12 10 -26 10
-14 0 -23 -4 -19 -10z"/>
<path d="M4930 1948 c-26 -57 -26 -77 -2 -55 10 10 26 17 35 17 9 0 19 5 22
10 3 6 -3 10 -15 10 -19 0 -21 4 -15 30 9 43 -3 37 -25 -12z"/>
<path d="M5450 1975 c-10 -12 -10 -15 4 -15 9 0 16 7 16 15 0 8 -2 15 -4 15
-2 0 -9 -7 -16 -15z"/>
<path d="M5370 1970 c0 -5 5 -10 10 -10 6 0 10 5 10 10 0 6 -4 10 -10 10 -5 0
-10 -4 -10 -10z"/>
<path d="M4976 1901 c-7 -10 23 -20 42 -14 6 3 12 9 12 14 0 12 -47 12 -54 0z"/>
<path d="M5080 1901 c0 -14 18 -23 31 -15 8 4 7 9 -2 15 -18 11 -29 11 -29 0z"/>
<path d="M5060 1690 c0 -5 5 -10 10 -10 6 0 10 5 10 10 0 6 -4 10 -10 10 -5 0
-10 -4 -10 -10z"/>
<path d="M5400 1671 c0 -5 20 -16 45 -24 53 -19 62 -3 10 19 -40 16 -55 18
-55 5z"/>
<path d="M5061 1653 c-29 -15 -31 -18 -17 -28 9 -7 16 -24 16 -38 0 -14 4 -28
9 -31 14 -9 41 4 41 20 0 8 6 23 12 34 11 17 10 23 -7 39 -19 19 -22 19 -54 4z"/>
<path d="M4928 1573 c7 -3 16 -2 19 1 4 3 -2 6 -13 5 -11 0 -14 -3 -6 -6z"/>
<path d="M5090 1310 c0 -5 7 -10 16 -10 8 0 12 5 9 10 -3 6 -10 10 -16 10 -5
0 -9 -4 -9 -10z"/>
<path d="M5250 1310 c0 -5 5 -10 11 -10 5 0 7 5 4 10 -3 6 -8 10 -11 10 -2 0
-4 -4 -4 -10z"/>
<path d="M5290 1270 c0 -5 7 -10 16 -10 8 0 12 5 9 10 -3 6 -10 10 -16 10 -5
0 -9 -4 -9 -10z"/>
<path d="M5360 1250 c0 -5 17 -10 38 -10 27 0 33 3 22 10 -20 13 -60 13 -60 0z"/>
<path d="M5650 2520 c0 -5 5 -10 10 -10 6 0 10 5 10 10 0 6 -4 10 -10 10 -5 0
-10 -4 -10 -10z"/>
<path d="M5870 1920 c0 -5 5 -10 10 -10 6 0 10 5 10 10 0 6 -4 10 -10 10 -5 0
-10 -4 -10 -10z"/>
<path d="M5715 1590 c3 -5 10 -10 16 -10 5 0 9 5 9 10 0 6 -7 10 -16 10 -8 0
-12 -4 -9 -10z"/>
<path d="M1277 5486 c-83 -30 -138 -82 -177 -168 -19 -42 -20 -72 -20 -1113
l0 -1070 28 -60 c32 -67 83 -117 151 -149 46 -21 53 -21 881 -21 946 0 888 -5
981 82 63 59 91 126 97 231 l5 82 -202 0 c-200 0 -201 0 -206 23 -6 28 -166
684 -204 842 l-30 120 0 -492 -1 -493 -200 0 -200 0 0 1100 0 1100 -432 0
c-338 -1 -441 -4 -471 -14z"/>
<path d="M2586 5478 c4 -13 10 -36 14 -53 4 -16 33 -127 65 -245 31 -118 82
-307 112 -420 29 -113 55 -209 58 -215 2 -5 4 207 4 473 l1 482 -131 0 -130 0
7 -22z"/>
<path d="M3204 5153 c3 -10 53 -223 111 -473 58 -250 112 -482 120 -516 12
-46 15 -132 15 -372 l0 -312 170 0 170 0 0 314 0 314 95 393 c53 217 110 455
128 529 l33 135 -159 3 c-88 1 -162 1 -164 -1 -5 -6 -37 -199 -68 -412 -14
-99 -28 -193 -32 -210 -4 -20 -15 40 -33 180 -15 116 -35 263 -45 328 l-18
117 -164 0 c-152 0 -164 -1 -159 -17z"/>
</g>
</svg>
