<?xml version="1.0" standalone="no"?>
<!DOCTYPE svg PUBLIC "-//W3C//DTD SVG 20010904//EN"
 "http://www.w3.org/TR/2001/REC-SVG-20010904/DTD/svg10.dtd">
<svg version="1.0" xmlns="http://www.w3.org/2000/svg"
 width="3024.000000pt" height="3024.000000pt" viewBox="0 0 3024.000000 3024.000000"
 preserveAspectRatio="xMidYMid meet">

<g transform="translate(0.000000,3024.000000) scale(0.100000,-0.100000)"
fill="#A0522D" stroke="none">
<path d="M0 15120 l0 -15120 15120 0 15120 0 0 15120 0 15120 -15120 0 -15120
0 0 -15120z m30215 0 l0 -15095 -15095 0 -15095 0 -3 15085 c-1 8297 0 15091
3 15098 3 10 3028 12 15097 10 l15093 -3 0 -15095z"/>
<path d="M16715 26800 c-1068 -69 -1939 -352 -3234 -1052 -803 -435 -1086
-625 -1327 -894 -142 -159 -651 -782 -930 -1139 -1312 -1679 -2016 -3021
-2329 -4440 -103 -470 -144 -814 -152 -1293 -8 -473 15 -757 94 -1166 l36
-190 -31 -225 c-83 -587 -111 -960 -119 -1566 -3 -236 -8 -424 -10 -417 -6 15
-45 16 -60 1 -6 -6 -7 -26 -2 -52 33 -179 35 -521 4 -747 -69 -499 -238 -890
-678 -1565 -222 -341 -391 -614 -477 -768 -190 -345 -306 -655 -357 -953 -24
-147 -24 -473 0 -624 74 -446 80 -551 46 -830 -22 -178 -24 -233 -24 -645 0
-541 23 -2087 35 -2415 10 -255 22 -324 69 -418 87 -171 282 -244 438 -163
107 54 161 191 134 336 -15 80 -60 171 -166 339 -165 262 -175 307 -205 916
-35 706 -45 1191 -31 1552 21 588 70 1043 133 1238 42 130 115 237 190 276
108 56 242 4 304 -118 52 -103 84 -311 84 -547 0 -270 -45 -491 -156 -768 -77
-192 -89 -263 -60 -350 62 -187 299 -182 385 7 25 55 27 155 6 283 -28 172
-38 376 -26 532 13 163 45 349 67 383 31 47 86 15 133 -77 30 -59 40 -105 75
-385 23 -181 39 -274 50 -290 35 -54 152 -41 207 22 29 33 31 39 27 96 -3 47
-15 83 -53 161 -77 159 -72 230 20 301 50 38 124 44 188 16 167 -74 260 -256
301 -587 23 -187 28 -328 17 -476 -22 -273 -67 -466 -176 -743 -74 -189 -89
-256 -83 -368 3 -68 10 -93 33 -136 64 -117 188 -168 306 -127 67 24 105 59
141 132 l33 68 6 365 c5 312 9 382 28 485 35 193 109 501 131 545 35 69 87 77
151 23 76 -64 79 -155 12 -321 -47 -116 -48 -118 -47 -227 0 -95 14 -179 98
-625 119 -628 116 -611 116 -685 -1 -92 -15 -137 -96 -307 -59 -122 -77 -169
-81 -215 -13 -144 58 -229 202 -241 81 -6 158 17 213 64 77 66 86 111 62 324
-14 120 -8 209 21 330 27 110 104 269 168 345 57 66 76 118 67 180 -4 22 -35
99 -69 170 -59 125 -62 133 -62 207 0 74 1 78 34 112 44 45 89 60 161 53 140
-12 233 -118 261 -296 15 -98 0 -211 -47 -368 -77 -259 -96 -344 -97 -443 -2
-109 11 -154 54 -196 25 -24 37 -28 82 -28 63 1 122 29 165 79 18 20 32 39 32
43 1 4 5 27 10 52 6 30 4 98 -6 200 -15 154 -13 218 8 315 52 240 287 355 430
211 80 -79 114 -217 105 -426 -9 -214 -54 -359 -185 -590 -113 -201 -134 -288
-88 -385 57 -124 191 -170 295 -102 53 35 76 95 67 174 -3 32 -9 101 -12 154
-6 89 -5 101 18 151 14 30 57 99 97 153 78 108 111 170 199 381 77 187 134
284 208 358 181 183 416 188 519 12 13 -23 30 -74 37 -114 11 -64 10 -84 -5
-160 -24 -113 -65 -209 -211 -482 -156 -292 -281 -559 -302 -639 -27 -106 0
-187 72 -217 100 -42 266 19 344 128 44 60 59 123 76 313 23 258 38 291 214
475 57 60 114 131 132 165 l33 60 0 160 c1 172 6 199 51 240 22 21 37 25 86
25 228 0 322 -291 223 -698 -45 -184 -86 -281 -248 -582 -88 -165 -112 -300
-72 -420 48 -145 200 -205 347 -138 76 35 103 75 103 153 0 51 -7 75 -48 161
-60 128 -74 199 -57 300 6 41 51 206 100 367 162 538 263 862 271 871 21 24
131 -79 175 -165 119 -236 125 -787 13 -1288 -40 -177 -39 -275 4 -340 51 -77
153 -102 237 -58 85 45 100 130 53 302 -25 91 -28 115 -28 270 0 155 3 179 28
267 55 194 149 387 300 618 l74 112 6 -39 c12 -73 7 -352 -9 -475 -9 -67 -29
-172 -44 -233 -17 -69 -24 -114 -18 -120 15 -16 100 -11 141 9 79 39 110 132
88 261 -7 38 -12 121 -12 185 0 285 105 566 350 935 36 55 337 462 669 904
l602 804 228 137 c1176 707 1928 1282 2553 1955 46 50 77 82 70 73 -12 -16
-11 -18 15 -18 22 0 25 -3 16 -12 -7 -7 -12 -15 -12 -19 0 -13 228 -19 352
-10 516 41 1035 296 1477 726 351 341 622 719 1026 1430 121 212 212 397 244
495 28 85 51 195 51 243 0 34 7 45 52 85 44 40 62 69 124 197 211 440 407
1052 558 1740 117 535 341 1777 420 2325 189 1311 164 2291 -80 3170 -241 865
-689 1791 -1370 2827 -352 536 -512 742 -803 1034 -343 344 -669 594 -1076
827 -741 423 -1427 611 -2570 707 -224 19 -940 28 -1150 15z m-1346 -3091 c72
-24 137 -70 163 -115 10 -17 27 -72 38 -121 11 -50 23 -98 26 -108 6 -14 1
-13 -29 6 -27 18 -45 44 -75 111 -30 66 -47 90 -66 98 -15 5 -26 17 -26 29 0
29 -25 44 -62 38 -29 -5 -40 0 -83 38 l-50 45 51 0 c27 0 78 -10 113 -21z
m-206 -66 c45 -42 95 -89 111 -104 l30 -28 -78 24 c-42 14 -83 25 -90 25 -9 0
-12 7 -9 21 4 12 0 25 -8 30 -14 9 -57 2 -74 -12 -6 -4 -26 7 -47 27 -34 31
-36 37 -26 64 9 28 13 30 60 30 48 0 52 -2 131 -77z m512 25 c33 -16 94 -56
135 -89 123 -96 247 -176 327 -209 42 -18 225 -70 407 -116 823 -211 1155
-338 2051 -787 222 -111 320 -165 344 -191 26 -27 43 -36 68 -36 21 0 66 -19
125 -51 348 -193 604 -383 845 -626 99 -100 141 -152 228 -284 81 -124 104
-166 99 -183 -15 -48 -47 -86 -95 -110 -47 -23 -58 -25 -157 -20 -70 4 -119 1
-143 -6 -28 -10 -52 -10 -99 -2 -35 7 -65 14 -68 17 -3 3 4 12 16 21 12 8 22
21 22 27 0 8 20 12 61 12 47 0 64 4 73 17 18 28 -1 36 -134 54 -164 23 -534
23 -708 1 -77 -10 -132 -12 -145 -7 -16 6 -4 9 44 9 70 1 94 14 87 48 -3 16
-18 18 -163 19 -145 1 -163 0 -188 -18 -15 -11 -59 -35 -98 -54 -171 -83 -277
-175 -330 -288 -30 -63 -29 -82 4 -92 12 -4 42 -25 67 -48 57 -53 135 -103
250 -161 124 -62 212 -97 453 -176 244 -81 328 -103 462 -123 182 -28 544
-137 712 -216 74 -35 102 -57 294 -239 117 -110 221 -201 233 -203 23 -3 59
-53 133 -188 66 -118 91 -189 72 -200 -31 -20 54 -524 149 -890 36 -140 38
-145 65 -148 18 -2 29 2 33 13 4 9 -16 109 -44 223 -49 198 -89 395 -112 547
-22 154 -22 145 -2 94 11 -25 22 -77 26 -115 21 -204 92 -363 246 -549 120
-144 199 -218 264 -246 l57 -24 -5 -40 c-3 -22 -15 -143 -26 -270 -12 -126
-25 -243 -30 -260 -15 -53 -23 -413 -25 -1110 -1 -585 -3 -697 -18 -805 -25
-175 -63 -359 -87 -415 -11 -26 -18 -51 -15 -56 17 -26 -264 -788 -363 -984
-78 -156 -143 -316 -136 -337 3 -12 -7 -49 -25 -91 -16 -40 -62 -148 -101
-242 -354 -840 -709 -1486 -1095 -1994 -463 -610 -1081 -1189 -1830 -1716
-445 -314 -1196 -785 -1250 -785 -18 0 -38 -12 -59 -34 -33 -36 -230 -156
-256 -156 -8 0 1 10 20 22 247 152 586 405 568 424 -16 15 -61 -10 -159 -91
-314 -259 -709 -485 -1081 -619 -60 -22 -78 -32 -78 -47 0 -23 18 -24 48 -3
23 16 138 64 154 64 47 0 -93 -67 -267 -128 -44 -15 -79 -33 -78 -39 2 -7 -6
-15 -17 -18 -28 -9 -25 -35 4 -35 13 0 46 9 73 21 91 39 148 60 138 51 -5 -5
-91 -53 -190 -105 -172 -90 -267 -126 -301 -113 -40 15 -213 -45 -298 -103
-25 -17 -53 -31 -64 -31 -11 0 -38 -7 -61 -15 -44 -15 -47 -13 -42 39 1 15 -4
17 -25 13 -39 -7 -14 12 48 37 63 26 168 93 175 113 8 21 -4 27 -26 12 -83
-61 -116 -82 -148 -95 l-36 -15 32 43 c17 24 59 71 91 104 33 34 60 64 60 68
0 3 -18 6 -40 6 -23 0 -40 -5 -40 -11 0 -6 7 -8 16 -5 9 3 -11 -23 -44 -59
-33 -36 -75 -88 -94 -115 -22 -32 -41 -50 -57 -52 -27 -3 -42 -28 -17 -28 9 0
16 -3 16 -6 0 -11 -41 -64 -50 -64 -5 0 -26 -12 -47 -26 -35 -23 -44 -25 -106
-19 -49 5 -72 3 -85 -6 -9 -7 7 10 36 37 56 54 67 84 30 84 -36 0 -2 18 49 26
23 3 50 13 60 21 16 13 12 14 -37 8 -74 -8 -169 -54 -230 -111 -27 -26 -50
-44 -50 -40 0 13 53 111 76 142 28 36 29 44 10 44 -8 0 -28 -16 -44 -36 l-30
-36 -4 42 c-4 41 -2 43 32 58 46 19 146 27 191 14 36 -10 71 0 55 15 -4 4 -44
10 -88 12 -113 5 -194 -19 -281 -82 -37 -27 -70 -48 -72 -45 -2 2 7 22 20 45
19 32 30 40 45 36 11 -3 20 0 20 6 0 6 -4 11 -10 11 -22 0 -7 22 60 90 51 51
65 70 52 70 -27 0 -99 -66 -152 -139 -24 -33 -46 -59 -47 -57 -2 2 6 30 18 62
27 74 112 162 182 189 54 20 61 35 17 35 -32 0 -136 -65 -173 -109 -43 -50
-99 -62 -211 -43 l-40 7 52 43 c51 43 63 62 41 62 -6 0 -24 -9 -40 -21 -22
-15 -27 -17 -23 -5 11 29 -22 17 -87 -32 l-64 -49 -114 -6 c-113 -7 -114 -7
-96 13 20 22 130 80 152 80 8 0 13 6 10 13 -9 28 -119 -17 -197 -82 -25 -21
-56 -40 -69 -44 l-23 -6 22 24 c13 14 18 25 11 29 -14 9 -40 -5 -70 -38 -14
-14 -31 -26 -39 -26 -8 0 -12 -6 -8 -15 3 -9 0 -15 -9 -15 -19 0 -66 -51 -101
-111 -31 -52 -44 -61 -44 -29 0 10 -5 30 -12 44 -9 22 -6 39 22 111 18 47 30
88 27 92 -13 12 -130 9 -134 -4 -3 -9 10 -13 46 -13 l51 0 -21 -52 c-26 -67
-31 -71 -55 -54 -18 14 -18 15 9 38 27 24 36 48 17 48 -6 0 -25 -6 -43 -13
-18 -8 -50 -17 -72 -21 l-40 -7 70 64 c57 53 67 66 53 72 -12 5 -33 -6 -70
-38 -59 -50 -82 -57 -116 -38 -13 7 -51 16 -85 19 l-62 7 49 14 c37 11 53 12
67 3 27 -17 39 -15 39 8 0 17 7 20 40 20 27 0 40 4 40 14 0 10 -12 12 -50 8
-43 -4 -53 -1 -81 22 -84 71 -196 92 -304 58 -44 -15 -62 -17 -67 -8 -13 20
-9 125 7 163 19 45 19 45 -7 41 -14 -2 -25 -15 -35 -43 -16 -48 -19 -51 -60
-58 -30 -6 -33 -4 -33 19 0 33 -59 94 -91 95 -18 0 -52 33 -132 130 -60 71
-113 129 -118 129 -33 0 -11 -39 80 -147 92 -107 100 -119 84 -130 -10 -7 -27
-22 -39 -33 -19 -17 -23 -18 -40 -5 -12 9 -14 14 -6 15 23 0 2 20 -21 20 -21
0 -252 148 -244 156 7 7 60 -16 100 -43 30 -21 40 -24 50 -14 20 21 -45 67
-122 87 -93 24 -134 52 -155 108 -14 37 -15 50 -6 61 10 12 9 15 -7 15 -14 0
-23 11 -32 40 -6 22 -18 40 -25 40 -18 0 -66 -71 -66 -98 0 -15 -5 -20 -15
-16 -8 4 -17 -1 -21 -10 -8 -21 -84 -23 -84 -2 0 14 39 52 95 93 17 12 27 25
23 28 -15 16 -57 -7 -111 -61 -43 -43 -60 -54 -76 -49 -16 5 -21 15 -21 41 0
39 -26 48 -39 13 -7 -20 -10 -19 -43 22 -57 70 -82 134 -82 211 -1 56 -4 68
-17 68 -32 0 -38 -61 -15 -150 14 -52 13 -56 -10 -103 -14 -26 -28 -73 -32
-103 -4 -30 -11 -53 -17 -52 -5 2 -9 9 -7 16 2 6 -4 12 -13 12 -8 0 -15 5 -15
10 0 25 -42 8 -62 -26 -28 -47 -37 -29 -25 51 6 41 5 85 -1 122 -11 65 -9 73
18 73 10 0 22 4 25 10 4 6 -10 10 -34 10 -30 0 -41 4 -41 15 0 9 -9 15 -25 15
-26 0 -30 6 -16 29 6 9 11 10 15 2 10 -15 20 -14 44 8 26 22 30 47 6 33 -22
-12 -54 -4 -54 14 0 7 14 29 31 49 26 29 38 35 70 35 28 0 39 4 39 15 0 8 -8
15 -17 16 -10 0 0 7 22 15 25 10 64 14 104 12 73 -3 98 16 36 28 -58 11 -138
-2 -195 -31 -30 -15 -70 -33 -91 -40 -33 -12 -38 -12 -44 3 -8 21 48 72 111
103 49 23 59 45 17 34 -33 -8 -113 -57 -138 -85 -14 -16 -26 -19 -52 -14 -25
5 -33 3 -33 -9 0 -8 7 -18 16 -21 27 -10 11 -26 -51 -51 l-59 -25 -33 32 c-18
18 -36 47 -39 65 -3 18 -10 36 -15 38 -4 3 -6 12 -2 20 3 10 -1 15 -12 15 -14
0 -16 9 -12 68 2 37 7 77 12 90 10 29 -19 31 -35 2 -33 -62 -28 -169 11 -243
18 -36 79 -277 79 -316 0 -9 -10 -22 -22 -30 -21 -13 -22 -13 -9 3 13 15 13
19 0 27 -8 5 -20 9 -27 9 -9 0 -11 7 -7 19 3 11 2 28 -3 38 -18 35 -59 228
-51 234 10 6 8 51 -2 59 -4 3 -36 70 -72 150 -35 80 -113 242 -172 361 -59
119 -108 229 -108 245 -3 40 -35 71 -72 70 -32 -1 -32 -2 -21 -71 4 -26 -5
-10 -27 50 -50 133 -51 135 -33 135 9 0 16 7 16 16 0 11 -6 15 -19 11 -15 -3
-22 4 -34 34 -14 35 -34 49 -50 33 -3 -3 -1 -18 4 -32 6 -14 6 -28 1 -31 -5
-3 -14 -16 -20 -27 -8 -15 -18 -20 -35 -17 -19 4 -26 0 -31 -19 l-7 -23 -13
25 c-7 14 -22 80 -32 148 -15 101 -21 122 -36 122 -12 0 -18 -10 -20 -37 l-3
-38 -27 57 c-19 41 -34 59 -51 63 -19 5 -27 18 -39 61 -9 30 -12 57 -7 60 14
8 11 24 -4 24 -8 0 -22 34 -37 91 l-23 91 -33 -5 c-30 -5 -32 -3 -37 26 -4 24
0 36 15 48 24 19 15 43 -13 34 -14 -5 -20 0 -25 22 -4 15 -20 75 -35 132 -25
93 -26 106 -13 126 18 27 9 53 -18 57 -17 2 -26 22 -50 102 -16 54 -37 106
-47 115 -11 9 -21 31 -25 49 -5 28 -2 34 19 44 28 12 28 34 1 32 -10 -1 -16 6
-16 20 0 12 -9 27 -20 34 -11 7 -20 20 -20 30 0 35 -181 747 -199 782 -10 19
-21 55 -24 80 -4 25 -18 123 -32 219 -71 489 -105 949 -112 1516 -6 445 3 731
33 1105 118 1489 538 2993 1121 4015 98 171 214 356 257 410 53 66 120 164
188 275 52 86 202 301 319 459 12 17 27 27 32 24 6 -3 7 -1 3 5 -3 6 42 80
102 164 59 84 157 225 217 313 74 110 170 230 304 383 108 123 196 231 196
240 0 9 -11 19 -24 22 -23 5 -17 14 104 165 208 259 250 303 424 440 90 72
220 174 287 228 123 98 124 98 149 81 25 -16 29 -16 110 20 46 21 92 36 102
34 11 -2 -80 -55 -224 -132 -135 -72 -243 -135 -243 -142 0 -26 50 -14 145 36
52 27 95 48 95 47 0 -2 -20 -18 -45 -36 -25 -18 -45 -39 -45 -47 0 -25 54 -16
101 17 233 162 435 256 754 349 l110 33 221 -6 222 -6 66 -32 c56 -27 80 -47
152 -131 104 -120 169 -173 237 -193 64 -19 211 -18 249 1 47 24 114 29 143
10 33 -22 32 -30 -6 -41 -17 -6 -32 -14 -32 -20 -1 -5 21 -22 48 -38 l50 -28
-66 7 c-74 7 -109 -5 -109 -36 0 -21 5 -23 160 -40 149 -17 423 -61 439 -70
11 -6 10 -10 -8 -19 -26 -14 -25 -48 1 -64 23 -15 68 6 68 33 0 11 3 20 6 20
4 0 74 -21 158 -46 215 -65 280 -98 359 -185 l65 -71 36 12 c46 15 137 97 169
153 44 74 60 158 54 282 -5 116 -25 198 -76 310 l-28 60 23 205 c12 112 20
208 18 212 -8 12 -58 9 -77 -5 -13 -9 -21 -41 -31 -130 -8 -65 -16 -121 -19
-123 -15 -15 -30 53 -38 165 -4 69 -8 127 -8 129 -3 9 -60 -1 -78 -13 -21 -14
-21 -13 -38 63 -33 156 -54 211 -98 259 l-42 46 30 -7 c16 -4 57 -21 90 -38z
m-1808 -44 c-3 -3 -12 -4 -19 -1 -8 3 -5 6 6 6 11 1 17 -2 13 -5z m318 -149
c39 -13 60 -23 47 -24 -23 -1 -172 47 -172 55 0 6 44 -5 125 -31z m1075 -25
c21 -11 21 -13 5 -30 -17 -19 -19 -18 -76 26 -33 25 -59 47 -59 49 0 5 102
-30 130 -45z m99 -119 c1 -11 -2 -11 -14 -1 -16 13 -20 42 -8 54 8 7 20 -23
22 -53z m-1999 14 c-29 -17 -50 -19 -50 -6 0 10 23 18 55 19 17 1 17 -1 -5
-13z m1263 -126 c-8 -8 -16 -8 -30 0 -16 9 -14 10 12 11 21 0 26 -3 18 -11z
m1065 -72 c38 -71 43 -89 40 -132 l-3 -50 -55 124 c-30 68 -56 128 -58 132 -2
5 5 9 15 9 12 0 31 -25 61 -83z m-2698 33 c0 -14 -65 -45 -149 -70 -40 -12
-81 -24 -90 -27 -11 -4 -13 -3 -6 5 15 16 206 102 228 102 9 0 17 -4 17 -10z
m515 -8 c36 -7 29 -9 -80 -29 -124 -23 -228 -37 -209 -28 24 12 210 64 229 64
11 0 38 -3 60 -7z m1235 -16 c0 -2 -9 -2 -20 1 -11 3 -20 9 -20 15 0 5 9 4 20
-2 11 -6 20 -12 20 -14z m-850 -46 c0 -5 -2 -10 -4 -10 -3 0 -8 5 -11 10 -3 6
-1 10 4 10 6 0 11 -4 11 -10z m788 -49 c45 -25 80 -46 78 -48 -7 -7 -151 64
-166 82 -18 22 -15 21 88 -34z m-1893 -24 c-26 -18 -228 -108 -232 -103 -11
11 87 69 153 89 92 30 106 32 79 14z m2438 -86 c32 -24 56 -45 54 -48 -3 -2
-22 1 -44 7 -25 8 -47 24 -65 50 -30 41 -36 59 -15 43 6 -6 38 -29 70 -52z
m-2312 -6 c-42 -19 -52 -19 -27 0 11 8 29 15 40 15 16 -1 12 -5 -13 -15z
m1421 -81 c200 -59 249 -78 121 -48 -75 18 -117 14 -127 -13 -10 -24 11 -37
88 -52 36 -7 66 -17 66 -22 0 -15 -128 -10 -165 5 -51 22 -97 59 -162 134 -39
44 -51 64 -38 60 11 -3 109 -32 217 -64z m475 -121 c-1 -1 -14 1 -29 4 -23 4
-25 8 -16 23 11 17 12 17 29 -4 9 -11 17 -22 16 -23z m1125 -90 c7 -17 12 -84
12 -163 0 -119 -2 -142 -23 -190 -24 -58 -66 -120 -81 -120 -5 0 -14 9 -20 20
-9 17 -7 24 12 40 19 15 21 22 12 37 -6 9 -22 20 -35 23 -23 6 -23 7 -5 17 29
16 13 40 -33 48 -42 7 -49 13 -30 32 9 9 -6 103 -26 154 -5 12 1 14 30 11 42
-5 65 11 65 47 0 21 8 30 48 48 61 28 60 28 74 -4z m-1089 -43 c22 0 45 -11
72 -35 l40 -35 -53 20 c-54 20 -143 66 -109 56 10 -3 33 -6 50 -6z m623 -47
c23 -24 27 -25 63 -15 49 15 49 15 47 -5 0 -10 9 -22 22 -28 26 -12 40 -51 23
-68 -15 -15 -14 -27 4 -27 8 0 15 -5 15 -11 0 -7 -9 -9 -22 -5 -13 3 -31 6
-40 6 -13 0 -18 8 -18 30 0 27 -3 30 -32 30 -17 0 -40 -7 -49 -16 -17 -15 -28
-15 -154 10 -138 26 -165 36 -222 78 l-31 24 126 -4 c92 -2 139 1 172 11 63
21 68 20 96 -10z m281 -263 c16 0 21 -4 17 -15 -8 -20 -17 -19 -56 6 -29 18
-30 20 -8 15 14 -3 35 -6 47 -6z m-4357 -419 c-5 -11 -15 -23 -21 -27 -6 -3
-3 5 6 20 20 30 30 35 15 7z m-50 -74 c0 -2 -10 -12 -22 -23 l-23 -19 19 23
c18 21 26 27 26 19z m8570 -82 c13 -14 21 -25 18 -25 -2 0 -15 11 -28 25 -13
14 -21 25 -18 25 2 0 15 -11 28 -25z m-9090 -679 c0 -2 -8 -10 -17 -17 -16
-13 -17 -12 -4 4 13 16 21 21 21 13z m7900 -26 c0 -23 -17 -25 -43 -5 -20 14
-21 13 36 24 4 0 7 -8 7 -19z m250 0 c0 -5 -10 -10 -22 -10 -13 0 -48 -2 -78
-5 l-55 -4 60 13 c76 17 95 19 95 6z m-351 -19 c-33 -25 -70 -44 -76 -38 -5 6
77 57 91 57 5 0 -2 -8 -15 -19z m711 10 c0 -5 -9 -13 -20 -16 -11 -3 -20 -12
-20 -20 0 -20 -57 -24 -111 -8 -82 24 -68 31 91 46 19 2 41 5 48 5 6 1 12 -2
12 -7z m-551 -30 c-20 -16 -21 -21 -10 -35 7 -9 22 -16 32 -16 11 0 19 -5 19
-11 0 -7 -9 -9 -21 -6 -25 7 -51 -2 -43 -14 3 -5 17 -9 32 -9 15 -1 38 -7 52
-15 23 -13 14 -14 -89 -9 -63 3 -128 11 -144 17 l-29 12 76 40 c42 22 86 46
98 52 36 20 53 15 27 -6z m1541 -31 c0 -27 -3 -30 -32 -30 -18 0 -43 3 -56 6
-20 6 -18 9 25 29 62 30 63 30 63 -5z m144 -46 c3 -8 2 -12 -4 -9 -6 3 -10 10
-10 16 0 14 7 11 14 -7z m-1902 -37 c49 -23 51 -35 11 -56 -13 -6 -23 -16 -23
-21 0 -22 46 -9 70 19 25 29 26 30 84 19 49 -9 56 -12 40 -20 -10 -6 -30 -17
-44 -26 -15 -10 -43 -15 -72 -13 -29 1 -48 -2 -48 -8 0 -6 7 -11 16 -11 8 0
13 -4 9 -9 -3 -6 3 -15 13 -20 14 -7 18 -18 14 -36 -3 -18 1 -31 14 -41 11 -9
13 -13 6 -9 -7 3 -25 0 -41 -8 -27 -13 -31 -12 -87 26 -78 52 -110 83 -129
123 -15 32 -15 35 11 74 24 36 31 40 68 40 22 0 62 -10 88 -23z m-7911 -50
c-10 -9 -11 -8 -5 6 3 10 9 15 12 12 3 -3 0 -11 -7 -18z m8544 -37 c-13 -13
-28 -17 -42 -14 -33 9 -28 22 10 27 17 2 36 5 42 5 5 1 1 -7 -10 -18z m-245
-21 c92 -17 104 -26 47 -34 -50 -8 -109 -2 -166 17 l-34 11 29 12 c16 7 36 12
44 10 8 -2 44 -9 80 -16z m967 15 c-3 -3 -12 -4 -19 -1 -8 3 -5 6 6 6 11 1 17
-2 13 -5z m274 -84 c-12 -13 -21 -14 -38 -7 -13 6 -23 16 -23 24 0 9 -13 13
-39 13 -53 0 -70 8 -64 30 5 17 10 16 92 -13 80 -28 86 -32 72 -47z m-1336 9
c13 -13 -3 -10 -45 7 l-35 14 35 -6 c19 -3 39 -10 45 -15z m285 -9 c0 -6 -11
-8 -27 -4 -40 10 -41 14 -5 14 18 0 32 -5 32 -10z m-310 -26 l35 -14 -35 6
c-19 4 -46 13 -60 21 l-25 14 25 -7 c14 -4 41 -13 60 -20z m-70 -25 c10 -6 6
-8 -14 -4 -16 2 -34 9 -40 16 -8 8 -5 9 14 4 14 -4 32 -11 40 -16z m137 5 c-3
-3 -12 -4 -19 -1 -8 3 -5 6 6 6 11 1 17 -2 13 -5z m1044 -50 c71 -21 80 -31
35 -39 -25 -5 -51 -2 -82 10 -41 16 -44 18 -27 31 10 7 18 14 19 14 0 0 25 -7
55 -16z m500 -50 l24 -27 -33 17 c-18 9 -30 21 -27 26 8 13 8 13 36 -16z
m-1294 10 c-3 -3 -12 -4 -19 -1 -8 3 -5 6 6 6 11 1 17 -2 13 -5z m-190 -20
c-3 -3 -12 -4 -19 -1 -8 3 -5 6 6 6 11 1 17 -2 13 -5z m83 -20 l35 -14 -35 6
c-19 4 -44 10 -55 15 l-20 8 20 0 c11 0 36 -7 55 -15z m1110 -22 c-7 -3 -19 3
-28 13 -16 15 -15 16 12 4 15 -7 23 -15 16 -17z m360 -102 l35 -29 -31 8 c-39
11 -84 40 -84 54 0 5 -8 16 -17 24 -10 8 0 5 22 -7 22 -12 56 -34 75 -50z
m-1440 30 c18 -12 2 -12 -25 0 -13 6 -15 9 -5 9 8 0 22 -4 30 -9z m178 -31
c53 -5 108 -16 122 -23 14 -7 85 -30 159 -52 74 -21 129 -40 122 -42 -13 -4
-43 2 -316 69 -251 63 -260 67 -87 48z m1102 -27 c19 -14 37 -27 39 -29 2 -2
2 -5 -1 -8 -3 -3 -36 13 -74 35 -60 36 -64 40 -34 34 19 -3 51 -18 70 -32z
m-301 -68 c14 -12 -19 -1 -35 12 -18 14 -18 14 6 3 14 -6 27 -13 29 -15z m517
-231 c-4 -5 -86 56 -86 64 0 2 21 -10 46 -27 25 -18 43 -34 40 -37z m-186 -28
c19 -19 32 -35 29 -35 -3 0 -20 16 -39 35 -19 19 -32 35 -29 35 3 0 20 -16 39
-35z m498 -422 c29 -34 48 -64 43 -67 -5 -3 -26 18 -47 46 -21 29 -60 80 -87
113 -48 59 -48 59 -6 14 24 -25 68 -73 97 -106z m225 -393 c-3 -11 -7 -20 -8
-20 -1 0 -5 9 -8 20 -3 12 0 20 8 20 8 0 11 -8 8 -20z m574 -3102 c-2 -13 -4
-5 -4 17 -1 22 1 32 4 23 2 -10 2 -28 0 -40z m-313 -1464 c-25 -71 -55 -156
-67 -189 -12 -33 -23 -53 -25 -44 -1 9 15 61 36 115 21 55 52 134 67 177 15
42 30 76 32 74 2 -3 -17 -62 -43 -133z m-12594 -1104 c6 -69 14 -140 17 -157
4 -27 2 -33 -13 -33 -29 0 -82 -36 -105 -72 -12 -18 -19 -26 -16 -17 33 100
85 419 88 532 2 54 1 58 29 -253z m-112 -485 c-6 -16 -33 -61 -58 -100 -25
-38 -75 -117 -110 -175 -88 -146 -90 -144 -17 10 58 121 156 370 158 402 0 7
9 -14 20 -47 16 -50 17 -65 7 -90z m286 -719 c21 -103 47 -232 60 -287 19 -80
21 -99 10 -103 -20 -8 -17 -27 12 -70 18 -26 43 -103 79 -244 55 -212 157
-556 220 -741 19 -58 35 -117 35 -132 0 -14 7 -32 15 -39 12 -10 13 -16 4 -27
-9 -10 -8 -17 3 -31 8 -9 20 -38 27 -65 6 -26 20 -56 31 -67 11 -11 22 -32 26
-47 5 -26 15 -52 44 -115 10 -20 10 -55 1 -159 -7 -72 -13 -137 -14 -143 -1
-6 11 -12 26 -14 22 -3 27 -7 22 -20 -18 -43 -26 -86 -23 -120 3 -33 6 -37 28
-33 31 4 39 17 41 61 1 45 15 82 22 60 15 -44 16 -98 2 -110 -21 -18 -19 -40
5 -40 14 0 20 -7 20 -24 0 -13 5 -26 10 -28 7 -2 4 -33 -9 -88 -17 -71 -26
-89 -52 -111 -32 -26 -27 -48 7 -35 13 5 14 -4 9 -57 -4 -34 -8 -67 -10 -74
-6 -18 19 -33 43 -26 24 6 27 16 37 107 9 76 13 86 36 86 14 0 19 8 20 28 1
15 3 20 6 11 2 -9 -6 -54 -18 -100 -34 -135 -34 -129 -10 -129 11 0 29 8 39
18 10 10 28 16 44 14 34 -4 48 25 48 101 l0 51 51 -89 c28 -50 56 -96 61 -103
9 -11 6 -193 -4 -257 -2 -15 3 -21 24 -23 34 -4 46 18 55 98 3 33 9 60 12 60
4 0 24 -18 46 -40 l39 -40 -53 -51 c-66 -64 -158 -123 -233 -150 -58 -22 -75
-39 -38 -39 56 0 199 79 280 155 56 52 70 57 97 35 21 -16 21 -19 7 -85 -10
-49 -11 -70 -3 -75 8 -5 8 -18 0 -46 -6 -22 -11 -63 -11 -91 0 -52 1 -53 30
-53 33 0 35 5 44 97 5 49 48 153 64 153 19 -1 41 -30 47 -63 4 -20 11 -37 16
-37 6 0 7 -21 3 -49 -5 -36 -2 -58 11 -86 20 -42 34 -50 70 -41 28 7 32 27 10
46 -18 15 -21 100 -4 100 6 0 9 9 6 20 -3 11 -4 20 -3 20 2 0 54 -56 117 -125
63 -70 121 -125 131 -125 13 0 18 -8 18 -25 0 -24 2 -25 40 -19 27 4 40 3 40
-5 0 -6 6 -11 14 -11 8 0 17 -13 21 -29 7 -33 28 -45 54 -31 13 7 20 26 24 69
7 77 10 82 47 70 l29 -11 -79 -159 c-44 -87 -80 -163 -80 -169 0 -14 46 -12
58 3 5 6 42 76 82 155 41 83 76 142 83 139 7 -2 16 -39 21 -89 7 -76 6 -89
-13 -126 -25 -49 -26 -58 -6 -66 28 -11 44 6 85 91 32 67 38 88 28 94 -9 6 -7
9 8 9 11 0 25 5 32 12 9 9 12 -2 12 -53 0 -53 -4 -68 -20 -82 -22 -18 -19 -37
6 -37 8 0 14 -6 14 -14 0 -8 4 -16 10 -18 6 -2 6 -25 -2 -66 -14 -74 -5 -93
35 -75 20 10 26 22 32 70 l7 58 19 -47 c10 -26 16 -54 13 -63 -4 -10 0 -15 10
-15 25 0 19 -25 -24 -95 -22 -36 -40 -68 -40 -70 0 -12 59 -3 70 10 7 8 20 15
29 15 10 0 26 7 37 15 18 15 17 16 -15 9 l-34 -6 23 38 c47 78 47 78 53 53 4
-14 11 -20 21 -16 10 4 13 1 9 -9 -5 -13 2 -15 43 -8 27 4 52 12 56 18 11 16
16 -9 22 -104 2 -47 10 -98 16 -114 10 -27 12 -28 58 -21 26 4 52 11 57 16 6
6 15 33 20 62 9 46 13 52 40 58 17 4 38 10 47 14 13 5 15 2 11 -14 -4 -16 -1
-21 15 -21 16 0 23 9 30 43 l10 42 1 -47 c1 -35 5 -48 15 -48 8 0 17 -8 20
-18 4 -11 17 -29 31 -42 21 -20 29 -22 49 -12 22 10 25 8 43 -36 22 -52 68
-112 87 -112 7 0 21 6 31 14 18 13 18 16 -17 67 -20 30 -42 73 -48 97 -10 41
-10 45 13 66 14 13 32 37 41 55 21 40 30 39 43 -4 10 -31 9 -35 -7 -35 -26 0
-80 -48 -80 -71 0 -26 50 -80 78 -82 12 -1 22 -7 22 -14 0 -14 60 -19 60 -5 0
4 12 15 26 25 l25 18 -6 -32 c-8 -42 -20 -56 -64 -77 -37 -18 -50 -54 -21 -60
31 -6 124 52 158 98 18 25 36 50 41 56 6 7 11 31 13 55 2 23 8 44 15 46 7 3 9
-3 6 -16 -4 -17 -1 -21 18 -21 22 0 24 -5 27 -56 4 -66 -24 -121 -66 -130 -45
-10 -52 -13 -52 -24 0 -5 13 -10 29 -10 l30 0 -15 -35 c-18 -44 -18 -61 2 -69
19 -7 54 10 54 27 0 7 12 37 26 66 25 50 27 51 41 32 19 -28 36 -26 69 4 15
14 33 25 41 25 7 0 24 24 37 54 21 47 27 54 46 49 22 -6 22 -6 -4 -22 -30 -18
-34 -31 -9 -31 15 0 15 -2 -1 -19 -10 -11 -20 -38 -23 -61 -5 -36 -3 -42 16
-47 26 -7 26 -8 0 -50 -22 -36 -20 -63 6 -63 26 0 62 44 81 98 11 30 26 53 36
55 14 4 18 16 19 54 l2 48 10 -39 c11 -37 12 -38 48 -33 35 5 38 3 57 -37 11
-22 24 -53 27 -69 4 -15 13 -31 20 -35 11 -6 11 -18 -1 -67 -19 -82 -18 -107
3 -103 11 2 20 17 25 43 17 83 16 82 64 94 38 10 45 15 41 31 -6 23 13 26 42
8 15 -9 25 -9 46 0 l27 12 -27 47 -28 46 34 -7 c47 -9 52 -17 34 -59 -9 -21
-15 -67 -15 -110 l0 -74 60 0 c58 -1 96 16 70 32 -11 7 -14 124 -2 141 4 6 18
13 31 17 l23 6 -4 -80 -5 -79 33 0 c18 0 37 6 41 13 4 8 20 17 36 21 l27 7
-15 -37 c-14 -34 -14 -36 6 -41 18 -5 20 -11 16 -39 -6 -38 4 -49 38 -40 18 5
27 17 36 49 16 59 44 112 86 157 28 32 42 40 69 40 31 0 34 -3 34 -30 0 -16 2
-30 4 -30 20 0 36 16 36 36 0 21 4 24 40 24 28 0 43 -5 47 -16 9 -24 -55 -83
-106 -98 -49 -14 -67 -36 -29 -36 25 0 88 29 127 57 24 18 24 18 18 -9 -5 -17
-3 -28 5 -30 9 -3 8 -16 -5 -49 -21 -56 -21 -59 2 -59 14 0 23 11 32 38 7 20
18 46 24 57 7 11 22 50 34 86 17 50 27 68 44 73 26 6 28 4 56 -84 20 -59 27
-70 46 -70 41 0 46 20 23 93 -12 36 -19 69 -16 72 3 3 36 8 74 11 38 3 87 13
108 22 30 13 40 14 44 4 6 -19 28 -14 45 11 8 12 17 20 20 17 3 -3 -21 -53
-53 -110 -55 -96 -58 -105 -39 -108 34 -6 46 4 84 72 20 36 45 68 55 71 12 4
21 19 25 45 7 40 16 52 49 64 19 6 19 6 3 -12 -23 -25 -21 -32 7 -32 23 0 51
22 41 32 -20 20 237 123 266 107 29 -15 55 2 50 34 0 4 11 7 26 8 16 0 73 19
128 43 73 30 99 46 97 58 -2 12 30 30 124 69 69 29 128 59 131 66 3 7 39 32
82 55 201 110 635 357 811 461 22 13 31 16 24 7 -670 -886 -1110 -1479 -1212
-1631 -188 -281 -300 -527 -336 -741 l-13 -73 -6 170 c-8 204 -12 225 -41 225
-30 0 -36 -6 -92 -85 -217 -305 -363 -605 -409 -840 -25 -127 -16 -333 19
-465 40 -149 33 -226 -25 -259 -24 -13 -30 -12 -73 13 -98 58 -115 162 -58
381 65 254 87 458 79 750 -10 369 -62 556 -188 669 -69 62 -171 95 -197 63
-13 -16 -89 -255 -276 -872 -153 -508 -154 -521 -55 -736 65 -139 66 -184 10
-240 -34 -35 -44 -39 -87 -39 -140 0 -235 152 -204 327 16 92 36 141 133 321
96 175 141 282 180 422 41 145 58 263 58 395 1 184 -41 290 -138 354 -124 83
-312 53 -378 -59 -18 -31 -20 -52 -20 -200 0 -160 -1 -166 -27 -217 -15 -28
-79 -106 -142 -173 -118 -125 -167 -200 -185 -282 -6 -25 -17 -118 -25 -206
-8 -89 -20 -179 -27 -201 -28 -95 -145 -201 -221 -201 -73 0 -129 86 -115 174
13 80 127 325 308 661 180 335 238 498 227 638 -24 289 -337 377 -620 174
-123 -88 -195 -196 -293 -437 -72 -179 -102 -237 -179 -348 -135 -196 -154
-246 -135 -362 22 -139 23 -188 4 -229 -25 -57 -52 -68 -106 -44 -89 39 -136
124 -125 221 8 67 33 126 110 262 104 185 154 328 176 504 15 119 8 300 -15
376 -47 158 -172 244 -319 220 -78 -13 -155 -50 -211 -101 -119 -110 -157
-265 -130 -529 17 -167 10 -233 -30 -287 -50 -64 -112 -53 -152 27 -43 84 -26
218 62 505 61 200 81 333 66 440 -20 148 -100 263 -208 299 -59 20 -164 20
-230 1 -110 -33 -166 -103 -166 -207 0 -49 8 -75 65 -195 97 -202 98 -230 12
-337 -105 -131 -183 -334 -199 -522 -5 -57 -2 -121 10 -210 15 -107 16 -137 5
-173 -32 -120 -176 -165 -280 -90 -59 43 -73 78 -68 165 4 65 13 89 81 231 41
87 80 176 86 198 18 65 13 176 -14 312 -13 71 -49 265 -80 433 -30 168 -67
364 -82 435 -19 93 -27 162 -27 240 -1 109 -1 111 47 226 65 161 65 252 -1
322 -40 42 -75 57 -134 57 -97 0 -160 -55 -194 -168 -25 -87 -81 -350 -105
-496 -29 -181 -28 -178 -41 -170 -18 11 -3 244 24 359 21 91 23 122 21 336 -1
130 -7 273 -12 318 -12 92 -101 365 -154 471 -30 61 -35 66 -90 88 -32 13 -67
32 -77 42 -24 24 -39 25 -84 6 -30 -12 -40 -12 -78 1 -69 24 -173 13 -252 -26
-39 -19 -74 -45 -88 -64 -12 -18 -25 -34 -29 -37 -4 -3 -7 -37 -6 -75 2 -63 7
-82 54 -175 l53 -105 -28 -3 c-52 -5 -83 -23 -80 -46 4 -28 59 -34 95 -11 l25
17 -7 -34 c-10 -45 -32 -68 -66 -68 -37 0 -54 33 -63 120 -15 151 -68 494 -82
533 -37 105 -113 166 -190 151 -46 -9 -99 -59 -113 -109 -19 -67 -49 -264 -56
-367 -6 -85 -9 -98 -27 -104 -28 -8 -31 -1 -19 42 37 138 52 469 30 644 -31
255 -84 377 -188 438 -40 24 -56 27 -131 27 -71 -1 -95 -5 -145 -28 -141 -65
-227 -203 -275 -437 -48 -236 -94 -782 -105 -1250 -13 -537 36 -1735 81 -1972
27 -143 69 -236 187 -411 147 -222 179 -370 109 -509 -35 -69 -78 -98 -147
-98 -101 0 -218 89 -272 206 -41 91 -51 182 -57 559 l-5 350 29 -325 c28 -326
44 -419 82 -494 51 -101 100 -138 178 -138 50 0 124 27 153 56 40 40 14 116
-83 247 -70 93 -130 212 -153 302 -9 33 -26 147 -38 255 -12 109 -28 211 -35
228 -9 20 -16 103 -20 247 l-7 217 -39 0 c-22 0 -47 -4 -57 -10 -17 -8 -18 8
-24 293 -4 166 -10 556 -13 867 -6 531 -5 576 15 745 41 356 40 411 -21 785
-29 175 -32 217 -32 410 -1 272 26 432 120 701 115 333 265 611 626 1160 73
112 160 246 192 297 60 94 88 126 43 50 -13 -24 -72 -133 -130 -243 -58 -110
-137 -261 -176 -335 -263 -496 -355 -718 -401 -965 -6 -33 -13 -71 -16 -83
-15 -69 63 60 117 193 l36 90 144 6 c240 11 438 81 674 236 265 176 392 354
457 643 21 98 23 126 23 427 0 177 1 321 1 320 1 -1 18 -87 38 -191z m714
-1808 c23 -52 21 -65 -1 -20 -16 29 -33 80 -25 72 3 -3 15 -26 26 -52z m245
-193 c-16 -12 -16 -15 0 -56 29 -73 12 -54 -23 26 l-33 76 18 37 18 37 18 -54
c18 -50 18 -55 2 -66z m-250 -62 c13 -42 13 -53 3 -53 -7 0 -18 22 -24 51 -24
101 -8 103 21 2z m137 -21 c0 -7 -4 -10 -10 -7 -5 3 -10 16 -10 28 0 18 2 19
10 7 5 -8 10 -21 10 -28z m-200 -114 c0 -13 -5 -30 -10 -38 -7 -11 -10 -5 -10
23 0 20 5 37 10 37 6 0 10 -10 10 -22z m331 -327 c-18 -11 -64 5 -86 29 -14
16 -17 32 -13 85 4 40 2 65 -4 65 -6 0 -4 7 3 16 11 14 20 3 64 -85 40 -82 47
-103 36 -110z m80 63 c22 -37 38 -72 36 -77 -2 -6 -23 28 -46 74 -51 98 -46
99 10 3z m179 -129 c24 -55 49 -115 57 -132 7 -18 11 -33 8 -33 -3 0 -12 15
-20 33 -85 202 -104 250 -96 242 5 -6 28 -55 51 -110z m26 78 c-2 -3 9 -26 25
-51 16 -25 29 -51 29 -58 0 -6 14 -29 31 -50 27 -35 29 -39 12 -45 -10 -4 -19
-6 -20 -5 -1 1 -18 40 -39 86 -73 169 -68 156 -50 141 9 -8 14 -16 12 -18z
m-469 -35 c-3 -8 -6 -5 -6 6 -1 11 2 17 5 13 3 -3 4 -12 1 -19z m223 -9 c11
-19 10 -20 -10 -9 -11 6 -18 15 -15 21 9 13 13 11 25 -12z m257 -259 c3 -8 -5
-3 -17 13 -12 15 -28 27 -36 27 -16 0 -44 50 -44 79 0 11 -6 24 -14 28 -17 10
-36 47 -36 70 0 17 138 -186 147 -217z m121 65 c10 -21 9 -26 -7 -34 -15 -8
-20 -5 -30 16 -10 21 -9 28 1 34 20 13 24 11 36 -16z m-58 -69 c0 -5 -7 -1
-15 10 -8 10 -14 24 -14 29 0 6 6 1 14 -9 8 -11 15 -24 15 -30z m-172 4 c10 0
30 -23 49 -56 26 -44 30 -56 18 -60 -12 -5 -11 -11 6 -38 l21 -31 -26 28 c-14
15 -26 35 -26 43 0 8 -6 14 -13 14 -7 0 -25 13 -40 28 -20 21 -27 38 -27 68 1
31 3 36 11 22 5 -10 18 -18 27 -18z m-79 -17 c0 -34 -1 -36 -11 -16 -6 12 -8
29 -5 37 11 27 17 18 16 -21z m354 -84 c21 -56 36 -103 34 -105 -4 -5 -11 9
-60 124 -24 54 -32 82 -24 82 7 0 30 -46 50 -101z m-133 55 c0 -8 -4 -12 -10
-9 -5 3 -10 10 -10 16 0 5 5 9 10 9 6 0 10 -7 10 -16z m53 -88 c-4 -5 -12 -1
-19 9 -7 10 -11 22 -8 27 3 5 12 1 19 -9 7 -10 11 -22 8 -27z m397 -16 c-12
-22 -25 -26 -35 -10 -5 8 19 24 43 29 1 1 -2 -8 -8 -19z m100 -16 c0 -8 -20
-35 -45 -60 -35 -34 -45 -40 -45 -26 0 11 16 40 36 66 34 44 54 52 54 20z
m-215 7 c3 -5 1 -12 -5 -16 -5 -3 -10 1 -10 9 0 18 6 21 15 7z m75 -92 l-20
-44 0 43 c0 31 4 42 15 42 8 0 15 6 16 13 0 7 2 8 5 1 3 -6 -4 -31 -16 -55z
m-63 9 c-3 -8 -6 -5 -6 6 -1 11 2 17 5 13 3 -3 4 -12 1 -19z m-336 -5 c13 -16
12 -17 -3 -4 -10 7 -18 15 -18 17 0 8 8 3 21 -13z m533 2 c-4 -8 -10 -15 -15
-15 -4 0 -6 7 -3 15 4 8 10 15 15 15 4 0 6 -7 3 -15z m-589 -45 c3 -5 1 -10
-4 -10 -6 0 -11 5 -11 10 0 6 2 10 4 10 3 0 8 -4 11 -10z m499 -5 c-4 -8 -10
-15 -15 -15 -4 0 -6 7 -3 15 4 8 10 15 15 15 4 0 6 -7 3 -15z m79 -10 c-3 -13
-14 -27 -25 -31 -26 -8 -30 -2 -19 30 14 35 50 37 44 1z m25 -76 c-6 -19 -16
-37 -22 -41 -6 -4 -12 -34 -12 -67 -3 -123 -29 -154 -29 -34 0 43 -2 96 -5
117 -3 26 -1 41 8 44 6 2 12 -3 12 -12 0 -25 29 -19 42 9 16 35 20 25 6 -16z
m66 -15 c3 -26 6 -59 6 -75 0 -25 -3 -28 -30 -26 -16 1 -30 6 -30 10 0 22 33
137 40 137 4 0 10 -21 14 -46z m-184 -56 c0 -39 -2 -43 -25 -44 -20 -2 -25 3
-25 21 0 18 4 22 20 18 16 -4 20 0 20 21 0 14 2 26 5 26 3 0 5 -19 5 -42z
m-440 20 c0 -7 -7 -22 -15 -32 -16 -21 -18 -15 -9 22 7 23 24 31 24 10z m954
-81 c-21 -12 -54 19 -54 52 l0 25 35 -34 c30 -29 33 -35 19 -43z m354 2 c-15
-10 -23 14 -13 39 6 14 8 13 16 -7 7 -18 6 -27 -3 -32z m-448 -9 c0 -10 -4
-22 -10 -25 -6 -4 -10 7 -10 25 0 18 4 29 10 25 6 -3 10 -15 10 -25z m-430
-20 c0 -5 -5 -10 -11 -10 -5 0 -7 5 -4 10 3 6 8 10 11 10 2 0 4 -4 4 -10z
m909 -12 c5 -13 7 -25 5 -27 -7 -7 -34 21 -34 35 0 22 20 16 29 -8z m-279 0
c0 -7 -9 -24 -20 -38 -19 -24 -20 -24 -20 -3 0 12 3 28 6 37 7 19 34 22 34 4z
m201 -28 c-5 -3 -12 -59 -16 -125 -4 -66 -10 -124 -12 -128 -11 -19 -173 164
-173 195 0 7 9 27 20 43 18 27 26 30 87 35 62 5 115 -7 94 -20z m-671 -22 c11
-24 20 -51 20 -60 0 -15 -4 -15 -30 -7 -25 9 -30 16 -30 44 0 33 8 65 17 65 2
0 13 -19 23 -42z m150 8 c0 -8 -11 -21 -25 -30 -29 -19 -33 -5 -7 29 17 24 32
24 32 1z m200 8 c0 -3 -8 -35 -17 -70 -14 -52 -21 -64 -38 -64 -18 1 -19 1 -2
11 20 12 23 29 3 29 -23 0 -27 29 -6 50 11 11 20 27 20 35 0 8 9 15 20 15 11
0 20 -3 20 -6z m445 -114 c9 -25 22 -56 29 -70 12 -21 11 -27 -9 -55 -13 -16
-33 -54 -45 -82 -25 -58 -40 -65 -63 -29 -14 21 -14 31 -1 96 8 39 19 83 25
97 5 13 9 29 9 34 0 14 -38 11 -43 -3 -2 -7 -3 -4 -1 7 2 11 4 39 4 62 l0 43
40 -28 c27 -19 44 -40 55 -72z m-591 -2 c21 -51 8 -63 -43 -40 -20 9 -38 18
-40 19 -6 4 51 63 60 63 4 0 14 -19 23 -42z m272 -82 c-6 -25 -15 -45 -21 -43
-12 4 -19 92 -10 116 6 14 9 13 24 -6 15 -18 16 -28 7 -67z m-501 60 c19 -8
35 -17 35 -20 0 -3 -10 -25 -22 -48 -18 -34 -23 -39 -27 -23 -2 11 -9 39 -16
62 -7 24 -11 43 -9 43 3 0 20 -7 39 -14z m953 -86 c4 0 14 5 22 10 12 7 11 13
-10 36 -16 17 3 8 53 -27 l78 -53 -48 -11 c-26 -6 -58 -17 -70 -23 -19 -11
-22 -10 -17 3 4 8 1 15 -5 15 -11 0 -71 97 -71 115 0 5 14 -7 31 -28 17 -20
34 -37 37 -37z m-2358 -152 c6 -45 12 -190 13 -322 2 -223 0 -249 -22 -341
-20 -81 -25 -135 -29 -292 l-4 -191 -30 -13 c-33 -14 -58 -56 -83 -144 -15
-49 -17 -81 -11 -180 8 -151 14 -185 35 -193 9 -3 36 -25 60 -49 45 -45 74
-53 114 -32 16 8 12 1 -12 -25 -44 -46 -85 -54 -142 -28 -89 39 -156 141 -166
250 -7 76 14 160 86 345 120 310 161 481 181 769 12 162 1 379 -25 529 -8 46
-15 89 -14 94 2 28 40 -107 49 -177z m1839 119 c1 -5 -3 -5 -9 -2 -5 3 -10 16
-9 28 0 21 1 21 9 2 5 -11 9 -24 9 -28z m161 -37 c22 -44 22 -44 -14 -30 -25
9 -36 46 -19 63 10 11 11 9 33 -33z m315 1 c14 -29 14 -30 -20 -64 -19 -19
-35 -32 -35 -28 1 9 20 94 25 109 7 18 13 15 30 -17z m492 -59 c14 -18 24 -34
22 -35 -26 -18 -60 -37 -69 -37 -17 0 -95 83 -82 88 7 2 12 12 12 22 0 9 10
25 23 33 24 17 26 16 94 -71z m-253 60 c2 -4 -12 -6 -32 -4 -56 5 -62 10 -15
11 23 1 44 -3 47 -7z m6 -38 c44 -18 49 -38 16 -58 -10 -6 -29 -21 -42 -33
-13 -13 -30 -20 -38 -17 -19 7 -65 -26 -66 -48 0 -27 -16 -29 -44 -7 -14 11
-30 18 -35 15 -5 -3 -8 2 -7 12 1 14 -6 16 -37 14 l-38 -4 15 29 c17 31 51 73
59 73 10 0 52 -75 49 -87 -3 -16 22 -17 49 -3 22 13 25 30 4 30 -9 0 -12 6 -9
15 4 9 0 15 -8 15 -16 0 -51 54 -41 64 13 12 134 6 173 -10z m400 -85 c0 -21
-2 -39 -3 -39 -2 0 -18 16 -36 35 l-32 35 23 9 c35 13 48 3 48 -40z m-305 31
c3 -5 -3 -10 -15 -10 -12 0 -18 5 -15 10 3 6 10 10 15 10 5 0 12 -4 15 -10z
m-438 -22 c-3 -8 -6 -5 -6 6 -1 11 2 17 5 13 3 -3 4 -12 1 -19z m4253 -22 c0
-2 -36 -24 -79 -49 -44 -24 -77 -39 -75 -33 3 7 37 28 77 48 80 41 77 40 77
34z m-7625 -114 c29 -196 17 -288 -46 -354 -28 -30 -43 -38 -70 -38 -50 0 -90
30 -123 89 -26 49 -28 60 -24 130 4 57 14 100 43 173 22 54 41 96 43 93 5 -4
-13 -124 -31 -205 -7 -30 -12 -85 -12 -121 0 -104 39 -131 135 -93 71 29 87
96 60 261 -11 68 -7 184 5 171 3 -2 11 -50 20 -106z m3802 71 l33 -24 -35 -35
c-40 -40 -59 -40 -63 0 -2 19 -8 26 -18 22 -18 -7 -18 -4 7 38 22 38 24 38 76
-1z m309 -23 c14 0 84 -104 84 -125 0 -9 -9 -15 -24 -15 -32 0 -42 -17 -17
-25 12 -4 18 -12 14 -21 -3 -7 -1 -14 5 -14 14 0 2 -51 -15 -57 -22 -9 -73 17
-73 38 0 14 7 19 26 19 39 0 24 24 -17 27 -47 3 -69 -5 -69 -25 -1 -15 -2 -15
-9 -2 -5 8 -12 25 -15 38 -7 20 -4 22 29 22 38 0 57 22 36 43 -8 8 -22 8 -51
0 -39 -10 -40 -9 -40 14 0 14 12 51 27 83 l28 58 35 -29 c19 -16 40 -29 46
-29z m-959 28 c-3 -8 -6 -5 -6 6 -1 11 2 17 5 13 3 -3 4 -12 1 -19z m827 -3
c-7 -16 -24 -21 -24 -6 0 8 7 13 27 20 1 1 0 -6 -3 -14z m428 -9 c21 -8 50
-21 65 -31 l27 -18 -66 -16 c-37 -9 -89 -31 -116 -48 -48 -29 -51 -30 -66 -14
-13 14 -40 113 -33 117 50 24 137 28 189 10z m-1163 -58 c1 -10 -3 -18 -9 -18
-5 0 -10 17 -9 38 0 30 2 33 9 17 5 -11 9 -28 9 -37z m-93 -15 c-11 -11 -19 6
-11 24 8 17 8 17 12 0 3 -10 2 -21 -1 -24z m268 10 c-10 -40 -14 -41 -14 -5 0
18 5 32 10 32 6 0 8 -11 4 -27z m-101 -83 l6 -65 -14 44 c-8 24 -12 55 -9 68
9 33 10 28 17 -47z m217 54 c0 -3 -11 -22 -25 -44 -23 -37 -24 -40 -6 -40 10
0 26 10 35 23 16 22 16 22 4 -5 -10 -25 -16 -28 -57 -27 -25 0 -41 3 -34 6 7
2 15 21 19 41 8 47 20 61 44 55 11 -3 20 -7 20 -9z m370 -14 c0 -10 -7 -20
-15 -24 -8 -3 -12 -12 -9 -21 8 -19 -6 -19 -32 -1 -18 14 -18 15 10 45 30 32
46 32 46 1z m560 20 c-8 -5 -19 -10 -25 -10 -5 0 -3 5 5 10 8 5 20 10 25 10 6
0 3 -5 -5 -10z m-866 -84 c-11 -22 -20 -32 -25 -24 -9 15 22 81 33 70 5 -5 1
-25 -8 -46z m947 -1 c25 -13 28 -19 19 -35 -10 -18 -12 -18 -48 -3 -20 8 -58
15 -84 15 -27 0 -48 2 -48 3 0 2 7 11 16 19 20 21 105 21 145 1z m-1275 -41
c-4 -9 -9 -15 -11 -12 -3 3 -3 13 1 22 4 9 9 15 11 12 3 -3 3 -13 -1 -22z
m514 11 c0 -8 -7 -15 -16 -15 -14 0 -14 3 -4 15 7 8 14 15 16 15 2 0 4 -7 4
-15z m1578 -22 c-47 -50 -111 -139 -136 -188 -25 -50 -56 -80 -74 -69 -7 4
-28 11 -48 14 -34 6 -35 7 -33 50 2 49 26 77 127 146 38 25 46 35 33 39 -9 4
-33 -5 -59 -22 -71 -48 -71 -49 -53 -14 26 51 52 71 89 71 19 0 36 -5 38 -12
3 -8 11 -7 28 5 15 10 44 17 74 17 l50 0 -36 -37z m212 8 c-30 -10 -66 -23
-79 -30 -19 -11 -22 -11 -16 1 26 44 43 53 97 49 l53 -3 -55 -17z m42 -71
c-70 -80 -172 -222 -172 -241 0 -4 -17 -11 -37 -14 -21 -3 -48 -8 -60 -11
l-22 -4 20 57 c10 32 36 90 56 130 35 69 40 73 103 102 36 16 78 33 93 37 16
3 31 12 33 19 3 7 17 12 33 11 26 -1 25 -4 -47 -86z m-2125 55 c1 -5 -1 -16
-5 -23 -7 -10 -14 -10 -35 1 -20 11 -24 16 -14 26 13 13 49 11 54 -4z m68 -24
c-21 -43 -29 -39 -8 4 9 19 18 33 21 31 2 -2 -4 -18 -13 -35z m1545 37 c0 -2
-14 -30 -30 -62 -17 -32 -30 -64 -30 -71 0 -6 -9 -20 -21 -31 l-21 -19 7 50
c12 77 42 135 71 135 13 0 24 -1 24 -2z m341 -15 c-19 -33 -46 -60 -76 -79
-22 -13 -16 -3 25 39 58 61 67 67 51 40z m-1547 -1 c6 -10 -21 -52 -34 -52 -5
0 -4 14 1 30 11 30 23 38 33 22z m508 -23 c-4 -30 -5 -30 -17 -7 -13 26 -10
38 9 38 8 0 11 -10 8 -31z m111 10 c25 -19 26 -21 11 -44 l-16 -24 -29 31
c-21 24 -26 35 -17 45 14 17 21 17 51 -8z m117 8 c0 -14 -20 -37 -32 -37 -12
0 -10 24 4 38 16 16 28 15 28 -1z m-366 -52 c-7 -28 -6 -27 -28 -19 -13 5 -13
10 2 40 12 27 18 31 24 20 5 -9 6 -27 2 -41z m-482 -27 c-5 -88 -6 -89 -35
-31 -38 75 -35 90 19 92 19 1 20 -4 16 -61z m983 -21 c-6 -22 -11 -26 -31 -21
-32 8 -61 -17 -76 -67 -6 -21 -15 -36 -20 -33 -21 13 43 161 76 174 31 12 59
-18 51 -53z m209 41 c-4 -13 -8 -50 -8 -83 l-2 -60 -35 -5 c-19 -4 -40 -10
-47 -14 -28 -17 -9 36 38 108 50 77 67 94 54 54z m730 -3 c-5 -19 -2 -25 9
-25 13 0 11 -10 -10 -57 -35 -79 -36 -79 -49 -29 -4 17 -3 27 3 23 13 -8 29 5
37 31 5 16 3 22 -8 22 -13 0 -13 4 2 30 21 36 24 38 16 5z m-1062 -14 c-14
-24 -18 -27 -25 -15 -6 11 -3 20 10 29 28 22 34 17 15 -14z m-1193 -2 c-8 -16
-14 -18 -22 -10 -9 9 -8 14 3 21 24 16 31 11 19 -11z m630 -41 c-1 -48 -2 -50
-11 -25 -9 25 -4 77 7 77 3 0 5 -24 4 -52z m1535 -5 c-24 -41 -88 -113 -101
-113 -5 0 74 108 100 138 31 33 31 27 1 -25z m261 -48 c-6 -66 -12 -91 -26
-104 -11 -10 -19 -26 -18 -37 5 -52 -4 -56 -20 -9 -17 47 -20 50 -56 52 -21 1
-39 4 -42 6 -2 2 15 32 38 67 38 56 115 127 127 116 2 -3 1 -43 -3 -91z
m-1714 22 c-13 -13 -15 1 -4 30 7 17 8 17 11 -1 2 -10 -1 -23 -7 -29z m1187
-2 c-15 -31 -28 -45 -42 -45 -25 0 -41 -10 -49 -30 -4 -12 -6 -11 -6 3 -1 18
92 117 110 117 5 0 -1 -20 -13 -45z m1417 -5 c-49 -22 -97 -39 -105 -40 -9 0
-25 -7 -38 -15 -19 -14 -21 -14 -16 -1 6 15 103 79 132 87 8 2 37 5 65 6 l52
2 -90 -39z m-2291 15 c-4 -8 -10 -15 -15 -15 -5 0 -9 7 -9 15 0 8 7 15 15 15
9 0 12 -6 9 -15z m322 -11 c-4 -9 -9 -15 -11 -12 -3 3 -3 13 1 22 4 9 9 15 11
12 3 -3 3 -13 -1 -22z m-814 -9 c-5 -30 -17 -32 -31 -6 -12 21 -5 31 19 31 13
0 16 -6 12 -25z m2083 -25 c-10 -15 -86 -70 -98 -70 -14 0 13 30 57 62 38 27
55 31 41 8z m-421 -116 c-6 -24 -10 -25 -43 -19 -20 4 -39 9 -43 11 -4 2 8 29
25 59 l32 55 18 -40 c11 -25 15 -49 11 -66z m-338 60 c-3 -9 -6 -20 -6 -24 0
-5 -10 -18 -21 -29 -14 -13 -20 -27 -16 -40 7 -27 1 -27 -13 -1 -8 15 -7 27 5
50 9 16 20 30 25 30 6 0 10 7 10 15 0 8 5 15 11 15 6 0 8 -7 5 -16z m1184 -8
c-28 -26 -78 -47 -65 -26 9 14 66 50 80 50 5 0 -2 -11 -15 -24z m-1496 -18
c24 -10 44 -44 33 -54 -6 -6 -87 14 -87 22 0 5 24 44 27 44 1 0 13 -5 27 -12z
m1194 -53 c19 4 32 2 32 -5 0 -11 0 -11 -53 -14 -22 -2 -42 -8 -45 -14 -8 -12
-128 -36 -142 -27 -18 11 -11 30 22 56 31 26 32 26 92 12 34 -8 76 -11 94 -8z
m-449 -15 c5 -16 8 -30 6 -30 -3 0 -11 14 -20 30 -9 17 -11 30 -6 30 5 0 14
-13 20 -30z m181 16 c0 -3 -4 -8 -10 -11 -5 -3 -10 -1 -10 4 0 6 5 11 10 11 6
0 10 -2 10 -4z m-510 -30 c0 -24 -17 -36 -50 -36 -39 0 -56 12 -45 30 6 9 95
15 95 6z m158 -24 c9 -6 6 -11 -11 -19 -31 -14 -77 -6 -70 13 6 15 60 19 81 6z
m-638 -42 c9 -16 8 -18 -5 -14 -8 4 -15 12 -15 20 0 20 7 17 20 -6z m194 -59
c-4 -23 -9 -40 -11 -37 -3 3 -2 23 2 46 4 23 9 39 11 37 3 -2 2 -23 -2 -46z
m232 39 c17 0 24 -6 24 -20 0 -31 -21 -69 -35 -63 -8 2 -23 0 -34 -7 -20 -10
-21 -8 -21 29 0 51 9 74 27 67 8 -3 26 -6 39 -6z m1299 -1817 c7 -62 5 -77
-14 -115 -19 -41 -65 -77 -79 -63 -3 3 6 56 21 118 15 61 32 157 39 212 l13
100 6 -90 c4 -49 10 -122 14 -162z"/>
<path d="M13025 21534 c-151 -23 -241 -50 -505 -152 -85 -34 -195 -69 -245
-78 -96 -19 -115 -28 -115 -52 0 -39 205 13 490 125 154 61 218 79 345 98 297
45 662 -16 961 -159 271 -130 436 -290 573 -555 91 -174 140 -224 190 -192 11
7 7 18 -22 53 -19 23 -65 99 -102 168 -83 155 -133 225 -226 318 -160 157
-329 255 -588 342 -192 64 -307 82 -531 85 -107 2 -208 1 -225 -1z"/>
<path d="M12910 21133 c-236 -29 -678 -116 -795 -155 -48 -16 -55 -43 -10 -42
17 0 111 19 210 41 451 102 739 133 913 97 284 -58 665 -248 903 -448 l34 -28
-35 20 c-19 11 -98 57 -174 102 -159 94 -228 122 -451 178 -232 59 -359 76
-535 69 -160 -6 -209 -16 -478 -98 -204 -62 -278 -70 -346 -41 -38 17 -51 30
-64 62 -11 26 -25 43 -40 46 -26 7 -72 -19 -72 -42 0 -26 28 -71 63 -101 22
-18 40 -46 51 -79 23 -70 78 -159 134 -218 85 -88 502 -383 770 -545 178 -107
189 -111 732 -226 384 -81 463 -95 575 -102 198 -12 349 55 410 183 8 18 31
48 50 67 61 61 46 131 -65 290 -123 179 -302 373 -464 503 -268 217 -602 386
-886 449 -73 17 -352 28 -430 18z m39 -317 c8 -5 6 -15 -9 -36 -38 -54 -79
-155 -90 -223 -16 -103 15 -308 60 -397 11 -22 17 -40 12 -40 -21 0 -195 125
-272 196 -75 68 -163 124 -197 124 -15 0 -63 57 -63 75 0 20 -48 73 -81 91
-34 17 -40 61 -11 86 26 24 269 94 427 124 71 13 202 13 224 0z m-712 -158
c-3 -7 -5 -2 -5 12 0 14 2 19 5 13 2 -7 2 -19 0 -25z m102 -134 c14 -32 11
-30 -30 12 -32 33 -32 35 -8 24 15 -7 32 -23 38 -36z m1126 -54 c4 -6 -5 -24
-19 -41 -14 -17 -26 -35 -26 -39 0 -5 37 -10 83 -12 80 -3 82 -4 83 -28 0 -18
19 -44 62 -86 34 -33 62 -65 62 -72 0 -7 -17 -20 -37 -28 -21 -9 -45 -20 -53
-25 -65 -39 -148 -51 -207 -28 -63 24 -111 97 -120 184 -10 95 55 184 134 185
17 0 35 -5 38 -10z m671 -106 c103 -68 243 -224 319 -352 20 -34 54 -82 75
-107 28 -32 40 -56 40 -76 0 -28 -6 -33 -77 -67 -114 -53 -177 -55 -319 -9
-105 34 -220 60 -333 75 l-54 7 54 40 c60 44 171 185 215 272 30 60 38 138 21
216 -4 20 -5 37 -2 37 4 0 31 -16 61 -36z m-916 -429 c47 -24 82 -44 77 -44
-11 -1 -133 55 -159 73 -40 29 -5 16 82 -29z m773 -176 c107 -22 156 -37 124
-38 -32 -1 -281 51 -292 61 -12 11 25 6 168 -23z m577 -14 c0 -11 -66 -45 -85
-44 -12 0 -1 10 30 24 58 28 55 26 55 20z"/>
<path d="M13430 20250 c0 -5 17 -27 38 -50 37 -38 62 -51 62 -31 0 5 3 16 6
24 8 22 -45 67 -78 67 -16 0 -28 -4 -28 -10z"/>
<path d="M19320 20120 c0 -5 7 -10 15 -10 8 0 15 5 15 10 0 6 -7 10 -15 10 -8
0 -15 -4 -15 -10z"/>
<path d="M12071 20052 c-19 -9 -36 -22 -38 -28 -6 -17 101 -137 186 -211 272
-233 576 -354 936 -372 362 -18 1379 81 1453 141 37 31 -3 54 -69 39 -230 -51
-903 -111 -1235 -111 -245 0 -428 40 -639 140 -162 76 -331 206 -460 353 -64
72 -79 78 -134 49z"/>
<path d="M18410 18954 c-41 -2 -174 -8 -294 -13 -175 -8 -222 -13 -235 -25
-34 -35 -4 -38 277 -27 656 26 794 12 1047 -109 231 -111 408 -253 901 -723
188 -179 350 -329 360 -335 20 -10 64 1 64 16 0 15 -667 647 -817 774 -276
234 -519 368 -758 418 -101 21 -363 33 -545 24z"/>
<path d="M17985 18705 c-106 -20 -193 -62 -260 -126 -97 -92 -120 -185 -70
-286 32 -64 86 -114 245 -229 452 -327 842 -530 1325 -690 232 -76 321 -94
479 -94 155 0 190 -9 532 -130 286 -102 324 -111 354 -75 19 23 -126 207 -328
416 -65 66 -114 123 -109 126 13 8 3 26 -75 130 -40 54 -138 164 -218 244
-330 332 -702 544 -1155 658 -246 62 -560 86 -720 56z m460 -60 c175 -27 346
-72 518 -137 92 -35 97 -45 9 -18 -156 49 -445 75 -715 66 -277 -9 -312 -15
-377 -58 -99 -66 -103 -72 -97 -136 3 -32 9 -68 13 -82 6 -22 3 -21 -20 9 -77
102 -51 232 60 297 51 30 136 62 199 75 55 11 289 2 410 -16z m635 -185 c8 -5
11 -10 5 -10 -5 0 -17 5 -25 10 -8 5 -10 10 -5 10 6 0 17 -5 25 -10z m-522
-24 c52 -27 84 -84 60 -103 -7 -6 -30 -16 -51 -23 -55 -17 -82 -60 -141 -231
-41 -119 -58 -155 -72 -157 -19 -3 -35 8 -135 84 -31 24 -84 51 -123 64 -88
29 -106 47 -106 107 0 80 63 181 143 228 33 19 71 28 167 39 136 16 217 13
258 -8z m-479 -19 c-2 -1 -15 -11 -28 -22 l-24 -20 12 23 c6 12 19 22 28 22 9
0 14 -1 12 -3z m1336 -142 c137 -89 265 -194 398 -327 141 -143 174 -194 45
-70 -170 162 -341 309 -458 392 -127 91 -121 93 15 5z m25 -233 c0 -15 -2 -15
-10 -2 -13 20 -13 33 0 25 6 -3 10 -14 10 -23z m-480 -27 c0 -8 -13 -21 -29
-29 -47 -25 -56 -84 -20 -130 31 -39 49 -34 49 14 0 47 23 74 74 89 52 14 90
1 94 -32 2 -18 -2 -29 -13 -33 -9 -4 -25 -23 -35 -44 -37 -73 -185 -112 -253
-67 -86 56 -77 170 19 224 46 26 114 31 114 8z m-729 -72 c10 -13 6 -12 -17 4
-17 12 -37 30 -45 40 -10 13 -6 12 17 -4 17 -12 37 -30 45 -40z m1310 -103
c20 -50 52 -116 70 -146 53 -87 211 -275 268 -318 28 -21 51 -40 51 -43 0 -8
-175 7 -268 23 -45 8 -105 23 -133 34 -28 10 -82 22 -119 26 l-68 6 39 39 c77
77 109 179 112 358 1 66 4 117 6 115 3 -2 21 -45 42 -94z m-1050 -46 c32 -20
59 -39 59 -41 0 -5 -110 56 -124 69 -23 19 10 5 65 -28z"/>
<path d="M12820 17889 c-25 -5 -76 -24 -115 -43 -203 -101 -312 -334 -341
-731 -12 -167 26 -315 137 -538 75 -150 121 -217 197 -290 75 -71 142 -103
275 -129 103 -20 163 -44 186 -72 27 -32 131 -10 131 28 0 14 -45 59 -76 75
-12 6 -75 22 -139 35 -64 14 -137 35 -161 47 -107 51 -207 179 -310 393 -127
265 -142 452 -63 765 60 239 152 365 287 391 85 16 104 26 100 53 -4 26 -36
31 -108 16z"/>
<path d="M17943 17885 c-13 -9 -23 -25 -23 -36 0 -24 91 -159 187 -278 37 -46
79 -98 93 -115 37 -46 295 -289 375 -352 280 -221 644 -407 883 -449 108 -20
241 -19 270 1 24 17 31 73 10 75 -7 0 -53 2 -103 4 -206 6 -453 103 -745 293
-313 203 -594 479 -805 791 -45 68 -55 76 -86 79 -19 1 -44 -4 -56 -13z"/>
<path d="M13251 17062 c-78 -39 -95 -119 -46 -219 55 -111 149 -191 385 -326
63 -36 144 -91 180 -123 96 -83 149 -101 210 -69 30 16 47 52 41 90 -7 48
-246 359 -370 483 -159 158 -300 216 -400 164z"/>
<path d="M16578 16833 c-81 -33 -34 -73 132 -113 169 -40 307 -133 391 -263
78 -120 170 -408 189 -589 17 -164 -18 -331 -95 -458 -112 -184 -349 -357
-565 -411 -72 -18 -103 -21 -200 -16 -146 7 -255 38 -416 117 -126 62 -146 68
-188 49 -30 -14 -40 -37 -25 -55 16 -19 202 -108 279 -132 251 -82 472 -80
685 5 271 107 506 314 600 527 45 103 59 173 58 306 0 149 -24 274 -87 461
-105 313 -258 464 -537 533 -52 13 -109 31 -126 40 -39 19 -47 19 -95 -1z"/>
<path d="M13812 16214 c-12 -8 -22 -22 -22 -31 0 -19 210 -384 295 -514 84
-126 179 -215 287 -268 136 -67 216 -84 403 -84 152 -1 164 0 235 27 95 36
152 73 265 170 105 91 204 160 293 205 l64 32 -4 -28 c-2 -21 2 -29 17 -31 11
-2 48 -20 82 -38 76 -43 185 -58 380 -52 143 4 173 14 200 69 23 48 7 69 -91
114 -132 62 -218 86 -323 92 -142 9 -244 -16 -408 -99 -109 -55 -205 -123
-316 -224 -129 -117 -187 -145 -321 -151 -205 -10 -385 51 -519 175 -82 76
-169 204 -318 470 l-103 182 -37 0 c-20 0 -47 -7 -59 -16z"/>
<path d="M11225 15875 c-136 -42 -187 -63 -180 -74 3 -5 -8 -12 -24 -16 -33
-7 -149 -78 -168 -102 -7 -9 -30 -17 -50 -19 -54 -3 -55 -3 -49 -12 3 -5 -26
-18 -65 -31 -38 -12 -69 -27 -69 -33 0 -6 11 -8 28 -4 15 4 -11 -16 -58 -43
-117 -70 -114 -67 -105 -80 5 -9 13 -8 31 4 13 8 24 11 24 5 0 -9 -203 -111
-397 -200 -40 -18 -73 -39 -73 -46 0 -21 8 -18 136 42 68 32 131 56 147 55 18
-1 53 16 104 51 62 41 86 52 123 53 68 3 101 15 129 48 15 17 26 35 26 40 0
15 36 36 52 30 9 -4 21 1 27 9 8 10 37 19 81 23 39 4 68 5 65 3 -20 -20 -173
-108 -188 -108 -10 0 -29 -11 -42 -26 -14 -14 -91 -66 -172 -115 -81 -50 -158
-99 -170 -109 l-23 -19 22 -1 c13 0 56 17 97 39 41 21 79 35 85 32 7 -5 -28
-47 -89 -109 -91 -93 -99 -104 -88 -122 16 -25 30 -25 53 0 10 11 27 20 37 20
10 0 22 10 27 24 9 21 78 72 87 63 2 -2 -25 -29 -61 -61 -67 -59 -85 -94 -42
-82 12 3 30 6 40 6 13 0 17 5 12 19 -4 15 0 20 24 23 20 3 32 0 36 -9 2 -8 11
-11 17 -8 7 4 -3 -7 -22 -24 -19 -17 -38 -31 -42 -31 -5 0 -8 -4 -8 -10 0 -21
38 -8 81 27 37 31 40 32 18 7 -42 -48 -89 -117 -89 -131 0 -21 38 -15 45 6 6
20 41 38 53 27 3 -3 -3 -12 -13 -20 -18 -13 -18 -14 0 -23 10 -6 15 -15 11
-21 -11 -18 -86 -34 -122 -28 -19 4 -35 2 -39 -4 -11 -18 2 -24 53 -23 60 1
117 25 159 67 18 18 45 39 60 47 16 7 43 24 61 38 21 16 74 33 152 51 66 14
120 26 120 25 0 -1 -19 -15 -42 -30 -62 -40 -178 -136 -178 -146 0 -22 35 -4
109 55 91 74 205 143 273 166 26 9 53 21 60 27 16 14 120 49 184 63 27 5 59
12 72 15 12 3 22 12 22 21 0 10 -6 14 -17 11 -10 -3 -31 -8 -48 -12 -29 -6
-30 -6 -8 10 28 20 108 31 117 16 4 -6 20 -11 36 -11 15 0 30 -5 32 -10 2 -7
32 -3 82 10 99 25 213 25 361 1 74 -13 114 -15 122 -9 8 7 41 6 98 -3 47 -7
87 -10 89 -8 2 2 6 14 10 25 6 19 1 22 -52 33 -32 6 -97 14 -143 18 l-84 6 64
29 c72 32 63 33 194 -22 65 -27 77 -35 72 -51 -7 -21 14 -26 31 -9 7 7 28 1
65 -20 82 -45 111 -37 72 20 -15 23 -15 24 0 12 9 -8 21 -11 27 -7 5 3 10 -1
10 -9 0 -9 7 -16 15 -16 8 0 15 4 15 9 0 13 55 -2 123 -33 32 -14 69 -26 82
-26 14 0 25 -4 25 -10 0 -5 7 -10 17 -10 22 0 93 -32 93 -42 0 -14 29 -9 37 6
7 12 20 9 78 -19 79 -39 170 -65 227 -65 66 0 41 17 -59 42 -54 12 -106 31
-116 41 -10 10 -23 15 -29 11 -7 -4 -8 -3 -4 4 4 7 -6 18 -25 27 -38 20 -33
30 7 14 27 -10 65 -16 139 -23 53 -4 104 -26 98 -42 -3 -8 -1 -14 4 -14 5 0
42 -31 83 -69 89 -84 143 -116 163 -97 11 11 16 11 32 0 11 -8 13 -14 6 -14
-7 0 -11 -9 -9 -21 3 -23 189 -148 221 -149 11 0 21 -9 24 -20 3 -10 13 -22
23 -25 10 -3 36 -28 56 -55 21 -28 46 -50 56 -50 34 0 24 18 -78 140 -11 13
-11 21 1 43 10 21 11 27 1 27 -6 0 -17 -5 -23 -11 -14 -14 -50 10 -103 67 -26
29 -17 32 10 4 3 -3 35 -16 72 -29 68 -23 96 -22 119 6 12 14 9 15 -26 10 -35
-6 -53 0 -145 49 -58 30 -94 53 -80 50 14 -3 44 -8 67 -12 32 -5 40 -10 36
-22 -5 -12 -2 -14 13 -7 10 4 37 11 59 14 34 5 40 10 43 34 2 19 -1 27 -12 27
-9 0 -16 -7 -16 -15 0 -9 -9 -15 -24 -15 -21 0 -24 6 -31 55 -4 37 -11 55 -20
55 -8 0 -17 5 -20 10 -4 6 -3 10 2 9 18 -3 33 2 33 11 0 6 -8 10 -18 10 -20 0
-64 29 -44 30 15 0 52 36 52 50 0 16 -28 11 -38 -6 -8 -14 -18 -5 -60 52 -36
49 -49 75 -46 91 5 17 -5 29 -48 60 -113 83 -303 183 -347 183 -6 0 -11 4 -11
10 0 5 -18 13 -40 16 -22 4 -40 11 -40 16 0 5 -9 4 -21 -2 -13 -7 -40 -9 -69
-5 -30 4 -50 3 -55 -4 -3 -6 2 -11 12 -12 10 0 -5 -9 -33 -18 -27 -10 -64 -26
-82 -35 -17 -9 -44 -16 -59 -16 l-28 1 35 19 c19 11 47 19 61 20 14 0 28 3 32
6 12 13 -6 34 -31 34 -35 0 -132 32 -126 41 2 5 11 6 19 3 8 -4 18 1 21 10 8
21 58 21 79 0 10 -10 24 -14 39 -10 13 3 45 -1 72 -9 27 -8 57 -15 67 -15 27
0 20 19 -10 30 -16 6 -35 14 -43 18 -8 5 -50 19 -93 32 -97 30 -90 51 9 26 47
-12 70 -14 77 -7 14 14 -20 41 -48 40 -37 -2 -45 1 -45 17 0 10 -7 14 -17 12
-10 -2 -17 -9 -16 -14 2 -11 -85 -3 -174 15 -79 16 -313 13 -313 -4 0 -8 14
-15 33 -18 17 -2 -8 -5 -58 -6 -49 -1 -108 -6 -130 -11 -33 -7 -43 -6 -60 9
-31 28 -36 30 -140 51 -116 24 -125 24 -125 5 0 -15 14 -20 90 -33 36 -6 45
-12 45 -27 0 -16 -6 -19 -25 -17 -14 2 -30 8 -36 13 -6 5 -14 6 -17 3 -3 -4
-13 1 -22 9 -18 19 -84 32 -225 46 -119 12 -230 3 -230 -18 0 -5 45 -7 102 -4
75 5 99 3 94 -5 -4 -7 -12 -12 -19 -12 -6 0 -21 -12 -32 -26 -20 -25 -27 -26
-149 -32 -107 -6 -129 -10 -137 -24 -6 -10 -16 -18 -24 -18 -7 0 -15 -4 -17
-9 -1 -4 -41 4 -88 20 -91 31 -115 35 -125 20 -3 -6 35 -23 86 -39 109 -35 95
-45 -51 -36 -57 4 -110 2 -134 -4 -34 -10 -43 -9 -67 8 -15 11 -32 20 -38 20
-6 0 -11 4 -11 9 0 5 34 15 76 22 58 9 78 16 81 30 5 19 54 33 64 18 3 -6 18
-3 35 6 32 17 134 21 134 5 0 -11 277 -14 304 -4 9 3 16 11 16 16 0 6 -35 7
-97 3 -90 -7 -97 -6 -84 9 19 22 5 33 -21 17 -25 -16 -301 -23 -291 -8 4 6 -1
8 -11 4 -10 -4 -21 -7 -24 -7 -4 0 -2 -4 5 -8 7 -5 -5 -12 -32 -18 -36 -8 -45
-8 -45 3 0 11 -13 13 -62 7 -35 -4 -60 -4 -57 0 3 4 62 26 131 50 98 35 131
43 158 37 22 -4 30 -10 22 -14 -19 -13 -14 -27 11 -27 12 0 32 11 45 24 l22
24 -35 22 c-29 18 -44 21 -78 16 -23 -4 -69 -9 -102 -12 -33 -2 -78 -6 -100
-9 -43 -4 -39 -2 43 26 29 10 50 14 47 9 -4 -6 1 -10 10 -10 8 0 18 6 21 14 3
8 21 17 40 20 19 4 34 11 34 16 0 15 -16 12 -135 -25z m-40 -89 c-16 -7 -41
-10 -55 -7 l-25 5 25 7 c14 4 39 7 55 8 l30 0 -30 -13z m-100 -22 c-35 -27
-136 -75 -148 -71 -7 3 15 17 48 33 33 15 66 34 73 41 7 7 21 13 30 13 15 -1
14 -3 -3 -16z m981 -41 l49 -8 -55 -6 c-68 -7 -144 0 -115 12 26 10 62 11 121
2z m807 0 c-7 -2 -21 -2 -30 0 -10 3 -4 5 12 5 17 0 24 -2 18 -5z m-522 -16
c9 -7 14 -18 12 -24 -3 -7 1 -13 8 -13 7 0 10 -2 7 -5 -4 -4 -65 12 -76 20 -1
1 0 10 4 19 7 19 23 20 45 3z m290 -24 c1 -10 1 -24 0 -30 -2 -15 15 -17 24
-3 9 14 25 12 25 -2 0 -7 17 -28 37 -46 24 -21 30 -31 18 -27 -11 4 -59 9
-108 12 -73 5 -85 8 -76 20 18 20 4 27 -32 14 -44 -15 -48 -14 -42 9 4 17 0
20 -25 20 -28 0 -51 15 -40 25 8 8 112 23 166 24 43 1 52 -2 53 -16z m-1446
-3 c-8 -13 -35 -13 -55 0 -11 7 -5 10 23 10 23 0 36 -4 32 -10z m-95 -17 c-25
-18 -173 -34 -157 -17 9 10 111 32 152 33 l29 1 -24 -17z m943 -5 c10 -5 16
-15 14 -23 -4 -9 10 -14 51 -19 31 -3 68 -7 82 -10 14 -2 30 -5 35 -6 6 0 -7
-8 -28 -17 -36 -15 -40 -14 -98 12 -42 18 -71 25 -92 22 -33 -6 -124 7 -192
26 l-39 12 59 11 c64 13 178 9 208 -8z m194 6 c-3 -3 -12 -4 -19 -1 -8 3 -5 6
6 6 11 1 17 -2 13 -5z m723 -15 c0 -23 2 -23 -43 -1 l-37 18 40 1 c34 2 40 -1
40 -18z m-195 -17 c-3 -3 -11 0 -18 7 -9 10 -8 11 6 5 10 -3 15 -9 12 -12z
m-1037 1 c-10 -2 -18 -8 -18 -13 0 -13 18 -22 24 -11 8 12 76 -2 108 -23 22
-14 28 -15 39 -3 11 10 22 11 49 3 34 -9 33 -10 -40 -19 -76 -10 -237 4 -249
21 -3 4 -19 9 -34 10 -55 4 -52 17 8 28 57 11 150 17 113 7z m717 -13 c-3 -5
-13 -10 -21 -10 -8 0 -14 5 -14 10 0 6 9 10 21 10 11 0 17 -4 14 -10z m395 1
c0 -5 44 -24 98 -41 97 -32 132 -50 99 -50 -10 0 -30 -8 -44 -17 -19 -13 -28
-14 -31 -5 -2 8 -16 10 -44 6 -38 -7 -42 -4 -94 47 -46 45 -52 55 -37 61 26
10 53 9 53 -1z m-1750 -36 c32 -16 40 -35 16 -35 -8 0 -52 -16 -97 -35 -46
-19 -91 -35 -101 -35 -9 0 -37 -17 -61 -37 -100 -85 -164 -128 -195 -134 l-34
-6 34 32 c30 29 249 172 338 221 19 10 41 25 48 32 17 15 17 15 52 -3z m1254
-12 c-11 -8 -42 -12 -78 -12 -34 1 -47 4 -31 6 17 3 34 9 40 14 5 5 27 9 48 7
34 -2 37 -3 21 -15z m-966 -29 c12 -8 20 -19 17 -23 -2 -5 -35 -11 -72 -15
-37 -4 -121 -16 -186 -27 -135 -24 -172 -15 -85 20 145 59 280 77 326 45z
m192 6 c-30 -4 -71 -10 -91 -14 -27 -5 -40 -2 -49 9 -11 13 0 15 91 14 90 -1
96 -3 49 -9z m1023 -16 c3 -19 1 -24 -10 -20 -8 3 -19 6 -24 6 -5 0 -4 9 3 20
17 27 25 25 31 -6z m-519 -15 c14 -11 36 -20 48 -19 37 3 41 1 28 -15 -15 -18
-125 -22 -114 -4 10 17 -14 27 -86 36 l-65 7 45 7 c88 12 117 10 144 -12z
m265 1 c-33 -27 -5 -26 48 2 47 25 63 19 44 -16 -12 -22 -21 -24 -95 -28 -44
-2 -83 -3 -85 -1 -3 2 4 10 15 18 16 12 17 16 5 24 -11 7 -5 11 25 14 21 2 45
4 53 5 7 1 3 -7 -10 -18z m314 0 c3 -11 3 -20 1 -20 -2 0 -8 9 -14 20 -6 11
-7 20 -2 20 6 0 12 -9 15 -20z m-433 -5 c0 -8 -4 -15 -9 -15 -5 0 -11 7 -15
15 -3 9 0 15 9 15 8 0 15 -7 15 -15z m278 -19 c-1 -2 -14 1 -28 5 -16 4 -19 7
-7 8 9 1 17 7 17 14 0 6 5 4 11 -6 6 -10 9 -20 7 -21z m292 9 c8 -9 5 -14 -9
-18 -14 -3 -18 -1 -14 9 3 8 0 14 -6 14 -7 0 -14 -7 -18 -15 -5 -14 -8 -14
-25 2 -20 18 -20 18 4 24 28 7 54 1 68 -16z m570 15 c0 -9 -55 -16 -110 -12
-13 1 -27 -2 -30 -6 -6 -10 -83 -33 -88 -27 -6 5 38 24 98 41 54 15 130 18
130 4z m-1797 -7 c-7 -2 -21 -2 -30 0 -10 3 -4 5 12 5 17 0 24 -2 18 -5z m-70
-10 c-13 -2 -23 -8 -23 -13 0 -5 -7 -7 -16 -3 -22 8 2 23 36 21 23 -1 24 -1 3
-5z m252 -10 c-10 -3 -28 -11 -40 -18 -22 -14 -202 -18 -188 -4 8 8 163 26
223 26 19 1 20 0 5 -4z m250 -17 c6 -3 -44 -5 -110 -5 -102 0 -117 2 -97 12
17 10 45 11 110 5 48 -5 92 -10 97 -12z m615 -2 c0 -2 -9 -4 -20 -4 -11 0 -20
4 -20 9 0 5 9 7 20 4 11 -3 20 -7 20 -9z m720 1 c0 -19 19 -19 41 1 14 13 25
14 70 4 30 -6 64 -12 75 -14 25 -5 84 -35 69 -36 -5 0 4 -7 21 -14 59 -26 194
-120 182 -127 -12 -7 -8 -19 18 -59 9 -14 10 -18 3 -10 -8 8 -27 21 -42 29
-16 9 -26 20 -23 28 3 8 -2 13 -14 13 -11 0 -29 5 -39 12 -10 6 -26 8 -36 4
-15 -5 -15 -9 -4 -23 13 -15 11 -16 -13 -10 -36 9 -63 22 -123 58 -27 17 -41
28 -30 25 11 -3 32 -8 48 -12 15 -3 27 -12 27 -19 0 -11 6 -11 30 -2 63 24 29
55 -100 92 -52 15 -137 30 -188 34 -95 8 -122 16 -81 25 13 3 33 7 44 9 43 10
65 7 65 -8z m-1930 -4 c0 -13 -41 -41 -60 -41 -10 1 -6 9 13 25 29 26 47 32
47 16z m1420 -23 c0 -18 -2 -20 -9 -8 -6 8 -7 18 -5 22 9 14 14 9 14 -14z
m234 2 c16 0 12 -6 -19 -25 -40 -24 -40 -29 3 -25 13 1 29 -3 36 -9 8 -7 24
-7 42 -2 36 10 104 3 104 -11 0 -6 -15 -8 -37 -5 -21 3 -72 2 -113 -3 -65 -8
-83 -6 -135 12 -71 25 -85 35 -61 44 10 4 22 2 29 -5 16 -16 47 -14 47 4 0 8
-5 15 -11 15 -5 0 -7 5 -3 11 4 7 23 9 52 5 25 -3 54 -6 66 -6z m-2084 -4 c0
-3 -27 -17 -61 -32 -33 -15 -68 -38 -78 -51 -11 -12 -27 -23 -36 -23 -29 0 1
27 79 70 64 36 96 48 96 36z m260 -1 c0 -6 -73 -25 -78 -20 -2 2 11 8 29 14
41 11 49 12 49 6z m592 -16 c-12 -11 -112 -26 -112 -18 0 5 -26 10 -57 11
l-58 1 55 6 c72 8 181 8 172 0z m61 4 c-7 -2 -19 -2 -25 0 -7 3 -2 5 12 5 14
0 19 -2 13 -5z m382 -3 c-27 -12 -43 -12 -25 0 8 5 22 9 30 9 10 0 8 -3 -5 -9z
m201 2 c9 -5 9 -10 0 -18 -8 -7 -20 -7 -40 1 -20 8 -25 14 -15 18 20 8 42 8
55 -1z m667 1 c-7 -2 -19 -2 -25 0 -7 3 -2 5 12 5 14 0 19 -2 13 -5z m-1093
-23 c-52 -10 -129 -18 -170 -18 l-75 1 55 8 c71 11 216 26 255 27 17 0 -13 -8
-65 -18z m338 7 c-7 -8 -22 -12 -33 -9 -18 5 -18 6 5 13 38 11 42 10 28 -4z
m-1123 -22 c-3 -32 4 -27 -84 -59 -71 -25 -96 -27 -74 -5 7 7 151 87 160 89 1
0 0 -11 -2 -25z m305 18 c-64 -21 -69 -22 -63 -7 3 9 19 14 42 13 20 0 29 -3
21 -6z m-617 -23 c-19 -17 -87 -42 -72 -26 6 6 80 45 88 46 3 0 -5 -9 -16 -20z
m521 5 c-8 -19 -44 -40 -44 -25 0 5 -7 10 -15 10 -8 0 -15 -4 -15 -10 0 -5 6
-10 12 -10 16 0 -59 -63 -86 -73 -16 -5 -14 -2 7 14 28 21 36 49 15 49 -9 0
-8 4 2 11 11 8 12 12 3 16 -7 2 -13 10 -13 16 0 8 25 13 70 15 59 2 69 0 64
-13z m1330 -16 c-6 -11 -24 -2 -24 11 0 5 7 7 15 4 8 -4 12 -10 9 -15z m-1698
-6 c-37 -19 -151 -59 -205 -72 -37 -8 -41 -7 -41 10 0 12 10 21 26 25 83 21
221 52 234 52 8 1 2 -6 -14 -15z m1008 3 c-21 -15 -124 -34 -112 -21 7 7 97
32 123 34 5 1 0 -5 -11 -13z m254 -1 c12 -12 -8 -15 -34 -5 -23 9 -31 8 -40
-5 -9 -12 -25 -15 -66 -13 l-53 3 35 18 c26 13 50 16 94 12 33 -3 62 -7 64
-10z m252 -25 c0 -17 -14 -17 -46 2 -19 11 -34 21 -34 23 0 2 18 -2 40 -7 22
-6 40 -14 40 -18z m677 14 c-3 -3 -12 -4 -19 -1 -8 3 -5 6 6 6 11 1 17 -2 13
-5z m-1469 -19 c4 -4 -84 -12 -191 -19 -76 -4 -78 -3 -21 19 29 10 62 13 124
8 47 -3 86 -7 88 -8z m1129 0 c20 -8 33 -18 30 -21 -7 -8 -77 18 -77 28 0 11
5 10 47 -7z m-1712 -20 c-33 -13 -85 -33 -115 -45 -30 -12 -49 -16 -42 -9 14
15 179 78 202 78 8 0 -12 -11 -45 -24z m283 14 c-31 -18 -98 -38 -98 -30 0 20
39 36 95 39 18 1 18 0 3 -9z m967 -10 c4 -6 14 -8 22 -5 8 3 31 -2 51 -11 28
-12 33 -17 19 -20 -11 -3 -16 -11 -13 -19 3 -8 4 -14 3 -14 -14 0 -155 69
-150 74 10 10 61 7 68 -5z m345 1 c0 -5 -5 -10 -11 -10 -5 0 -7 5 -4 10 3 6 8
10 11 10 2 0 4 -4 4 -10z m335 -4 c28 -8 43 -15 35 -15 -8 0 -37 6 -65 13 -27
8 -43 15 -35 15 8 0 38 -6 65 -13z m-1118 -2 c-3 -3 -12 -4 -19 -1 -8 3 -5 6
6 6 11 1 17 -2 13 -5z m-1240 -10 c-3 -3 -12 -4 -19 -1 -8 3 -5 6 6 6 11 1 17
-2 13 -5z m247 -7 c-2 -7 -19 -19 -37 -26 -27 -11 -29 -14 -14 -20 16 -6 16
-9 5 -18 -23 -19 -85 -41 -135 -49 -26 -4 -66 -13 -87 -21 -43 -15 -54 -12
-32 6 11 9 288 137 303 141 1 0 0 -6 -3 -13z m1112 -27 c-79 -39 -80 -39 -199
-39 -120 1 -121 1 -91 19 36 22 89 35 79 20 -10 -15 16 -12 35 5 10 9 51 18
106 24 157 15 158 15 70 -29z m549 2 c-3 -3 3 -14 12 -25 13 -15 14 -18 3 -11
-26 15 -100 67 -100 69 0 1 20 -4 45 -13 25 -8 43 -17 40 -20z m175 34 c0 -2
-7 -7 -16 -10 -8 -3 -12 -2 -9 4 6 10 25 14 25 6z m-2140 -18 c-60 -26 -132
-63 -136 -70 -3 -4 -10 -8 -17 -8 -24 0 58 70 82 71 15 0 35 4 46 9 11 5 27 9
35 9 8 0 4 -5 -10 -11z m1140 2 c-8 -5 -24 -9 -35 -9 -16 1 -16 2 5 9 35 11
48 11 30 0z m-282 -15 c-2 -2 -50 -15 -108 -29 -58 -15 -121 -33 -140 -41 -49
-20 -121 -37 -128 -31 -6 7 119 66 188 89 36 12 200 23 188 12z m219 -1 c-3
-3 -12 -4 -19 -1 -8 3 -5 6 6 6 11 1 17 -2 13 -5z m1218 -30 c44 -15 91 -36
105 -47 18 -14 20 -18 6 -13 -10 3 -39 12 -65 18 -25 6 -68 25 -96 41 -54 31
-69 43 -45 34 8 -3 51 -18 95 -33z m-1810 11 c-16 -8 -37 -14 -45 -14 -8 0 1
7 20 14 46 18 64 17 25 0z m1895 5 c18 -12 2 -12 -25 0 -13 6 -15 9 -5 9 8 0
22 -4 30 -9z m363 -41 c80 -52 81 -53 9 -24 -69 28 -92 31 -92 12 0 -7 23 -21
51 -31 35 -13 47 -21 38 -27 -14 -8 -57 13 -155 78 -54 35 -69 39 -79 23 -3
-5 25 -30 62 -55 37 -25 61 -45 53 -45 -37 0 -200 61 -200 75 0 2 12 3 26 2
34 -3 41 16 12 31 -18 10 2 11 96 6 117 -6 120 -7 179 -45z m-2713 33 c0 -13
-52 -58 -87 -76 -19 -10 -33 -12 -33 -6 0 6 11 16 25 22 15 7 24 17 21 25 -3
7 7 19 22 27 30 17 52 20 52 8z m1030 -12 c-30 -23 -62 -27 -54 -6 3 8 20 17
37 19 18 2 34 4 37 5 3 1 -6 -7 -20 -18z m1041 -16 c6 -8 8 -14 4 -14 -9 0
-75 40 -75 45 0 9 60 -18 71 -31z m-2011 22 c0 -2 -7 -7 -16 -10 -8 -3 -12 -2
-9 4 6 10 25 14 25 6z m2808 -17 c18 -6 29 -15 26 -20 -8 -14 -42 -11 -51 5
-4 8 -17 16 -28 19 -19 4 -19 5 1 6 12 0 35 -4 52 -10z m-2560 -31 c-3 -14 1
-14 47 -3 46 10 27 -1 -49 -29 -76 -29 -97 -33 -78 -14 7 7 12 16 12 20 0 15
-18 8 -49 -18 -21 -18 -39 -24 -58 -21 -27 4 -27 4 4 6 18 0 36 8 41 17 5 9
33 24 63 35 65 22 70 23 67 7z m1947 -19 c43 -22 93 -69 74 -69 -14 0 -169 89
-169 97 0 9 53 -7 95 -28z m698 -9 c5 -19 4 -19 -18 -2 -13 9 -21 20 -19 24 8
12 32 -3 37 -22z m-2273 16 c0 -7 -106 -36 -131 -36 -36 0 -17 9 52 24 77 17
79 17 79 12z m2420 -73 c0 -7 -61 31 -73 46 -7 8 7 2 31 -14 23 -15 42 -30 42
-32z m-290 5 c0 -5 -9 -4 -20 2 -11 6 -20 12 -20 14 0 2 9 2 20 -1 11 -3 20
-9 20 -15z m-2425 -18 c-120 -35 -118 -35 -77 -8 39 24 81 36 137 36 32 1 21
-5 -60 -28z m-153 -6 c-20 -14 -39 -21 -64 -23 -5 -1 -8 -9 -9 -18 0 -15 -2
-15 -8 2 -7 17 -2 23 28 37 20 9 45 17 56 17 18 1 18 0 -3 -15z m2705 -38 c23
-17 43 -37 43 -43 0 -16 -96 42 -104 62 -3 8 -13 15 -21 15 -9 0 -13 5 -10 10
8 12 33 0 92 -44z m-2972 35 c-17 -15 -92 -44 -77 -29 7 7 27 18 45 25 41 15
43 15 32 4z m107 -23 c-25 -11 -51 -16 -60 -12 -12 5 -5 10 28 19 67 19 81 16
32 -7z m338 1 c-75 -27 -210 -61 -223 -56 -6 2 10 15 35 29 31 17 45 21 41 11
-6 -16 4 -14 112 18 81 24 103 22 35 -2z m2719 -32 c2 -5 12 -18 23 -29 11
-11 22 -36 25 -55 6 -33 4 -36 -13 -28 -10 4 -28 9 -39 10 -13 1 -19 8 -17 19
2 13 -2 17 -15 14 -10 -2 -17 -10 -15 -17 1 -7 -3 -11 -10 -9 -25 9 -13 33 26
52 34 17 37 20 20 26 -10 4 -26 4 -34 0 -8 -4 -26 -1 -40 6 -25 14 -17 18 28
14 27 -2 28 7 5 34 -15 16 -12 16 17 -4 19 -13 37 -28 39 -33z m-3145 -19 c15
-21 14 -24 -9 -48 -14 -15 -45 -31 -70 -37 -41 -9 -43 -9 -35 8 7 11 17 15 31
12 16 -5 20 -2 17 14 -3 20 26 73 42 73 5 0 16 -10 24 -22z m3011 -77 c12 -30
-8 -23 -48 18 l-42 43 42 -23 c24 -13 45 -30 48 -38z m-80 -41 c-3 -5 -11 -10
-16 -10 -6 0 -7 5 -4 10 3 6 11 10 16 10 6 0 7 -4 4 -10z m166 -91 l22 -31
-42 27 c-46 31 -49 35 -22 35 11 0 30 -14 42 -31z"/>
<path d="M12895 15550 c-3 -5 1 -10 9 -10 9 0 16 5 16 10 0 6 -4 10 -9 10 -6
0 -13 -4 -16 -10z"/>
<path d="M13443 15448 c2 -7 10 -13 17 -13 7 0 15 6 18 13 2 7 -5 12 -18 12
-13 0 -20 -5 -17 -12z"/>
<path d="M12295 15780 c-3 -5 1 -10 9 -10 9 0 16 5 16 10 0 6 -4 10 -9 10 -6
0 -13 -4 -16 -10z"/>
<path d="M10903 15773 c-18 -7 -16 -23 2 -23 8 0 15 7 15 15 0 8 -1 15 -2 14
-2 0 -9 -3 -15 -6z"/>
<path d="M11500 15770 c0 -5 4 -10 9 -10 6 0 13 5 16 10 3 6 -1 10 -9 10 -9 0
-16 -4 -16 -10z"/>
<path d="M11177 15624 c-4 -4 -4 -10 -1 -15 6 -10 34 0 34 12 0 10 -24 12 -33
3z"/>
<path d="M10470 15360 c0 -5 7 -10 15 -10 8 0 15 5 15 10 0 6 -7 10 -15 10 -8
0 -15 -4 -15 -10z"/>
<path d="M13865 15329 c-4 -6 -4 -13 -1 -16 8 -8 36 5 36 17 0 13 -27 13 -35
-1z"/>
<path d="M12360 15270 c0 -5 6 -10 14 -10 8 0 18 5 21 10 3 6 -3 10 -14 10
-12 0 -21 -4 -21 -10z"/>
<path d="M13998 15125 c-7 -8 5 -66 15 -65 4 0 12 0 18 0 17 0 6 64 -11 68 -9
1 -19 0 -22 -3z"/>
<path d="M11395 15050 c-3 -5 1 -10 9 -10 9 0 16 5 16 10 0 6 -4 10 -9 10 -6
0 -13 -4 -16 -10z"/>
<path d="M14065 15040 c-3 -5 1 -10 9 -10 9 0 16 5 16 10 0 6 -4 10 -9 10 -6
0 -13 -4 -16 -10z"/>
<path d="M12430 15020 c-454 -27 -965 -123 -1694 -320 -182 -49 -258 -117
-258 -230 1 -70 19 -104 154 -292 136 -190 165 -244 177 -333 25 -177 365
-666 703 -1011 43 -44 75 -84 71 -89 -4 -4 -2 -5 5 -1 8 5 39 -17 85 -60 100
-92 296 -238 419 -311 284 -169 597 -306 1483 -651 436 -170 524 -200 656
-229 109 -23 338 -23 464 0 227 41 523 153 664 250 173 118 228 271 155 427
-34 72 -92 135 -178 194 -31 22 -55 41 -53 42 1 2 54 -17 116 -42 177 -70 214
-76 471 -78 208 -1 229 -3 280 -24 30 -12 62 -22 71 -22 9 0 30 -7 45 -15 94
-49 191 -17 242 80 9 16 23 57 33 90 l17 60 17 -60 c24 -81 42 -108 70 -101
19 5 24 0 34 -34 11 -37 32 -52 45 -31 9 14 -45 161 -59 161 -21 0 -26 -16
-15 -44 15 -40 1 -31 -16 10 -14 33 -14 37 3 50 15 12 16 15 4 23 -12 8 -13
14 -3 36 7 14 12 32 12 40 0 23 -30 17 -40 -7 -7 -19 -9 -20 -9 -5 -1 29 30
87 55 104 18 11 21 19 15 32 -6 10 -5 24 2 36 11 18 12 17 17 -15 3 -20 11
-34 18 -33 8 2 12 -10 12 -31 0 -28 4 -35 22 -38 17 -2 25 -16 41 -75 20 -75
22 -79 45 -64 11 7 11 17 -2 59 -9 31 -11 54 -5 57 5 4 9 21 10 38 0 27 2 29
9 12 5 -11 12 -41 15 -67 5 -39 10 -48 26 -48 23 0 23 1 4 115 -8 53 -13 144
-12 223 1 88 -2 135 -9 140 -14 9 -24 61 -13 68 5 3 9 0 9 -5 0 -6 7 -11 15
-11 8 0 15 -6 15 -14 0 -8 5 -16 12 -18 9 -3 10 -16 1 -51 -9 -43 -9 -47 8
-47 12 0 21 10 25 27 l7 27 9 -24 c5 -14 11 -57 13 -98 3 -40 7 -77 10 -82 3
-5 6 -34 6 -65 1 -37 5 -55 14 -55 7 0 15 -18 19 -40 6 -41 12 -46 33 -32 9 5
9 27 2 87 -6 44 -8 103 -4 130 5 42 65 322 81 378 4 12 0 17 -14 17 -17 0 -20
10 -25 94 -9 130 -33 226 -58 226 -23 0 -23 -9 -4 -80 20 -73 19 -86 -1 -65
-10 9 -19 41 -23 73 -4 41 -10 57 -21 57 -13 0 -15 -17 -12 -105 3 -125 7
-150 27 -150 11 0 15 -12 15 -45 0 -25 -4 -45 -8 -45 -13 0 -72 214 -66 237 3
11 -1 25 -10 32 -9 8 -16 22 -16 32 0 10 -6 22 -14 26 -7 4 -19 25 -25 45 -15
46 -25 53 -45 32 -15 -14 -16 -14 -16 1 0 8 -7 18 -15 22 -26 9 -130 124 -127
139 2 8 -3 14 -11 14 -7 0 -28 32 -47 70 -23 48 -39 70 -52 70 -22 0 -23 -12
-2 -53 16 -31 15 -31 -2 -15 -18 18 -57 109 -49 116 2 3 13 -6 23 -18 19 -23
42 -21 42 4 0 21 -115 130 -215 203 -52 37 -94 72 -95 77 0 5 7 3 15 -4 15
-13 45 -7 45 8 0 5 -11 15 -25 22 -15 8 -51 43 -82 78 l-56 64 57 -37 c52 -33
86 -40 86 -18 0 5 -31 28 -70 52 -38 23 -70 46 -70 51 0 4 -26 22 -57 40 -32
18 -79 52 -105 77 -31 31 -52 44 -63 39 -9 -3 -27 1 -40 10 -14 9 -32 13 -41
10 -14 -5 -154 67 -154 80 0 2 32 -12 70 -31 66 -33 90 -37 90 -15 0 6 -30 25
-67 44 -85 44 -75 46 23 5 52 -22 79 -28 86 -21 7 7 1 15 -20 26 -16 8 -32 22
-35 30 -4 9 -27 17 -61 21 -56 7 -65 18 -36 42 13 11 13 12 0 13 -8 0 -80 7
-159 15 -80 7 -149 11 -153 9 -17 -11 -28 8 -13 22 8 9 13 20 10 25 -8 12 17
11 71 -2 27 -7 44 -17 44 -26 0 -8 6 -12 13 -9 6 3 20 9 30 12 9 4 17 10 17
14 0 10 -110 40 -148 40 -18 0 -32 4 -32 9 0 17 94 22 201 10 96 -11 133 -9
118 6 -3 2 -56 11 -119 19 -62 8 -116 20 -120 26 -4 7 -65 16 -151 22 -79 5
-161 14 -183 21 -34 10 -40 9 -55 -10 -15 -19 -58 -38 -111 -48 -13 -3 -28 -9
-34 -15 -17 -17 -27 -11 -14 10 10 16 10 22 0 32 -11 11 -16 10 -25 -3 -12
-16 -139 -59 -173 -59 -9 0 -25 7 -35 16 -25 22 -49 11 -49 -23 0 -49 11 -73
32 -73 16 0 19 5 15 26 l-4 25 29 -28 30 -28 -26 -9 c-14 -6 -26 -14 -26 -18
0 -5 -9 -4 -19 2 -25 13 -51 13 -51 0 0 -14 136 -75 263 -118 44 -15 62 -32
35 -32 -9 0 -8 -4 2 -10 13 -8 13 -10 -2 -10 -27 0 -108 38 -114 55 -10 24
-31 18 -31 -9 0 -20 9 -29 47 -45 26 -11 65 -24 88 -29 23 -6 48 -16 56 -24 8
-8 28 -21 45 -28 21 -8 31 -19 31 -34 0 -12 9 -25 22 -31 11 -6 25 -20 29 -31
l7 -21 -38 18 c-159 77 -325 103 -601 95 -167 -5 -216 -3 -255 9 -63 19 -101
19 -112 0 -10 -20 -39 0 -242 170 -174 144 -210 170 -315 222 -147 74 -286
111 -517 137 -160 19 -457 26 -628 16z m2814 -156 c3 -8 2 -12 -4 -9 -6 3 -10
10 -10 16 0 14 7 11 14 -7z m56 6 c0 -5 -7 -10 -15 -10 -8 0 -15 5 -15 10 0 6
7 10 15 10 8 0 15 -4 15 -10z m-105 -26 c28 -11 -4 -24 -55 -23 l-45 1 40 13
c22 8 41 14 42 14 1 1 9 -2 18 -5z m-275 -24 c0 -15 -93 -52 -108 -43 -26 15
-13 28 40 40 69 15 68 15 68 3z m112 -15 c13 3 35 2 48 -3 23 -8 20 -10 -30
-20 -30 -6 -72 -14 -92 -17 -21 -3 -38 -10 -38 -15 0 -6 4 -10 9 -10 4 0 6
-11 4 -25 l-5 -24 98 -3 c64 -2 111 2 132 10 19 7 39 11 45 8 7 -2 -3 -7 -21
-11 -19 -5 -36 -14 -39 -21 -3 -8 -17 -14 -32 -14 -34 0 -44 -9 -30 -27 13
-15 49 -18 49 -3 0 6 12 10 27 10 32 0 23 -11 -20 -25 -52 -17 -47 -41 13 -54
41 -9 56 -8 78 4 l27 14 -45 1 c-57 0 -84 15 -43 23 15 3 31 1 34 -5 4 -6 42
-11 86 -13 55 -2 90 -8 118 -22 l39 -20 -67 -7 c-65 -7 -107 2 -107 25 0 6 -5
9 -12 7 -14 -5 -20 -36 -8 -43 5 -3 7 -12 3 -20 -4 -12 3 -15 31 -15 38 0 96
-24 96 -39 0 -5 12 -12 28 -16 15 -4 21 -10 15 -12 -7 -3 -13 -11 -13 -19 0
-8 -7 -14 -15 -14 -8 0 -15 -4 -15 -10 0 -15 -21 -12 -42 7 -24 21 -23 43 1
36 19 -5 38 13 26 25 -10 10 -129 20 -140 11 -19 -14 -115 -23 -115 -10 0 7 5
9 11 6 14 -9 59 3 59 15 0 6 -15 10 -32 11 -18 1 -44 5 -58 9 -18 6 -7 8 43 9
52 1 67 4 67 16 0 12 -14 15 -67 15 -45 0 -82 7 -110 20 -24 10 -43 21 -43 24
0 3 19 4 41 3 60 -3 61 19 2 28 -26 4 -42 10 -35 12 24 9 11 21 -30 28 -24 3
-82 18 -131 33 -84 25 -87 26 -60 38 16 6 32 8 38 3 5 -5 17 -9 28 -9 13 0 17
6 15 21 -2 17 10 27 67 53 44 21 74 30 82 24 6 -5 22 -6 35 -3z m211 8 c-7 -2
-19 -2 -25 0 -7 3 -2 5 12 5 14 0 19 -2 13 -5z m149 -61 c-21 -7 -13 -32 11
-32 33 0 145 -17 125 -19 -20 -1 -38 -30 -38 -61 0 -16 -4 -20 -16 -16 -9 3
-24 6 -35 6 -12 0 -16 5 -13 15 5 12 -3 15 -37 16 -45 1 -109 16 -76 18 37 2
7 41 -32 42 -24 0 -24 1 -6 9 11 5 34 9 51 9 17 1 37 8 44 16 7 8 17 12 23 8
8 -5 7 -8 -1 -11z m-397 -21 c-3 -5 7 -12 22 -14 23 -3 21 -4 -9 -6 -37 -1
-51 12 -25 22 18 8 19 8 12 -2z m585 -61 c0 -5 11 -12 25 -16 14 -3 25 -9 25
-14 0 -4 10 -12 23 -18 21 -10 20 -11 -10 -11 -18 -1 -33 -5 -33 -10 0 -4 28
-23 63 -41 59 -31 177 -107 177 -114 0 -1 -48 22 -107 52 -96 49 -108 53 -118
38 -17 -23 -79 -8 -165 39 l-65 36 45 -6 c25 -4 56 -14 69 -22 25 -16 35 -11
46 25 5 16 2 22 -9 22 -22 0 -20 37 2 43 29 8 32 7 32 -3z m-297 -57 c-7 -2
-19 -2 -25 0 -7 3 -2 5 12 5 14 0 19 -2 13 -5z m-4505 -10 c-2 -5 -12 -26 -21
-48 -10 -22 -22 -48 -27 -57 -11 -20 -13 -35 -4 -25 3 3 18 -8 31 -24 14 -16
23 -32 20 -35 -8 -8 -147 115 -147 130 0 23 30 40 71 41 21 0 44 6 51 13 13
13 32 16 26 5z m4658 -95 c4 -7 3 -8 -5 -4 -6 4 -18 3 -25 -3 -7 -6 -22 -8
-32 -4 -17 6 -16 7 2 14 29 11 52 10 60 -3z m78 -3 c11 -9 14 -15 7 -15 -7 0
-19 7 -27 15 -20 19 -5 19 20 0z m281 -83 c-4 -4 -155 78 -155 85 0 2 36 -15
79 -39 44 -23 78 -44 76 -46z m-230 50 c-3 -3 -11 0 -18 7 -9 10 -8 11 6 5 10
-3 15 -9 12 -12z m46 -39 c13 -16 12 -17 -3 -4 -17 13 -22 21 -14 21 2 0 10
-8 17 -17z m114 -18 c22 -13 36 -24 30 -25 -5 0 -28 11 -50 25 -22 13 -35 24
-30 25 6 0 28 -11 50 -25z m-441 -32 c4 -10 -7 -13 -43 -13 -67 0 -77 25 -10
26 32 1 50 -4 53 -13z m254 -8 c13 -11 -91 -8 -105 3 -15 12 -9 13 42 7 33 -4
61 -9 63 -10z m68 -13 c-10 -2 -22 0 -28 6 -6 6 0 7 19 4 21 -5 23 -7 9 -10z
m296 9 c2 -5 51 -39 111 -74 76 -46 103 -66 91 -71 -13 -5 -14 -9 -4 -21 11
-13 10 -14 -2 -10 -8 3 -22 19 -32 36 -15 25 -23 30 -43 24 -15 -3 -22 -2 -18
4 3 6 -10 17 -30 25 -19 8 -35 22 -35 30 0 8 -17 27 -37 41 -23 15 -31 25 -21
25 9 0 18 -4 20 -9z m-572 -48 c5 -23 72 -78 143 -119 23 -13 36 -24 30 -24
-7 0 -13 -7 -13 -15 0 -8 3 -15 8 -15 4 0 86 -49 182 -110 162 -101 210 -125
210 -101 0 5 -12 19 -27 30 l-28 20 40 -11 c51 -15 68 -31 130 -117 28 -39 55
-71 61 -71 7 0 50 -40 96 -90 47 -49 88 -90 92 -90 4 0 18 -7 32 -17 17 -11
21 -18 13 -23 -8 -5 5 -31 40 -83 28 -42 51 -81 51 -86 0 -6 8 -18 19 -28 10
-10 51 -100 92 -200 56 -139 78 -183 92 -183 22 0 22 18 -3 76 -11 26 -18 49
-15 52 3 3 5 0 5 -6 0 -7 7 -12 15 -12 8 0 15 -6 15 -14 0 -8 5 -16 10 -18 6
-2 12 -21 14 -43 2 -22 6 -64 11 -92 5 -37 4 -53 -4 -53 -7 0 -11 -27 -11 -81
0 -72 2 -80 18 -75 11 4 22 -1 29 -14 10 -16 10 -18 -1 -14 -17 6 -64 -48 -72
-84 -4 -15 -13 -36 -20 -47 -12 -16 -14 -17 -14 -3 0 9 3 19 8 21 4 3 4 70 1
149 -8 162 -26 234 -90 358 -55 107 -145 214 -544 650 -98 106 -160 155 -261
204 -82 40 -110 61 -212 159 -64 62 -148 134 -185 161 -51 36 -65 51 -55 58 9
6 4 8 -16 6 -17 -2 -31 2 -34 10 -3 10 13 12 69 10 66 -3 74 -5 79 -25z m137
-13 c31 -22 52 -40 47 -40 -11 0 -124 69 -124 76 0 12 28 0 77 -36z m50 24
c-3 -3 -12 -4 -19 -1 -8 3 -5 6 6 6 11 1 17 -2 13 -5z m70 0 c-3 -3 -12 -4
-19 -1 -8 3 -5 6 6 6 11 1 17 -2 13 -5z m88 -15 c5 -7 -5 -8 -32 -3 -51 9 -54
14 -10 14 20 0 39 -5 42 -11z m-60 -33 c28 -8 46 -15 40 -15 -5 -1 10 -20 35
-42 l45 -40 -38 15 c-36 15 -71 36 -126 78 -28 21 -22 22 44 4z m255 -21 c31
-18 16 -18 -30 0 -23 9 -28 14 -15 14 11 0 31 -6 45 -14z m-4700 -256 c52 -53
109 -104 125 -112 17 -8 76 -22 133 -31 57 -9 117 -23 135 -32 39 -20 217
-143 217 -150 0 -3 -4 -3 -8 0 -5 3 -35 8 -68 11 -32 3 -84 10 -114 16 -30 5
-97 14 -148 19 -55 6 -108 18 -130 29 -66 35 -141 106 -210 197 -36 49 -113
138 -171 197 l-106 108 125 -77 c97 -60 146 -100 220 -175z m4725 217 c29 7
33 -7 9 -30 -20 -20 -19 -21 -60 10 -19 15 -42 24 -52 21 -11 -2 -30 4 -43 14
-23 18 -20 18 49 -1 40 -11 84 -17 97 -14z m-195 -56 c79 -34 105 -50 79 -50
-36 0 -138 43 -160 67 -14 15 -17 24 -9 20 8 -3 49 -20 90 -37z m111 13 c13
-16 12 -17 -3 -4 -17 13 -22 21 -14 21 2 0 10 -8 17 -17z m189 -54 c68 -45 86
-64 67 -72 -8 -3 -44 23 -83 60 -73 69 -71 70 16 12z m146 23 c-9 -9 -37 8
-31 18 5 8 11 7 21 -1 8 -6 12 -14 10 -17z m-282 -11 c-2 -3 -12 3 -22 13 -16
17 -16 18 5 5 12 -7 20 -15 17 -18z m-248 -7 c18 -14 18 -14 -6 -3 -31 14 -36
19 -24 19 6 0 19 -7 30 -16z m639 -58 c46 -35 82 -66 78 -69 -3 -3 12 -28 33
-54 55 -69 57 -73 48 -73 -5 0 -27 25 -49 56 -22 31 -48 60 -57 65 -10 5 -17
15 -15 21 1 6 -31 35 -72 65 -40 29 -68 53 -62 53 6 0 49 -29 96 -64z m-280
-6 c10 -11 14 -20 9 -20 -5 0 -15 9 -22 20 -7 11 -11 20 -9 20 2 0 12 -9 22
-20z m206 -47 c13 -16 12 -17 -3 -4 -10 7 -18 15 -18 17 0 8 8 3 21 -13z
m-4721 -71 c22 -11 18 -12 -30 -7 -56 5 -92 24 -118 63 -14 21 -10 20 54 -11
38 -18 80 -39 94 -45z m4567 62 c-3 -3 -12 -4 -19 -1 -8 3 -5 6 6 6 11 1 17
-2 13 -5z m93 -61 c2 -2 -2 -8 -10 -14 -12 -7 -5 -18 35 -54 28 -24 45 -44 38
-45 -16 0 -113 90 -113 106 0 7 -6 15 -12 17 -7 3 3 3 22 0 19 -3 37 -8 40
-10z m-4392 -69 c23 -9 42 -20 42 -25 0 -19 -63 -8 -113 21 l-52 31 40 -6 c22
-4 59 -13 83 -21z m4762 1 c7 -9 8 -15 2 -15 -5 0 -12 7 -16 15 -3 8 -4 15 -2
15 2 0 9 -7 16 -15z m-4010 -29 c90 -16 207 -50 141 -41 -19 3 -89 10 -155 15
-202 17 -306 32 -299 43 8 13 205 3 313 -17z m-435 -18 c33 -15 32 -35 -2 -42
-150 -30 -156 -30 -234 7 l-74 35 42 1 c23 1 65 -8 93 -19 62 -24 60 -24 60
-1 0 14 8 21 28 24 51 8 61 7 87 -5z m306 -52 c20 -8 92 -29 161 -45 69 -16
163 -46 209 -65 46 -19 161 -67 254 -106 185 -78 264 -100 367 -100 95 0 152
-15 249 -63 68 -34 362 -200 378 -214 3 -2 -4 -9 -14 -17 -17 -12 -14 -14 31
-20 93 -13 104 -17 104 -37 0 -15 7 -19 30 -19 17 0 47 -8 68 -17 41 -18 45
-19 149 -31 40 -5 81 -15 91 -23 11 -8 49 -36 85 -62 80 -59 172 -97 231 -97
63 0 76 -7 76 -42 0 -72 -93 -178 -157 -178 -10 0 -31 -7 -47 -15 -25 -13 -35
-13 -90 1 -61 16 -333 128 -350 145 -6 6 -2 9 10 9 32 0 80 36 97 73 21 43 24
161 5 155 -8 -3 -15 -31 -19 -69 -6 -73 -19 -102 -54 -125 -19 -12 -28 -14
-39 -5 -7 6 -29 11 -47 10 -19 0 -140 3 -269 9 -268 11 -306 20 -408 97 -44
33 -72 46 -119 54 -98 18 -174 48 -223 89 -71 61 -91 69 -162 75 -109 8 -237
78 -275 150 -11 21 -14 45 -10 78 l6 48 -30 -11 c-51 -18 -157 -5 -219 27
-128 64 -185 139 -185 240 0 42 6 69 20 89 18 28 18 28 -1 25 -28 -6 -54 -66
-54 -124 0 -96 72 -185 200 -248 57 -27 75 -31 148 -32 l82 0 -5 -26 c-7 -33
9 -77 43 -113 l27 -28 -52 26 c-29 14 -53 33 -53 41 0 21 -40 45 -74 45 -33 0
-246 122 -281 160 -10 12 -36 56 -57 98 l-37 77 0 -47 c-1 -26 -6 -50 -11 -53
-15 -9 -59 21 -72 50 -8 19 -14 22 -24 14 -10 -8 -28 0 -73 32 -58 41 -59 43
-44 65 16 25 25 29 88 39 74 11 107 26 102 44 -4 16 3 16 102 0 58 -10 122
-24 142 -33z m3889 18 c11 -12 11 -15 -1 -12 -8 2 -15 -5 -15 -17 -1 -11 -2
-24 -3 -29 -1 -5 -12 1 -26 14 -23 22 -24 25 -8 42 20 22 36 23 53 2z m-3540
-4 c18 -12 2 -12 -25 0 -13 6 -15 9 -5 9 8 0 22 -4 30 -9z m124 -55 c50 -24
107 -58 126 -75 36 -32 26 -31 -23 2 -15 11 -69 42 -120 69 -115 61 -105 64
17 4z m3523 -25 c6 0 24 -20 39 -44 16 -25 37 -47 48 -50 16 -4 17 -8 7 -20
-11 -13 -7 -25 19 -71 43 -74 18 -74 -47 1 -47 54 -78 117 -69 140 3 7 -6 22
-20 35 -28 26 -33 51 -6 26 10 -10 23 -17 29 -17z m108 -10 c3 -6 -1 -7 -9 -4
-18 7 -21 14 -7 14 6 0 13 -4 16 -10z m174 -172 c12 -21 20 -38 18 -38 -7 0
-47 65 -47 75 0 10 1 8 29 -37z m-3129 -36 c32 -13 -130 -4 -175 9 -21 6 -3 8
60 5 50 -2 101 -8 115 -14z m3265 -37 c15 -25 25 -49 23 -55 -2 -6 -15 14 -30
45 -32 66 -29 72 7 10z m-176 -2 c32 -64 50 -113 42 -113 -5 0 -16 20 -25 45
-10 25 -21 45 -25 45 -11 0 -31 47 -24 54 10 10 12 8 32 -31z m-2999 7 c8 -5
11 -10 5 -10 -5 0 -17 5 -25 10 -8 5 -10 10 -5 10 6 0 17 -5 25 -10z m2865
-50 l7 -25 -20 20 c-11 11 -23 31 -27 45 l-7 25 20 -20 c11 -11 23 -31 27 -45z
m-2684 -34 c248 -118 297 -142 429 -211 69 -35 118 -64 109 -65 -32 0 -138 42
-269 109 -134 69 -441 241 -429 241 4 0 76 -33 160 -74z m2764 14 c14 -27 24
-50 22 -50 -5 0 -67 87 -67 94 0 3 4 6 10 6 5 0 21 -22 35 -50z m213 -40 c7
-11 11 -20 9 -20 -2 0 -12 9 -22 20 -10 11 -14 20 -9 20 5 0 15 -9 22 -20z
m36 -67 c9 -18 14 -33 12 -33 -6 0 -36 55 -36 66 0 11 5 3 24 -33z m-170 -92
c-6 -7 -28 17 -47 51 -18 32 -18 32 16 -7 19 -22 33 -42 31 -44z m90 29 c15 0
34 -36 34 -66 0 -16 -4 -21 -17 -17 -16 4 -30 33 -46 93 -5 21 -4 22 5 8 6
-10 17 -18 24 -18z m-51 -79 c19 -32 23 -66 7 -56 -9 5 -40 69 -40 81 0 14 18
-1 33 -25z m-219 -106 c42 -84 66 -173 71 -263 2 -37 2 -53 -1 -37 -19 124
-55 238 -113 356 -21 42 -25 55 -11 39 11 -14 35 -56 54 -95z m-3431 71 c15
-8 48 -33 75 -55 26 -22 67 -51 92 -65 92 -52 20 -23 -130 54 -153 78 -154 79
-110 79 25 1 57 -6 73 -13z m3719 -90 c2 -17 -2 -31 -9 -33 -9 -3 -13 9 -13
44 1 51 15 44 22 -11z m282 -18 c3 -29 2 -66 -2 -83 l-9 -30 -7 38 c-4 20 -10
37 -14 37 -14 0 -13 73 0 81 22 15 26 10 32 -43z m-4078 -6 c-5 -4 -66 26 -66
33 0 3 16 -3 35 -12 19 -9 33 -18 31 -21z m1788 -35 c115 -50 136 -63 112 -65
-55 -7 -95 9 -193 74 -112 76 -109 75 81 -9z m2105 -91 c2 -73 -5 -52 -12 34
-3 44 -2 63 3 45 4 -16 8 -52 9 -79z m-3412 53 c21 -19 49 -42 63 -51 l25 -18
-30 7 c-33 7 -180 65 -223 87 -24 13 -20 14 50 11 72 -2 80 -4 115 -36z
m-1667 -165 c218 -173 484 -355 688 -468 57 -32 101 -60 98 -63 -6 -7 -255
124 -366 193 -182 112 -401 286 -525 416 -41 43 -46 50 -15 22 25 -22 79 -68
120 -100z m3317 24 c59 -40 62 -51 8 -28 -26 11 -52 20 -58 20 -6 0 -18 7 -28
16 -16 14 -18 14 -29 -6 -10 -18 -18 -21 -43 -16 l-31 6 24 -25 c22 -23 23
-29 12 -58 -19 -53 -16 -60 19 -53 27 5 37 1 68 -31 21 -20 53 -42 72 -49 60
-22 0 -15 -111 12 -73 18 -120 24 -155 20 -27 -3 -79 1 -115 8 -43 9 -55 14
-35 15 43 2 106 33 153 75 47 43 86 126 78 167 l-5 28 67 -36 c37 -20 86 -49
109 -65z m1620 -25 c-2 -16 -4 -3 -4 27 0 30 2 43 4 28 2 -16 2 -40 0 -55z
m-1663 -11 c5 -8 -39 -82 -49 -82 -2 0 -11 -3 -20 -6 -13 -5 -11 4 10 45 25
47 46 63 59 43z m-1129 -12 c167 -11 213 -22 382 -94 135 -57 235 -89 356
-111 l72 -13 -70 -1 c-38 0 -115 6 -170 14 -94 14 -439 101 -710 179 l-120 35
60 0 c33 0 123 -4 200 -9z m2902 -57 c-3 -10 -5 -4 -5 12 0 17 2 24 5 18 2 -7
2 -21 0 -30z m-1614 -89 c23 -4 37 -12 37 -21 0 -12 -9 -13 -42 -8 -24 4 -56
13 -73 20 l-30 13 35 1 c19 0 52 -2 73 -5z m125 -88 c16 -18 16 -19 -3 -12
-11 4 -47 15 -80 24 l-60 17 40 5 c29 4 43 11 50 28 10 23 10 22 23 -10 8 -18
21 -42 30 -52z m-155 37 c-7 -2 -19 -2 -25 0 -7 3 -2 5 12 5 14 0 19 -2 13 -5z
m-395 -30 c-10 -2 -26 -2 -35 0 -10 3 -2 5 17 5 19 0 27 -2 18 -5z m-165 -40
c-18 -2 -48 -2 -65 0 -18 2 -4 4 32 4 36 0 50 -2 33 -4z m1074 -99 c-3 -3 -12
-4 -19 -1 -8 3 -5 6 6 6 11 1 17 -2 13 -5z m101 -11 c-16 -2 -40 -2 -55 0 -16
2 -3 4 27 4 30 0 43 -2 28 -4z m-3153 -163 c3 -6 -1 -7 -9 -4 -18 7 -21 14 -7
14 6 0 13 -4 16 -10z m2525 -537 c-78 -36 -272 -100 -358 -118 -146 -30 -128
-24 343 127 72 23 78 20 15 -9z"/>
<path d="M15350 14400 c-13 -8 -12 -10 3 -10 9 0 17 5 17 10 0 12 -1 12 -20 0z"/>
<path d="M14937 14933 c-13 -12 -7 -23 13 -23 11 0 20 7 20 15 0 15 -21 21
-33 8z"/>
<path d="M15080 14915 c0 -8 7 -15 15 -15 8 0 15 7 15 15 0 8 -7 15 -15 15 -8
0 -15 -7 -15 -15z"/>
<path d="M14090 14845 c-10 -13 -9 -15 9 -15 12 0 21 6 21 15 0 8 -4 15 -9 15
-5 0 -14 -7 -21 -15z"/>
<path d="M14626 14740 c-11 -3 -15 -9 -10 -13 10 -6 42 9 34 16 -3 3 -14 1
-24 -3z"/>
<path d="M16055 14460 c-3 -5 1 -10 9 -10 9 0 16 5 16 10 0 6 -4 10 -9 10 -6
0 -13 -4 -16 -10z"/>
<path d="M16425 14051 c-3 -5 -1 -12 5 -16 12 -7 30 2 30 16 0 12 -27 12 -35
0z"/>
<path d="M16627 13933 c-13 -12 -7 -23 13 -23 11 0 20 7 20 15 0 15 -21 21
-33 8z"/>
<path d="M16931 13501 c-9 -6 -10 -11 -2 -15 13 -8 31 1 31 15 0 11 -11 11
-29 0z"/>
<path d="M17127 12864 c-13 -13 -7 -24 14 -24 11 0 19 5 17 12 -5 14 -22 21
-31 12z"/>
<path d="M17124 12697 c-5 -14 29 -174 40 -184 3 -3 12 -1 19 5 12 10 11 24
-3 91 -10 43 -21 84 -24 90 -10 15 -26 14 -32 -2z"/>
<path d="M16725 12519 c-10 -15 1 -23 20 -15 9 3 13 10 10 16 -8 13 -22 13
-30 -1z"/>
<path d="M16715 12450 c-3 -5 -2 -10 4 -10 6 0 8 -7 5 -15 -4 -9 0 -15 9 -15
20 0 31 16 17 25 -6 4 -8 11 -5 16 4 5 -1 9 -9 9 -8 0 -18 -4 -21 -10z"/>
<path d="M16775 12360 c-3 -5 3 -10 14 -10 12 0 21 5 21 10 0 6 -6 10 -14 10
-8 0 -18 -4 -21 -10z"/>
<path d="M9640 10835 c0 -8 7 -15 15 -15 8 0 15 7 15 15 0 8 -7 15 -15 15 -8
0 -15 -7 -15 -15z"/>
<path d="M10640 9510 c0 -5 7 -10 15 -10 8 0 15 5 15 10 0 6 -7 10 -15 10 -8
0 -15 -4 -15 -10z"/>
<path d="M11140 9400 c0 -5 4 -10 9 -10 6 0 13 5 16 10 3 6 -1 10 -9 10 -9 0
-16 -4 -16 -10z"/>
<path d="M10925 9260 c-3 -5 1 -10 9 -10 8 0 18 5 21 10 3 6 -1 10 -9 10 -8 0
-18 -4 -21 -10z"/>
<path d="M11210 9190 c0 -5 6 -10 14 -10 8 0 18 5 21 10 3 6 -3 10 -14 10 -12
0 -21 -4 -21 -10z"/>
<path d="M11470 9160 c-20 -12 -5 -24 16 -12 9 5 12 12 7 15 -5 3 -15 2 -23
-3z"/>
<path d="M11785 9120 c-3 -5 3 -10 14 -10 12 0 21 5 21 10 0 6 -6 10 -14 10
-8 0 -18 -4 -21 -10z"/>
<path d="M12005 8729 c-4 -6 -5 -13 -2 -16 7 -7 27 6 27 18 0 12 -17 12 -25
-2z"/>
<path d="M13075 8440 c-3 -5 -2 -10 4 -10 5 0 13 5 16 10 3 6 2 10 -4 10 -5 0
-13 -4 -16 -10z"/>
<path d="M13070 8370 c0 -5 7 -10 15 -10 8 0 15 5 15 10 0 6 -7 10 -15 10 -8
0 -15 -4 -15 -10z"/>
<path d="M13605 8370 c-3 -5 3 -10 14 -10 12 0 21 5 21 10 0 6 -6 10 -14 10
-8 0 -18 -4 -21 -10z"/>
<path d="M14980 8207 c-127 -70 -206 -119 -208 -130 -2 -11 3 -17 14 -17 28 0
445 231 441 244 -9 27 -54 9 -247 -97z"/>
<path d="M15343 8304 c-3 -8 -1 -20 5 -26 16 -16 47 -5 50 20 3 18 -1 22 -23
22 -14 0 -28 -7 -32 -16z"/>
<path d="M13175 8301 c-3 -5 -1 -12 5 -16 12 -7 30 2 30 16 0 12 -27 12 -35 0z"/>
<path d="M14500 8150 c0 -5 7 -7 15 -4 8 4 15 8 15 10 0 2 -7 4 -15 4 -8 0
-15 -4 -15 -10z"/>
<path d="M14287 8124 c-4 -4 -4 -10 -1 -15 6 -10 34 0 34 12 0 10 -24 12 -33
3z"/>
<path d="M14500 8045 c0 -9 6 -12 15 -9 8 4 15 10 15 15 0 5 -7 9 -15 9 -8 0
-15 -7 -15 -15z"/>
<path d="M9280 10840 c-22 -14 0 -30 28 -19 12 4 22 13 22 19 0 13 -30 13 -50
0z"/>
<path d="M9353 10533 c-24 -9 -12 -48 41 -133 46 -75 56 -85 82 -85 43 0 41
23 -12 111 -68 114 -76 122 -111 107z"/>
<path d="M9507 9733 c-12 -12 -7 -22 8 -17 8 4 15 10 15 15 0 11 -14 12 -23 2z"/>
<path d="M10034 9056 c-10 -8 -16 -18 -12 -21 12 -12 58 4 58 20 0 19 -20 19
-46 1z"/>
<path d="M10748 8599 c-26 -15 -22 -39 6 -39 26 0 51 24 41 40 -8 13 -25 12
-47 -1z"/>
<path d="M11543 8163 c-18 -6 -16 -23 1 -23 17 0 30 16 19 23 -5 2 -14 2 -20
0z"/>
<path d="M11390 8835 c0 -8 7 -15 15 -15 8 0 15 7 15 15 0 8 -7 15 -15 15 -8
0 -15 -7 -15 -15z"/>
<path d="M11613 8773 c-18 -6 -16 -23 1 -23 17 0 30 16 19 23 -5 2 -14 2 -20
0z"/>
<path d="M12325 8412 c-12 -12 -3 -19 30 -20 24 -1 35 3 35 13 0 13 -53 19
-65 7z"/>
<path d="M12395 8370 c-3 -5 1 -10 9 -10 9 0 16 5 16 10 0 6 -4 10 -9 10 -6 0
-13 -4 -16 -10z"/>
<path d="M13677 8054 c-4 -4 -4 -10 -1 -15 6 -10 34 0 34 12 0 10 -24 12 -33
3z"/>
<path d="M14065 7986 c-16 -12 -17 -17 -8 -27 16 -16 67 5 60 24 -6 18 -30 20
-52 3z"/>
</g>
</svg>
